<svg width="380" height="173" viewBox="0 0 380 173" fill="none" xmlns="http://www.w3.org/2000/svg">
<path d="M-8.32718 137.993C-41.8387 137.993 -69.364 163.304 -72.4524 195.649L380.5 195.649L380.5 147.32C371.905 142.845 362.124 140.315 351.738 140.315C337.462 140.315 324.316 145.101 313.841 153.139L313.203 153.628L313.046 152.839C306.603 120.404 277.716 95.935 243.033 95.935C219.041 95.935 197.816 107.644 184.881 125.606L184.877 125.612L184.873 125.618C184.331 126.327 183.8 127.048 183.286 127.773L182.771 128.502L182.419 127.682C180.822 123.965 176.958 121.947 172.835 121.684C168.708 121.421 164.474 122.929 162.2 126.079L161.68 126.799L161.334 125.982C151.397 102.53 127.968 86.0503 100.651 86.0503C64.3173 86.0503 34.8751 115.188 34.8751 151.117C34.8751 151.874 34.892 152.621 34.9203 153.375L34.9633 154.526L34.0932 153.772C22.758 143.952 7.9212 137.993 -8.32718 137.993Z" fill="#3CA200" stroke="#3CA200"/>
<path d="M-0.189016 109.841C-0.189017 119.413 7.65538 127.182 17.3432 127.182C27.0311 127.182 34.8755 119.413 34.8755 109.841C34.8755 100.269 27.0311 92.5 17.3432 92.5C7.65539 92.5 -0.189015 100.269 -0.189016 109.841Z" fill="#3CA200" stroke="#3CA200"/>
<path d="M155.753 91.3697C155.753 99.5413 162.45 106.175 170.723 106.175C178.995 106.175 185.692 99.5413 185.692 91.3697C185.692 83.1982 178.995 76.5647 170.723 76.5647C162.45 76.5647 155.753 83.1981 155.753 91.3697Z" fill="#3CA200" stroke="#3CA200"/>
<path d="M206.605 97.0881C200.736 97.0881 195.978 92.3806 195.978 86.5736C195.978 80.7666 200.736 76.0591 206.605 76.0591C212.474 76.0591 217.232 80.7666 217.232 86.5736C217.232 92.3806 212.474 97.0881 206.605 97.0881Z" stroke="#3CA200" stroke-width="2" stroke-miterlimit="10"/>
<path d="M241.998 69.9692C241.998 81.42 251.381 90.7119 262.968 90.7119C274.555 90.7119 283.938 81.4201 283.938 69.9692C283.938 58.5184 274.555 49.2266 262.968 49.2266C251.381 49.2266 241.998 58.5184 241.998 69.9692Z" fill="#3CA200" stroke="#3CA200"/>
<path d="M342.691 42.2548C342.691 63.5693 358.71 81.1858 379.5 83.9482L379.5 0.567056C358.71 3.3294 342.691 20.9459 342.691 42.2548Z" fill="#3CA200" stroke="#3CA200"/>
<path d="M216.571 50.1154C216.571 55.6692 221.123 60.1805 226.75 60.1805C232.376 60.1805 236.928 55.6692 236.928 50.1154C236.928 44.5616 232.376 40.0503 226.75 40.0503C221.123 40.0503 216.571 44.5616 216.571 50.1154Z" fill="#3CA200" stroke="#3CA200"/>
</svg>
