<svg width="565" height="232" viewBox="0 0 565 232" fill="none" xmlns="http://www.w3.org/2000/svg">
<path d="M-15 241.349L567 241.349L567 178.483C555.81 172.598 543.046 169.267 529.488 169.267C511.042 169.267 494.052 175.44 480.516 185.807C472.197 144.007 434.903 112.481 390.135 112.481C359.165 112.481 331.765 127.568 315.067 150.712C314.368 151.626 313.683 152.554 313.02 153.489C308.678 143.403 292.148 142.806 285.992 151.317C273.155 121.078 242.892 99.8327 207.609 99.8327C160.685 99.8327 122.648 137.395 122.648 183.728C122.648 184.706 122.67 185.67 122.707 186.642C108.063 173.979 88.8955 166.296 67.9066 166.296C24.377 166.296 -11.3428 199.297 -15 241.349Z" fill="white"/>
<path d="M100.814 163.723C88.0477 163.723 77.6982 153.503 77.6982 140.895C77.6982 128.287 88.0477 118.067 100.814 118.067C113.581 118.067 123.931 128.287 123.931 140.895C123.931 153.503 113.581 163.723 100.814 163.723Z" fill="white"/>
<path d="M297.437 136.844C286.485 136.844 277.606 128.076 277.606 117.26C277.606 106.445 286.485 97.6769 297.437 97.6769C308.389 97.6769 317.268 106.445 317.268 117.26C317.268 128.076 308.389 136.844 297.437 136.844Z" fill="white"/>
<path d="M343.437 124.577C335.913 124.577 329.814 118.554 329.814 111.123C329.814 103.693 335.913 97.6696 343.437 97.6696C350.961 97.6696 357.061 103.693 357.061 111.123C357.061 118.554 350.961 124.577 343.437 124.577Z" stroke="white" stroke-width="2" stroke-miterlimit="10"/>
<path d="M415.69 117.058C400.489 117.058 388.166 104.889 388.166 89.8773C388.166 74.8657 400.489 62.6964 415.69 62.6964C430.891 62.6964 443.214 74.8657 443.214 89.8773C443.214 104.889 430.891 117.058 415.69 117.058Z" fill="white"/>
<path d="M517.249 54.4156C517.249 82.2656 538.406 105.231 565.718 108.49L565.718 0.348877C538.406 3.60799 517.249 26.5729 517.249 54.4156Z" fill="white"/>
<path d="M369.261 77.9921C361.701 77.9921 355.572 71.9396 355.572 64.4736C355.572 57.0075 361.701 50.9551 369.261 50.9551C376.821 50.9551 382.95 57.0075 382.95 64.4736C382.95 71.9396 376.821 77.9921 369.261 77.9921Z" fill="white"/>
</svg>
