<svg width="1920" height="752" viewBox="0 0 1920 752" fill="none" xmlns="http://www.w3.org/2000/svg">
<g clip-path="url(#clip0_11387_8313)">
<path d="M1944 -525H-100V837H1944V-525Z" fill="url(#paint0_linear_11387_8313)"/>
<path d="M737.631 149.092C271.814 494.065 -100 -41.1817 -100 -41.1817V-525H1013.58C1013.58 -525 1047.28 -80.2248 737.631 149.092Z" fill="url(#paint1_radial_11387_8313)"/>
<path d="M1944 837H-100V-124.572C61.7022 156 423.177 325.85 684.896 307.637C1120.95 277.292 1398.93 -95.5146 1555.18 -525H1944V837Z" fill="white"/>
<path d="M1944 837H-100V-124.572C61.7022 156 423.177 325.85 684.896 307.637C1120.95 277.292 1417.1 -95.5146 1573.35 -525H1944V837Z" fill="url(#paint2_radial_11387_8313)"/>
<path d="M1944 837.001H648.66C648.66 837.001 458.415 373.615 543.178 251.341C1120.86 770.339 1944 -455.083 1944 -455.083V837.001Z" fill="white"/>
<path d="M1944 837H648.66C648.66 837 458.415 373.615 543.178 251.341C1120.86 770.339 1944 -424.211 1944 -424.211V837Z" fill="url(#paint3_linear_11387_8313)"/>
<path d="M1944 837H648.66C648.66 837 509.507 389.81 594.27 277.766C999.217 617.144 1944 -32.8953 1944 -32.8953V837Z" fill="url(#paint4_radial_11387_8313)"/>
<path d="M433.46 225.122C521.894 162.525 538.042 183.638 552.867 238.442C565.475 285.045 566.508 335.496 553.928 388.666C491.248 468.135 408.152 243.035 433.46 225.122Z" fill="white"/>
<path d="M438.322 226.642C529.552 161.901 540.252 191.81 554.483 244.422C566.587 289.16 567.107 337.721 554.028 389.033C490.716 466.174 413.164 244.495 438.322 226.642Z" fill="url(#paint5_radial_11387_8313)"/>
<path d="M1219.05 628.74C1205.39 505.446 1260.45 398.268 1304.82 419.112C1347.98 439.384 1409.19 551.059 1434.68 645.533C1453 744.589 1222.47 659.627 1219.05 628.74Z" fill="white"/>
<path d="M1224.21 631.295C1211.92 509.303 1257.89 398.442 1307.29 421.544C1360.78 446.559 1410.61 552.735 1434.69 646.078C1451.74 744.028 1227.29 661.858 1224.21 631.295Z" fill="url(#paint6_radial_11387_8313)"/>
<path d="M336.053 837.001H-100V374.828C113.939 379.369 366.062 80.5295 394.866 88.2166C442.341 275.857 487.705 316.371 552.033 388.529C539.091 550.981 336.053 837.001 336.053 837.001Z" fill="url(#paint7_radial_11387_8313)"/>
<path d="M314.94 837C314.94 837 657.256 405.396 535.087 198.146C798.976 575.496 1067.05 646.002 1432.16 617.144C1449.95 631.698 1477.74 763.452 1477.74 837H314.94Z" fill="white"/>
<path d="M323.334 837.001C323.334 837.001 652.192 411.149 544.563 211.565C814.804 575.497 1070.01 646.002 1432.49 617.144C1450.16 631.698 1477.75 763.453 1477.75 837.001H323.334Z" fill="url(#paint8_radial_11387_8313)"/>
<path d="M1477.75 837C1477.75 837 1424.82 485.604 1304.82 419.109C1563.17 542.561 1862.31 496.612 1942.92 397.284L1944 837H1477.75Z" fill="url(#paint9_linear_11387_8313)"/>
<path d="M1482.06 837.001C1482.06 837.001 1434.86 491.363 1317.17 424.868C1570.53 548.319 1863.89 471.887 1942.94 372.559L1944 837.001H1482.06Z" fill="url(#paint10_linear_11387_8313)"/>
<path d="M-100 645.642V231.592C-20.1695 247.663 139.034 194.818 244.414 96.7535C319.579 26.8067 396.177 44.3165 396.177 102.983C396.177 362.327 -100 645.642 -100 645.642Z" fill="white"/>
<path d="M-100 632.701V251.602C-1.37836 251.602 137.322 198.89 241.8 103.809C316.322 35.9893 391.923 49.6638 391.923 106.546C391.923 358.001 -100 632.701 -100 632.701Z" fill="url(#paint11_radial_11387_8313)"/>
</g>
<g style="mix-blend-mode:multiply">
<rect x="0.5" y="0.500488" width="1919" height="749" fill="#3CA200"/>
<rect x="0.5" y="0.500488" width="1919" height="749" stroke="#3CA200"/>
</g>
<g clip-path="url(#clip1_11387_8313)">
<g clip-path="url(#clip2_11387_8313)">
<path d="M-246.397 584.057L218.372 907.622C240.149 868.939 229.404 819.365 192.324 793.551C169.006 777.317 140.502 774.125 115.412 782.386C119.292 766.539 113.374 749.263 99.2102 739.402C90.2488 733.163 79.6352 731.058 69.626 732.666C83.8646 685.206 67.0248 632.044 24.2375 602.257C-22.6217 569.634 -84.9637 575.9 -124.646 614.165C-125.094 610.62 -125.939 607.169 -127.108 603.838C-131.301 589.742 -140.107 576.921 -153.1 567.875C-183.375 546.798 -224.953 554.077 -246.397 584.057Z" fill="white"/>
<path d="M102.668 728.88C91.1404 720.855 88.3162 704.982 96.36 693.428C104.404 681.874 120.27 679.013 131.797 687.038C143.325 695.064 146.149 710.936 138.105 722.49C130.061 734.044 114.196 736.905 102.668 728.88Z" fill="white"/>
<path d="M-27.0042 626.425C-45.8804 613.284 -50.5049 587.293 -37.3333 568.374C-24.1617 549.454 1.81828 544.769 20.6945 557.911C39.5708 571.052 44.1953 597.043 31.0237 615.963C17.8521 634.882 -8.12791 639.567 -27.0042 626.425Z" stroke="white" stroke-width="6" stroke-miterlimit="10"/>
<path d="M128.016 711.217C125.999 699.882 133.549 689.036 144.88 686.993C156.21 684.95 167.03 692.483 169.047 703.819C171.064 715.154 163.514 725.999 152.183 728.042C140.853 730.085 130.033 722.552 128.016 711.217Z" stroke="white" stroke-width="3" stroke-miterlimit="10"/>
</g>
</g>
<g clip-path="url(#clip3_11387_8313)">
<path d="M127.114 752.115L630.517 750.952C626.667 711.697 593.578 681.078 553.416 681.171C528.16 681.229 505.772 693.423 491.707 712.218C486.458 698.704 473.343 689.141 458.002 689.176C448.296 689.199 439.493 693.072 433.022 699.341C419.208 657.535 379.852 627.409 333.508 627.516C282.754 627.633 240.539 663.95 231.135 712.02C229.003 709.668 226.628 707.586 224.08 705.756C213.842 697.63 200.895 692.78 186.821 692.812C154.03 692.888 127.455 719.366 127.114 752.115Z" fill="white"/>
<path d="M455.159 679.754C442.673 679.783 432.528 669.665 432.499 657.156C432.47 644.647 442.569 634.483 455.054 634.454C467.54 634.425 477.686 644.543 477.715 657.052C477.743 669.561 467.645 679.725 455.159 679.754Z" fill="white"/>
<path d="M308.502 671.212C288.056 671.259 271.444 654.692 271.396 634.209C271.349 613.725 287.885 597.082 308.33 597.035C328.775 596.987 345.388 613.554 345.435 634.038C345.483 654.521 328.947 671.165 308.502 671.212Z" stroke="white" stroke-width="6" stroke-miterlimit="10"/>
<path d="M464.621 653.983C457.376 646.758 457.349 635.017 464.56 627.758C471.772 620.499 483.492 620.472 490.737 627.698C497.982 634.923 498.009 646.664 490.798 653.923C483.586 661.182 471.866 661.209 464.621 653.983Z" stroke="white" stroke-width="3" stroke-miterlimit="10"/>
<path d="M216.208 688.761C209.999 685.997 207.202 678.714 209.96 672.493C212.719 666.273 219.988 663.47 226.197 666.234C232.406 668.998 235.203 676.281 232.445 682.501C229.687 688.722 222.417 691.524 216.208 688.761Z" fill="white"/>
</g>
<g clip-path="url(#clip4_11387_8313)">
<g clip-path="url(#clip5_11387_8313)">
<path d="M2164.4 584.058L1699.63 907.622C1677.85 868.94 1688.6 819.366 1725.68 793.551C1749 777.318 1777.5 774.125 1802.59 782.387C1798.71 766.54 1804.63 749.263 1818.79 739.403C1827.75 733.164 1838.37 731.059 1848.38 732.667C1834.14 685.206 1850.98 632.045 1893.76 602.257C1940.62 569.634 2002.97 575.901 2042.65 614.165C2043.1 610.621 2043.94 607.169 2045.11 603.839C2049.3 589.743 2058.11 576.921 2071.1 567.875C2101.38 546.798 2142.95 554.078 2164.4 584.058Z" fill="white"/>
<path d="M1815.33 728.88C1826.86 720.855 1829.69 704.983 1821.64 693.428C1813.6 681.874 1797.73 679.014 1786.2 687.039C1774.68 695.064 1771.85 710.937 1779.9 722.491C1787.94 734.045 1803.81 736.906 1815.33 728.88Z" fill="white"/>
<path d="M1945.01 626.426C1963.88 613.285 1968.51 587.294 1955.34 568.374C1942.16 549.454 1916.18 544.77 1897.31 557.911C1878.43 571.053 1873.81 597.043 1886.98 615.963C1900.15 634.883 1926.13 639.567 1945.01 626.426Z" stroke="white" stroke-width="6" stroke-miterlimit="10"/>
<path d="M1789.99 711.217C1792 699.882 1784.45 689.037 1773.12 686.994C1761.79 684.951 1750.97 692.484 1748.95 703.819C1746.94 715.154 1754.49 725.999 1765.82 728.042C1777.15 730.085 1787.97 722.552 1789.99 711.217Z" stroke="white" stroke-width="3" stroke-miterlimit="10"/>
</g>
</g>
<g clip-path="url(#clip6_11387_8313)">
<path d="M1768.29 752.116L1397 756.499C1400.85 717.244 1338.84 726.419 1379 726.512C1404.26 726.57 1389.64 693.424 1403.7 712.218C1414.5 702.523 1422.06 689.141 1437.41 689.177C1447.11 689.199 1455.91 693.073 1462.39 699.342C1476.2 657.535 1515.56 627.409 1561.9 627.516C1612.65 627.633 1654.87 663.95 1664.27 712.02C1666.4 709.668 1668.78 707.586 1671.33 705.757C1681.57 697.63 1694.51 692.78 1708.59 692.813C1741.38 692.889 1767.95 719.366 1768.29 752.116Z" fill="white"/>
<path d="M1586.91 671.212C1607.35 671.26 1623.96 654.693 1624.01 634.209C1624.06 613.726 1607.52 597.082 1587.08 597.035C1566.63 596.988 1550.02 613.555 1549.97 634.038C1549.93 654.522 1566.46 671.165 1586.91 671.212Z" stroke="white" stroke-width="6" stroke-miterlimit="10"/>
<path d="M1679.2 688.761C1685.41 685.998 1688.21 678.714 1685.45 672.494C1682.69 666.273 1675.42 663.471 1669.21 666.235C1663 668.998 1660.2 676.281 1662.96 682.502C1665.72 688.722 1672.99 691.525 1679.2 688.761Z" fill="white"/>
</g>
<defs>
<linearGradient id="paint0_linear_11387_8313" x1="566.195" y1="-641.17" x2="1050.91" y2="445.882" gradientUnits="userSpaceOnUse">
<stop stop-color="white"/>
<stop offset="0.3221" stop-color="#F8F8F8"/>
<stop offset="0.8013" stop-color="#E3E3E3"/>
<stop offset="1" stop-color="#D9D9D9"/>
</linearGradient>
<radialGradient id="paint1_radial_11387_8313" cx="0" cy="0" r="1" gradientUnits="userSpaceOnUse" gradientTransform="translate(-65.2728 -828.774) scale(1601.52 1684.69)">
<stop stop-color="white"/>
<stop offset="0.3629" stop-color="#FDFDFD"/>
<stop offset="0.5485" stop-color="#F5F5F5"/>
<stop offset="0.694" stop-color="#E8E8E9"/>
<stop offset="0.8185" stop-color="#D5D5D7"/>
<stop offset="0.9286" stop-color="#BCBEC0"/>
<stop offset="1" stop-color="#A8AAAC"/>
</radialGradient>
<radialGradient id="paint2_radial_11387_8313" cx="0" cy="0" r="1" gradientUnits="userSpaceOnUse" gradientTransform="translate(622.229 -530.47) rotate(0.29779) scale(1501.82 1144.27)">
<stop offset="0.4175" stop-color="white"/>
<stop offset="0.5564" stop-color="#FCFCFC"/>
<stop offset="0.6771" stop-color="#F1F1F2"/>
<stop offset="0.7912" stop-color="#DFE0E1"/>
<stop offset="0.9004" stop-color="#C6C7C9"/>
<stop offset="1" stop-color="#A8AAAC"/>
</radialGradient>
<linearGradient id="paint3_linear_11387_8313" x1="1132.41" y1="-30.7822" x2="1418.38" y2="383.397" gradientUnits="userSpaceOnUse">
<stop stop-color="white"/>
<stop offset="0.3221" stop-color="#F8F8F8"/>
<stop offset="0.8013" stop-color="#E3E3E3"/>
<stop offset="1" stop-color="#D9D9D9"/>
</linearGradient>
<radialGradient id="paint4_radial_11387_8313" cx="0" cy="0" r="1" gradientUnits="userSpaceOnUse" gradientTransform="translate(1111.96 119.646) rotate(-12.011) scale(1132.77 594.68)">
<stop offset="0.234" stop-color="white"/>
<stop offset="0.4217" stop-color="#FCFCFC"/>
<stop offset="0.5793" stop-color="#F1F2F2"/>
<stop offset="0.7261" stop-color="#E0E0E1"/>
<stop offset="0.8654" stop-color="#C8C9CA"/>
<stop offset="1" stop-color="#A8AAAC"/>
</radialGradient>
<radialGradient id="paint5_radial_11387_8313" cx="0" cy="0" r="1" gradientUnits="userSpaceOnUse" gradientTransform="translate(565.583 435.78) scale(278.947 278.81)">
<stop stop-color="#A8AAAC"/>
<stop offset="0.5591" stop-color="#DBDCDD"/>
<stop offset="1" stop-color="white"/>
</radialGradient>
<radialGradient id="paint6_radial_11387_8313" cx="0" cy="0" r="1" gradientUnits="userSpaceOnUse" gradientTransform="translate(1458.64 636.89) rotate(0.126102) scale(344.225 342.848)">
<stop stop-color="#A8AAAC"/>
<stop offset="0.3834" stop-color="#CFD0D1"/>
<stop offset="0.7838" stop-color="#F2F2F2"/>
<stop offset="1" stop-color="white"/>
</radialGradient>
<radialGradient id="paint7_radial_11387_8313" cx="0" cy="0" r="1" gradientUnits="userSpaceOnUse" gradientTransform="translate(458.975 704.938) rotate(26.874) scale(724.517 1327.69)">
<stop stop-color="#A8AAAC"/>
<stop offset="0.0737" stop-color="#BEBFC1"/>
<stop offset="0.1775" stop-color="#D6D7D8"/>
<stop offset="0.2959" stop-color="#E8E9E9"/>
<stop offset="0.4359" stop-color="#F5F5F6"/>
<stop offset="0.6183" stop-color="#FDFDFD"/>
<stop offset="1" stop-color="white"/>
</radialGradient>
<radialGradient id="paint8_radial_11387_8313" cx="0" cy="0" r="1" gradientUnits="userSpaceOnUse" gradientTransform="translate(1416.47 879.662) scale(1160.73 931.592)">
<stop stop-color="#A8AAAC"/>
<stop offset="0.1711" stop-color="#C6C7C9"/>
<stop offset="0.3586" stop-color="#DFE0E1"/>
<stop offset="0.5543" stop-color="#F1F1F2"/>
<stop offset="0.7616" stop-color="#FCFCFC"/>
<stop offset="1" stop-color="white"/>
</radialGradient>
<linearGradient id="paint9_linear_11387_8313" x1="1625.12" y1="426.23" x2="1774.99" y2="762.326" gradientUnits="userSpaceOnUse">
<stop stop-color="white"/>
<stop offset="0.3221" stop-color="#F8F8F8"/>
<stop offset="0.8013" stop-color="#E3E3E3"/>
<stop offset="1" stop-color="#D9D9D9"/>
</linearGradient>
<linearGradient id="paint10_linear_11387_8313" x1="1390.18" y1="669.521" x2="1953.75" y2="578.976" gradientUnits="userSpaceOnUse">
<stop stop-color="#EFEFF0"/>
<stop offset="0.4606" stop-color="#E8E8E8"/>
<stop offset="1" stop-color="#D9D9D9"/>
</linearGradient>
<radialGradient id="paint11_radial_11387_8313" cx="0" cy="0" r="1" gradientUnits="userSpaceOnUse" gradientTransform="translate(224.845 596.869) rotate(-46.8561) scale(814.367 463.277)">
<stop stop-color="#A8AAAC"/>
<stop offset="0.5602" stop-color="#D7D8D9"/>
<stop offset="1" stop-color="white"/>
</radialGradient>
<clipPath id="clip0_11387_8313">
<rect width="1920" height="750" fill="white" transform="translate(0 0.000488281)"/>
</clipPath>
<clipPath id="clip1_11387_8313">
<rect width="174" height="216" fill="white" transform="matrix(1 0 0 -1 -1 750)"/>
</clipPath>
<clipPath id="clip2_11387_8313">
<rect width="583" height="177" fill="white" transform="matrix(-0.820701 -0.571358 -0.571358 0.820701 333.599 770.642)"/>
</clipPath>
<clipPath id="clip3_11387_8313">
<rect width="518.243" height="157.271" fill="white" transform="matrix(-0.999997 0.00231142 0.00231345 0.999997 644.643 592.532)"/>
</clipPath>
<clipPath id="clip4_11387_8313">
<rect width="174.26" height="216" fill="white" transform="matrix(-1 0 0 -1 1920 750.001)"/>
</clipPath>
<clipPath id="clip5_11387_8313">
<rect width="583" height="177" fill="white" transform="translate(1584.4 770.643) rotate(-34.845)"/>
</clipPath>
<clipPath id="clip6_11387_8313">
<rect width="519.018" height="157.514" fill="white" transform="matrix(0.999997 0.00230797 -0.00231691 0.999997 1250.77 592.532)"/>
</clipPath>
</defs>
</svg>
