<svg width="308" height="236" viewBox="0 0 308 236" fill="none" xmlns="http://www.w3.org/2000/svg">
<g opacity="0.1">
<g clip-path="url(#clip0_11387_8188)">
<path d="M317.078 58.0069C350.616 58.0069 378.162 32.6952 381.252 0.350639H-72.0439V48.6794C-63.4427 53.1547 -53.6534 55.6848 -43.2599 55.6848C-28.973 55.6848 -15.8164 50.8988 -5.33385 42.8613L-4.69596 42.3722L-4.53922 43.1606C1.90934 75.5954 30.8181 100.065 65.5274 100.065C89.5383 100.065 110.78 88.3557 123.724 70.3935L123.728 70.3877L123.732 70.3821C124.275 69.6727 124.806 68.9522 125.32 68.2265L125.835 67.4988L126.187 68.3179C127.785 72.0344 131.652 74.0533 135.779 74.316C139.909 74.5789 144.147 73.0704 146.423 69.9207L146.942 69.2018L147.288 70.0183C157.233 93.4699 180.679 109.95 208.018 109.95C244.379 109.95 273.844 80.8119 273.844 44.8831C273.844 44.1258 273.827 43.3788 273.798 42.6246L273.755 41.4747L274.625 42.2279C285.969 52.0479 300.817 58.0069 317.078 58.0069Z" fill="#3CA200" stroke="#3CA200"/>
<path d="M308.935 86.1591C308.935 76.5873 301.084 68.8182 291.389 68.8182C281.693 68.8182 273.843 76.5873 273.843 86.1591C273.843 95.7308 281.693 103.5 291.389 103.5C301.084 103.5 308.935 95.7308 308.935 86.1591Z" fill="#3CA200" stroke="#3CA200"/>
<path d="M152.874 104.63C152.874 96.4588 146.172 89.8249 137.893 89.8249C129.614 89.8249 122.912 96.4588 122.912 104.63C122.912 112.801 129.614 119.435 137.893 119.435C146.172 119.435 152.874 112.801 152.874 104.63Z" fill="#3CA200" stroke="#3CA200"/>
<path d="M101.983 98.9119C107.857 98.9119 112.618 103.619 112.618 109.426C112.618 115.233 107.857 119.941 101.983 119.941C96.1092 119.941 91.3477 115.233 91.3477 109.426C91.3477 103.619 96.1092 98.9119 101.983 98.9119Z" stroke="#3CA200" stroke-width="2" stroke-miterlimit="10"/>
<path d="M66.5643 126.031C66.5643 114.58 57.1736 105.288 45.5776 105.288C33.9815 105.288 24.5908 114.58 24.5908 126.031C24.5908 137.481 33.9815 146.773 45.5776 146.773C57.1736 146.773 66.5643 137.481 66.5643 126.031Z" fill="#3CA200" stroke="#3CA200"/>
<path d="M37.8495 193.745C37.8495 172.431 21.8183 154.814 1.01172 152.052V235.433C21.8183 232.671 37.8495 215.054 37.8495 193.745Z" fill="#3CA200" stroke="#3CA200"/>
<path d="M92.0097 145.885C92.0097 140.331 87.4545 135.819 81.8232 135.819C76.192 135.819 71.6367 140.331 71.6367 145.885C71.6367 151.438 76.192 155.95 81.8232 155.95C87.4545 155.95 92.0097 151.438 92.0097 145.885Z" fill="#3CA200" stroke="#3CA200"/>
</g>
</g>
<defs>
<clipPath id="clip0_11387_8188">
<path d="M0 236H308V5C308 2.23857 305.761 0 303 0H4.99999C2.23857 0 0 2.23857 0 5V236Z" fill="white"/>
</clipPath>
</defs>
</svg>
