<svg width="308" height="236" viewBox="0 0 308 236" fill="none" xmlns="http://www.w3.org/2000/svg">
<g clip-path="url(#clip0_11387_8225)">
<path d="M316.539 58.0069C349.965 58.0069 377.422 32.6966 380.503 0.350639H-71.3184V48.6799C-62.7454 53.1549 -52.9885 55.6848 -42.6294 55.6848C-28.3896 55.6848 -15.2763 50.8991 -4.8281 42.8618L-4.18941 42.3705L-4.03278 43.1609C2.39503 75.5966 31.21 100.065 65.8047 100.065C89.7364 100.065 110.908 88.3563 123.811 70.3941L123.815 70.3883L123.819 70.3827C124.36 69.6733 124.889 68.9529 125.401 68.2271L125.917 67.4963L126.269 68.3184C127.862 72.0351 131.716 74.0533 135.828 74.316C139.944 74.5788 144.167 73.0708 146.435 69.9213L146.955 69.1993L147.302 70.0188C157.214 93.4709 180.584 109.95 207.833 109.95C244.073 109.95 273.443 80.8134 273.443 44.8831C273.443 44.1258 273.426 43.3787 273.398 42.6245L273.355 41.4723L274.225 42.2284C285.532 52.0483 300.332 58.0069 316.539 58.0069Z" fill="#3CA200" stroke="#3CA200"/>
<path d="M308.42 86.1591C308.42 76.5858 300.594 68.8182 290.933 68.8182C281.271 68.8182 273.445 76.5858 273.445 86.1591C273.445 95.7324 281.271 103.5 290.933 103.5C300.594 103.5 308.42 95.7324 308.42 86.1591Z" fill="#3CA200" stroke="#3CA200"/>
<path d="M152.866 104.63C152.866 96.4572 146.185 89.8249 137.936 89.8249C129.686 89.8249 123.005 96.4572 123.005 104.63C123.005 112.803 129.686 119.435 137.936 119.435C146.185 119.435 152.866 112.803 152.866 104.63Z" fill="#3CA200" stroke="#3CA200"/>
<path d="M102.142 98.9119C107.996 98.9119 112.743 103.619 112.743 109.426C112.743 115.233 107.996 119.941 102.142 119.941C96.2871 119.941 91.541 115.233 91.541 109.426C91.541 103.619 96.2871 98.9119 102.142 98.9119Z" stroke="#3CA200" stroke-width="2" stroke-miterlimit="10"/>
<path d="M66.8359 126.031C66.8359 114.579 57.4749 105.288 45.9189 105.288C34.3629 105.288 25.002 114.579 25.002 126.031C25.002 137.483 34.3629 146.773 45.9189 146.773C57.4749 146.773 66.8359 137.483 66.8359 126.031Z" fill="#3CA200" stroke="#3CA200"/>
<path d="M38.215 193.745C38.215 172.43 22.2361 154.815 1.5 152.052V235.433C22.2361 232.67 38.215 215.055 38.215 193.745Z" fill="#3CA200" stroke="#3CA200"/>
<path d="M92.1991 145.885C92.1991 140.33 87.6579 135.819 82.0473 135.819C76.4368 135.819 71.8955 140.33 71.8955 145.885C71.8955 151.44 76.4368 155.95 82.0473 155.95C87.6579 155.95 92.1991 151.44 92.1991 145.885Z" fill="#3CA200" stroke="#3CA200"/>
</g>
<defs>
<clipPath id="clip0_11387_8225">
<path d="M0 236H308V5C308 2.23857 305.761 0 303 0H4.99999C2.23857 0 0 2.23857 0 5V236Z" fill="white"/>
</clipPath>
</defs>
</svg>
