<svg width="190" height="190" viewBox="0 0 190 190" fill="none" xmlns="http://www.w3.org/2000/svg">
<g filter="url(#filter0_d_11387_8378)">
<circle cx="95" cy="85.0007" r="45" fill="white"/>
<circle cx="95" cy="85.0007" r="43" stroke="#3CA200" stroke-width="4"/>
</g>
<path d="M69.1685 84.8737C68.9458 84.6749 68.9458 84.3266 69.1685 84.1278L80.667 73.8612C80.9892 73.5735 81.5 73.8022 81.5 74.2342L81.5 94.7673C81.5 95.1992 80.9892 95.4279 80.667 95.1402L69.1685 84.8737Z" fill="#077CEA" stroke="#3CA200"/>
<path d="M119.832 84.8737C120.054 84.6749 120.054 84.3266 119.832 84.1278L108.333 73.8612C108.011 73.5735 107.5 73.8022 107.5 74.2342L107.5 94.7673C107.5 95.1992 108.011 95.4279 108.333 95.1402L119.832 84.8737Z" fill="#077CEA" stroke="#3CA200"/>
<defs>
<filter id="filter0_d_11387_8378" x="0" y="0.000732422" width="190" height="190" filterUnits="userSpaceOnUse" color-interpolation-filters="sRGB">
<feFlood flood-opacity="0" result="BackgroundImageFix"/>
<feColorMatrix in="SourceAlpha" type="matrix" values="0 0 0 0 0 0 0 0 0 0 0 0 0 0 0 0 0 0 127 0" result="hardAlpha"/>
<feOffset dy="10"/>
<feGaussianBlur stdDeviation="25"/>
<feComposite in2="hardAlpha" operator="out"/>
<feColorMatrix type="matrix" values="0 0 0 0 0 0 0 0 0 0 0 0 0 0 0 0 0 0 0.08 0"/>
<feBlend mode="normal" in2="BackgroundImageFix" result="effect1_dropShadow_11387_8378"/>
<feBlend mode="normal" in="SourceGraphic" in2="effect1_dropShadow_11387_8378" result="shape"/>
</filter>
</defs>
</svg>
