<svg width="10" height="9" viewBox="0 0 10 9" fill="none" xmlns="http://www.w3.org/2000/svg">
<g id="Group">
<path id="Vector" d="M8.75 0.000488281C8.525 0.000488281 8.375 0.0754881 8.225 0.225488L0.725 7.72549C0.425 8.02549 0.425 8.47549 0.725 8.77549C1.025 9.07549 1.475 9.07549 1.775 8.77549L9.275 1.27549C9.575 0.975489 9.575 0.525488 9.275 0.225488C9.125 0.0754881 8.975 0.000488281 8.75 0.000488281Z" fill="#16171A"/>
<path id="Vector_2" d="M8.75 0.000488281H2C1.55 0.000488281 1.25 0.300488 1.25 0.750488C1.25 1.20049 1.55 1.50049 2 1.50049H8V7.50049C8 7.95049 8.3 8.25049 8.75 8.25049C9.2 8.25049 9.5 7.95049 9.5 7.50049V0.750488C9.5 0.300488 9.2 0.000488281 8.75 0.000488281Z" fill="#16171A"/>
</g>
</svg>
