<svg width="20" height="20" viewBox="0 0 20 20" fill="none" xmlns="http://www.w3.org/2000/svg">
<g id="Frame" clip-path="url(#clip0_11387_8387)">
<g id="Group">
<g id="Group_2">
<path id="Vector" d="M10.4019 9.90837C10.473 9.93329 10.5428 9.96214 10.6107 9.99525C11.1061 10.2572 11.4883 10.6916 11.6851 11.2162C12.0084 11.9703 13.5071 14.5015 19.2222 15.3677C19.3136 15.3804 19.4014 15.4122 19.4798 15.4608C19.5582 15.5095 19.6256 15.5741 19.6776 15.6503C19.7287 15.7257 19.7633 15.8109 19.7794 15.9004C19.7954 15.99 19.7925 16.082 19.7707 16.1703C19.6434 16.6319 19.4158 17.0596 19.1042 17.4231C19.0835 17.4602 19.0556 17.493 19.0225 17.5195C18.4269 18.1569 17.6897 18.6452 16.8704 18.9448C16.8615 18.9484 16.8533 18.9526 16.8442 18.9556C16.4563 19.1084 16.0586 19.2353 15.6537 19.3353C14.9379 19.5123 14.2078 19.6251 13.472 19.673C13.4589 19.6756 13.4458 19.6775 13.4323 19.6785C13.4287 19.6785 13.4251 19.6762 13.4219 19.6762C13.2284 19.6874 13.032 19.6953 12.8317 19.6953C11.5619 19.6953 10.1612 19.4392 9.03661 18.6012C8.77026 18.7828 8.46247 18.8945 8.1416 18.926C7.82073 18.9574 7.4971 18.9076 7.20054 18.7812C6.95141 19.0596 6.64853 19.2849 6.31012 19.4433C5.97172 19.6017 5.60477 19.6901 5.23133 19.7031C4.8579 19.7161 4.4857 19.6534 4.1371 19.5189C3.78851 19.3843 3.47072 19.1807 3.20284 18.9202C2.93407 19.047 2.64176 19.1162 2.34466 19.1233C2.04757 19.1304 1.75227 19.0753 1.47773 18.9616C1.20319 18.8478 0.955475 18.6779 0.750496 18.4627C0.545515 18.2476 0.387804 17.9919 0.287485 17.7122C0.187168 17.4324 0.146461 17.1348 0.167984 16.8384C0.189507 16.542 0.272778 16.2534 0.412455 15.9911C0.552132 15.7288 0.745125 15.4986 0.979038 15.3153C1.21295 15.132 1.48261 14.9996 1.77071 14.9267C1.88918 14.5147 2.11153 14.14 2.41643 13.8385C2.72133 13.5371 3.09857 13.319 3.51195 13.2053C3.92534 13.0916 4.36102 13.0859 4.77721 13.1889C5.1934 13.292 5.57614 13.5002 5.88874 13.7936C6.25505 13.59 6.68 13.5178 7.093 13.589C7.11964 13.0657 7.17734 12.5445 7.26579 12.028C7.37053 11.4021 7.6878 10.8314 8.16415 10.412L6.41563 1.36673C6.38603 1.22001 6.38585 1.06887 6.41512 0.922089C6.44439 0.775304 6.50251 0.635792 6.58612 0.511647C6.71189 0.322021 6.89128 0.174147 7.10142 0.0868753C7.31157 -0.000395939 7.54294 -0.0231096 7.76604 0.0216303C7.98914 0.0663702 8.19386 0.176537 8.35411 0.338084C8.51435 0.499631 8.62286 0.70524 8.66579 0.928696L10.4019 9.90837ZM6.03825 14.4769C5.97126 14.5279 5.88721 14.5512 5.80353 14.5419C5.71984 14.5326 5.64294 14.4915 5.58874 14.4271C5.36395 14.1605 5.06829 13.9631 4.73596 13.8575C4.40364 13.752 4.04822 13.7427 3.71084 13.8308C3.37346 13.9188 3.06791 14.1006 2.82953 14.3551C2.59115 14.6095 2.42969 14.9263 2.36382 15.2687C2.35082 15.3358 2.3172 15.3971 2.26764 15.4441C2.21809 15.4911 2.15508 15.5215 2.08743 15.531C1.8691 15.5617 1.66043 15.641 1.47677 15.763C1.29311 15.885 1.13913 16.0466 1.02614 16.2359C0.913149 16.4252 0.844028 16.6375 0.82386 16.857C0.80369 17.0766 0.832985 17.2979 0.90959 17.5046C0.986195 17.7114 1.10816 17.8983 1.26653 18.0517C1.42489 18.2051 1.61562 18.3211 1.82469 18.3911C2.03377 18.4611 2.25588 18.4833 2.47468 18.4562C2.69349 18.4291 2.90343 18.3532 3.08907 18.2343C3.15581 18.1916 3.23575 18.1745 3.3141 18.1862C3.39246 18.1979 3.46393 18.2376 3.5153 18.2979C3.72247 18.5433 3.98276 18.7383 4.27646 18.8681C4.57016 18.998 4.88957 19.0594 5.21049 19.0475C5.53141 19.0357 5.84542 18.9509 6.12875 18.7998C6.41207 18.6486 6.65728 18.4349 6.84579 18.1749C6.89441 18.108 6.96654 18.0619 7.04772 18.0459C7.1289 18.0299 7.21312 18.0452 7.2835 18.0887C7.43769 18.184 7.61048 18.2453 7.79029 18.2685C7.9701 18.2916 8.15278 18.2761 8.32609 18.2229C8.49941 18.1697 8.65935 18.0801 8.79522 17.96C8.93108 17.84 9.03973 17.6923 9.11388 17.5269C9.18803 17.3615 9.22598 17.1821 9.22518 17.0008C9.22437 16.8195 9.18484 16.6405 9.10922 16.4757C9.03361 16.3109 8.92366 16.1642 8.78673 16.0454C8.64981 15.9266 8.48908 15.8384 8.3153 15.7867C8.24832 15.7667 8.18951 15.7257 8.14745 15.6699C8.10539 15.614 8.08229 15.5462 8.08153 15.4762C8.07638 15.1415 7.9402 14.8222 7.70223 14.5868C7.46426 14.3514 7.14347 14.2187 6.80874 14.2172C6.53028 14.2163 6.25935 14.3076 6.03825 14.4769ZM8.72153 15.2395C9.0647 15.391 9.3567 15.6386 9.5623 15.9523C9.7679 16.2661 9.87831 16.6326 9.88022 17.0077C9.87979 17.4151 9.74955 17.8118 9.50841 18.1402C10.3078 18.6706 11.236 18.9744 12.1943 19.0195C11.638 18.652 11.1364 18.2078 10.7045 17.6998C10.6487 17.633 10.6218 17.5468 10.6297 17.4601C10.6375 17.3735 10.6795 17.2935 10.7463 17.2377C10.8131 17.182 10.8993 17.1551 10.986 17.1629C11.0727 17.1707 11.1527 17.2127 11.2084 17.2795C11.8453 18.01 12.6257 18.6015 13.5012 19.0172C14.1735 18.9677 14.8404 18.861 15.4946 18.6982C15.5533 18.6835 15.6058 18.6654 15.6628 18.6516C13.9107 18.0523 11.9038 17.0202 10.712 15.2661C10.6647 15.1941 10.6476 15.1065 10.6644 15.022C10.6811 14.9376 10.7304 14.8631 10.8017 14.8147C10.8729 14.7663 10.9603 14.7479 11.045 14.7634C11.1297 14.7789 11.2049 14.8271 11.2543 14.8975C12.5428 16.7953 14.9183 17.7903 16.7261 18.2959C17.2271 18.0976 17.6957 17.8257 18.1166 17.4894C16.8369 17.306 15.594 16.923 14.433 16.3543C14.3946 16.334 14.3607 16.3063 14.3331 16.2728C14.3055 16.2392 14.2849 16.2006 14.2724 16.159C14.2599 16.1175 14.2557 16.0739 14.2602 16.0307C14.2647 15.9875 14.2777 15.9457 14.2984 15.9076C14.3192 15.8695 14.3473 15.8358 14.3812 15.8087C14.415 15.7815 14.4539 15.7614 14.4956 15.7494C14.5374 15.7374 14.581 15.7338 14.6241 15.7388C14.6672 15.7438 14.7089 15.7573 14.7468 15.7785C15.9451 16.4323 17.6537 16.7648 18.676 16.9153C18.8865 16.6498 19.0405 16.3441 19.1284 16.0169C14.0894 15.2526 12.112 13.192 11.3855 12.0408C11.2615 12.1602 11.1264 12.2674 10.9815 12.3608C10.5004 12.6617 9.94229 12.8162 9.37497 12.8057C9.33792 12.8057 9.3012 12.8057 9.26382 12.8038C8.78346 12.7957 8.30654 12.7209 7.84677 12.5815C7.79005 12.9894 7.75563 13.4002 7.7435 13.8116C8.00619 13.9574 8.23134 14.1623 8.4011 14.4101C8.57087 14.6579 8.68057 14.9419 8.72153 15.2395ZM7.9635 11.9251C8.38972 12.0667 8.83563 12.1421 9.28481 12.1484C9.75498 12.1759 10.2222 12.0581 10.6232 11.811C10.7874 11.7075 10.9344 11.5788 11.0586 11.4297C10.9197 11.0696 10.6582 10.77 10.3202 10.5838C10.1356 10.4985 9.93501 10.4531 9.73163 10.4506C9.52825 10.448 9.32662 10.4884 9.13989 10.569C8.8517 10.6878 8.59524 10.8722 8.39099 11.1076C8.18674 11.3431 8.04035 11.623 7.9635 11.9251ZM8.02186 1.05296C7.99705 0.92588 7.92314 0.813709 7.81615 0.740788C7.70916 0.667866 7.57773 0.640077 7.45038 0.66345C7.31989 0.688696 7.20514 0.765089 7.13136 0.875581C7.05923 0.982466 7.03333 1.11394 7.05891 1.24017L8.75891 10.0271C8.80841 10.0038 8.85727 9.97722 8.90743 9.95755C9.1648 9.85878 9.43739 9.80553 9.71301 9.80017L8.02186 1.05296Z" fill="white"/>
<path id="Vector_2" d="M4.58657 15.2734C4.52146 15.1961 4.43579 15.1388 4.33948 15.1081C4.24316 15.0775 4.14013 15.0748 4.04233 15.1002C3.94452 15.1257 3.85593 15.1784 3.78682 15.2522C3.71771 15.3259 3.6709 15.4177 3.65181 15.517C3.63538 15.6024 3.58568 15.6778 3.51364 15.7266C3.44161 15.7754 3.35315 15.7936 3.26771 15.7771C3.18228 15.7607 3.10687 15.711 3.05808 15.639C3.00929 15.5669 2.99112 15.4785 3.00755 15.393C3.05014 15.1722 3.15437 14.9679 3.3082 14.8038C3.46202 14.6397 3.65915 14.5225 3.8768 14.4657C4.09444 14.409 4.32371 14.415 4.53808 14.4831C4.75245 14.5511 4.94318 14.6785 5.08821 14.8504C5.14429 14.9169 5.17166 15.003 5.16428 15.0897C5.1569 15.1764 5.11538 15.2566 5.04886 15.3127C4.98234 15.3688 4.89626 15.3962 4.80957 15.3888C4.72287 15.3814 4.64265 15.3399 4.58657 15.2734ZM2.78722 11.3124C2.78722 11.6167 2.66632 11.9086 2.45111 12.1238C2.23591 12.339 1.94403 12.4599 1.63968 12.4599C1.33533 12.4599 1.04345 12.339 0.828247 12.1238C0.613041 11.9086 0.49214 11.6167 0.49214 11.3124C0.49214 11.008 0.613041 10.7162 0.828247 10.501C1.04345 10.2858 1.33533 10.1648 1.63968 10.1648C1.94403 10.1648 2.23591 10.2858 2.45111 10.501C2.66632 10.7162 2.78722 11.008 2.78722 11.3124ZM1.14788 11.3124C1.14788 11.4428 1.19969 11.5679 1.29192 11.6601C1.38415 11.7524 1.50925 11.8042 1.63968 11.8042C1.77011 11.8042 1.89521 11.7524 1.98744 11.6601C2.07967 11.5679 2.13148 11.4428 2.13148 11.3124C2.13148 11.182 2.07967 11.0569 1.98744 10.9646C1.89521 10.8724 1.77011 10.8206 1.63968 10.8206C1.50925 10.8206 1.38415 10.8724 1.29192 10.9646C1.19969 11.0569 1.14788 11.182 1.14788 11.3124ZM3.77083 10.1648C3.50996 10.1648 3.25978 10.0612 3.07531 9.87676C2.89085 9.6923 2.78722 9.44211 2.78722 9.18124C2.78722 8.92037 2.89085 8.67019 3.07531 8.48573C3.25978 8.30127 3.50996 8.19764 3.77083 8.19764C4.0317 8.19764 4.28188 8.30127 4.46634 8.48573C4.6508 8.67019 4.75443 8.92037 4.75443 9.18124C4.75443 9.44211 4.6508 9.6923 4.46634 9.87676C4.28188 10.0612 4.0317 10.1648 3.77083 10.1648ZM3.77083 8.85337C3.68387 8.85337 3.60048 8.88792 3.53899 8.9494C3.4775 9.01089 3.44296 9.09429 3.44296 9.18124C3.44296 9.2682 3.4775 9.35159 3.53899 9.41308C3.60048 9.47457 3.68387 9.50911 3.77083 9.50911C3.85778 9.50911 3.94118 9.47457 4.00267 9.41308C4.06415 9.35159 4.0987 9.2682 4.0987 9.18124C4.0987 9.09429 4.06415 9.01089 4.00267 8.9494C3.94118 8.88792 3.85778 8.85337 3.77083 8.85337ZM17.5413 7.5419C17.4544 7.5419 17.371 7.50736 17.3095 7.44587C17.248 7.38438 17.2135 7.30099 17.2135 7.21403V6.55829C17.2135 6.47134 17.248 6.38794 17.3095 6.32645C17.371 6.26497 17.4544 6.23042 17.5413 6.23042C17.6283 6.23042 17.7117 6.26497 17.7732 6.32645C17.8346 6.38794 17.8692 6.47134 17.8692 6.55829V7.21403C17.8692 7.30099 17.8346 7.38438 17.7732 7.44587C17.7117 7.50736 17.6283 7.5419 17.5413 7.5419ZM17.2135 9.18124V8.52551C17.2135 8.43855 17.248 8.35515 17.3095 8.29367C17.371 8.23218 17.4544 8.19764 17.5413 8.19764C17.6283 8.19764 17.7117 8.23218 17.7732 8.29367C17.8346 8.35515 17.8692 8.43855 17.8692 8.52551V9.18124C17.8692 9.2682 17.8346 9.35159 17.7732 9.41308C17.7117 9.47457 17.6283 9.50911 17.5413 9.50911C17.4544 9.50911 17.371 9.47457 17.3095 9.41308C17.248 9.35159 17.2135 9.2682 17.2135 9.18124ZM18.8528 8.19764H18.1971C18.1101 8.19764 18.0267 8.16309 17.9652 8.10161C17.9037 8.04012 17.8692 7.95672 17.8692 7.86977C17.8692 7.78281 17.9037 7.69942 17.9652 7.63793C18.0267 7.57644 18.1101 7.5419 18.1971 7.5419H18.8528C18.9398 7.5419 19.0231 7.57644 19.0846 7.63793C19.1461 7.69942 19.1807 7.78281 19.1807 7.86977C19.1807 7.95672 19.1461 8.04012 19.0846 8.10161C19.0231 8.16309 18.9398 8.19764 18.8528 8.19764ZM16.8856 8.19764H16.2298C16.1429 8.19764 16.0595 8.16309 15.998 8.10161C15.9365 8.04012 15.902 7.95672 15.902 7.86977C15.902 7.78281 15.9365 7.69942 15.998 7.63793C16.0595 7.57644 16.1429 7.5419 16.2298 7.5419H16.8856C16.9725 7.5419 17.0559 7.57644 17.1174 7.63793C17.1789 7.69942 17.2135 7.78281 17.2135 7.86977C17.2135 7.95672 17.1789 8.04012 17.1174 8.10161C17.0559 8.16309 16.9725 8.19764 16.8856 8.19764ZM16.2977 11.7363L16.7895 12.2281C16.8208 12.2584 16.8458 12.2946 16.863 12.3346C16.8802 12.3746 16.8892 12.4176 16.8896 12.4611C16.89 12.5046 16.8817 12.5478 16.8652 12.5881C16.8487 12.6284 16.8244 12.665 16.7936 12.6958C16.7628 12.7266 16.7262 12.7509 16.6859 12.7674C16.6456 12.7839 16.6024 12.7922 16.5589 12.7918C16.5154 12.7914 16.4723 12.7824 16.4323 12.7652C16.3923 12.748 16.3562 12.723 16.3259 12.6917L15.8341 12.1999C15.7744 12.1381 15.7413 12.0553 15.7421 11.9693C15.7428 11.8833 15.7773 11.8011 15.8381 11.7403C15.8989 11.6795 15.9811 11.645 16.0671 11.6443C16.1531 11.6436 16.2359 11.6766 16.2977 11.7363ZM14.3587 10.2609C14.4202 10.1994 14.5036 10.1649 14.5905 10.1649C14.6774 10.1649 14.7608 10.1994 14.8223 10.2609L15.3141 10.7527C15.3454 10.783 15.3704 10.8191 15.3876 10.8591C15.4048 10.8991 15.4138 10.9422 15.4142 10.9857C15.4146 11.0292 15.4063 11.0724 15.3898 11.1127C15.3733 11.153 15.349 11.1896 15.3182 11.2204C15.2874 11.2512 15.2508 11.2755 15.2105 11.292C15.1702 11.3085 15.127 11.3168 15.0835 11.3164C15.0399 11.316 14.9969 11.307 14.9569 11.2898C14.9169 11.2726 14.8807 11.2476 14.8505 11.2163L14.3587 10.7245C14.2972 10.663 14.2627 10.5797 14.2627 10.4927C14.2627 10.4058 14.2972 10.3224 14.3587 10.2609ZM14.8505 11.7363C14.9123 11.6766 14.9952 11.6436 15.0811 11.6443C15.1671 11.645 15.2493 11.6795 15.3101 11.7403C15.3709 11.8011 15.4054 11.8833 15.4061 11.9693C15.4069 12.0553 15.3738 12.1381 15.3141 12.1999L14.8223 12.6917C14.7605 12.7515 14.6776 12.7845 14.5917 12.7838C14.5057 12.783 14.4235 12.7485 14.3627 12.6877C14.3019 12.627 14.2674 12.5447 14.2667 12.4588C14.2659 12.3728 14.299 12.29 14.3587 12.2281L14.8505 11.7363ZM15.8341 10.7527L16.3259 10.2609C16.3877 10.2012 16.4706 10.1681 16.5565 10.1689C16.6425 10.1696 16.7247 10.2041 16.7855 10.2649C16.8463 10.3257 16.8808 10.4079 16.8815 10.4939C16.8823 10.5799 16.8492 10.6627 16.7895 10.7245L16.2977 11.2163C16.2359 11.276 16.1531 11.3091 16.0671 11.3083C15.9811 11.3076 15.8989 11.2731 15.8381 11.2123C15.7773 11.1515 15.7428 11.0693 15.7421 10.9833C15.7413 10.8974 15.7744 10.8146 15.8341 10.7527ZM15.959 3.30321L10.3853 4.28682C10.3005 4.29987 10.2141 4.27924 10.1444 4.22934C10.0747 4.17944 10.0274 4.10424 10.0124 4.01984C9.99752 3.93544 10.0162 3.84855 10.0646 3.77779C10.113 3.70703 10.1871 3.65801 10.2712 3.64124L15.8449 2.65764C15.9296 2.64458 16.0161 2.66521 16.0858 2.71511C16.1555 2.76501 16.2028 2.84022 16.2177 2.92462C16.2327 3.00902 16.2139 3.0959 16.1656 3.16666C16.1172 3.23743 16.0431 3.28644 15.959 3.30321ZM10.7131 5.92616C10.6284 5.93922 10.542 5.91859 10.4723 5.86869C10.4026 5.81878 10.3552 5.74358 10.3403 5.65918C10.3254 5.57478 10.3441 5.4879 10.3925 5.41714C10.4408 5.34637 10.515 5.29736 10.599 5.28059L14.1528 4.65305C14.2384 4.63792 14.3266 4.65743 14.3979 4.7073C14.4691 4.75716 14.5177 4.8333 14.5328 4.91895C14.5479 5.0046 14.5284 5.09275 14.4785 5.16402C14.4287 5.23528 14.3525 5.28382 14.2669 5.29895L10.7131 5.92616ZM15.6036 6.39862C15.6111 6.44103 15.6102 6.48451 15.6009 6.52656C15.5916 6.56861 15.5741 6.60842 15.5494 6.64371C15.5247 6.679 15.4933 6.70908 15.457 6.73222C15.4207 6.75537 15.3801 6.77114 15.3377 6.77862L11.041 7.53698C10.9986 7.54445 10.9551 7.54349 10.9131 7.53417C10.871 7.52484 10.8312 7.50732 10.796 7.48261C10.7607 7.45791 10.7306 7.4265 10.7075 7.39017C10.6844 7.35385 10.6686 7.31333 10.6612 7.27092C10.6537 7.2285 10.6546 7.18504 10.664 7.143C10.6733 7.10096 10.6908 7.06116 10.7155 7.02589C10.7402 6.99062 10.7716 6.96056 10.808 6.93743C10.8443 6.9143 10.8848 6.89855 10.9272 6.89108L15.2239 6.13206C15.2664 6.12461 15.3099 6.1256 15.3519 6.13497C15.394 6.14434 15.4338 6.1619 15.469 6.18666C15.5043 6.21141 15.5343 6.24287 15.5574 6.27924C15.5805 6.31561 15.5962 6.35618 15.6036 6.39862Z" fill="white"/>
</g>
</g>
</g>
<defs>
<clipPath id="clip0_11387_8387">
<rect width="20" height="20" fill="white" transform="matrix(-1 0 0 1 20 0.000732422)"/>
</clipPath>
</defs>
</svg>
