<svg width="20" height="20" viewBox="0 0 20 20" fill="none" xmlns="http://www.w3.org/2000/svg">
<g id="Frame" clip-path="url(#clip0_11387_8301)">
<g id="Group">
<g id="Group_2">
<g id="Vector">
<mask id="path-1-inside-1_11387_8301" fill="white">
<path d="M10.4014 9.90764C10.4725 9.93255 10.5424 9.96141 10.6102 9.99452C11.1056 10.2565 11.4878 10.6909 11.6846 11.2155C12.0079 11.9696 13.5066 14.5008 19.2217 15.367C19.3131 15.3797 19.4009 15.4114 19.4793 15.4601C19.5577 15.5088 19.6251 15.5733 19.6771 15.6496C19.7282 15.7249 19.7628 15.8101 19.7789 15.8997C19.7949 15.9893 19.792 16.0812 19.7702 16.1696C19.6429 16.6311 19.4153 17.0589 19.1037 17.4224C19.083 17.4594 19.0551 17.4922 19.022 17.5188C18.4265 18.1562 17.6892 18.6445 16.8699 18.944C16.861 18.9476 16.8528 18.9519 16.8437 18.9548C16.4558 19.1076 16.0581 19.2345 15.6532 19.3345C14.9374 19.5116 14.2073 19.6244 13.4715 19.6722C13.4584 19.6748 13.4453 19.6768 13.4319 19.6778C13.4283 19.6778 13.4246 19.6755 13.4214 19.6755C13.2279 19.6867 13.0315 19.6945 12.8312 19.6945C11.5614 19.6945 10.1607 19.4385 9.03612 18.6004C8.76977 18.7821 8.46198 18.8938 8.14111 18.9253C7.82024 18.9567 7.49662 18.9069 7.20006 18.7804C6.95092 19.0589 6.64804 19.2841 6.30964 19.4426C5.97123 19.601 5.60428 19.6894 5.23085 19.7023C4.85741 19.7153 4.48521 19.6527 4.13662 19.5181C3.78802 19.3836 3.47023 19.1799 3.20235 18.9194C2.93358 19.0462 2.64127 19.1154 2.34418 19.1226C2.04708 19.1297 1.75179 19.0746 1.47724 18.9608C1.2027 18.8471 0.954987 18.6772 0.750008 18.462C0.545027 18.2468 0.387316 17.9912 0.286997 17.7114C0.18668 17.4317 0.145973 17.1341 0.167496 16.8377C0.189018 16.5413 0.272289 16.2527 0.411966 15.9904C0.551643 15.728 0.744637 15.4979 0.97855 15.3146C1.21246 15.1313 1.48213 14.9989 1.77022 14.926C1.88869 14.5139 2.11104 14.1392 2.41594 13.8378C2.72084 13.5364 3.09808 13.3183 3.51147 13.2046C3.92485 13.0908 4.36053 13.0852 4.77672 13.1882C5.19291 13.2912 5.57566 13.4994 5.88825 13.7929C6.25456 13.5892 6.67951 13.517 7.09252 13.5883C7.11915 13.065 7.17685 12.5438 7.2653 12.0273C7.37004 11.4014 7.68731 10.8306 8.16366 10.4112L6.41514 1.366C6.38554 1.21928 6.38536 1.06814 6.41463 0.921357C6.4439 0.774572 6.50202 0.635059 6.58563 0.510914C6.7114 0.321289 6.89079 0.173414 7.10094 0.0861429C7.31108 -0.00112836 7.54245 -0.023842 7.76555 0.0208979C7.98865 0.0656378 8.19337 0.175804 8.35362 0.337351C8.51386 0.498898 8.62237 0.704507 8.6653 0.927963L10.4014 9.90764ZM6.03776 14.4762C5.97077 14.5272 5.88672 14.5504 5.80304 14.5412C5.71936 14.5319 5.64245 14.4908 5.58825 14.4263C5.36347 14.1598 5.0678 13.9623 4.73548 13.8568C4.40315 13.7513 4.04773 13.742 3.71035 13.8301C3.37297 13.9181 3.06742 14.0999 2.82904 14.3543C2.59066 14.6088 2.4292 14.9256 2.36333 15.268C2.35033 15.335 2.31671 15.3964 2.26715 15.4434C2.2176 15.4904 2.1546 15.5208 2.08694 15.5303C1.86861 15.561 1.65995 15.6403 1.47629 15.7623C1.29263 15.8842 1.13864 16.0458 1.02565 16.2352C0.912661 16.4245 0.84354 16.6367 0.823372 16.8563C0.803202 17.0759 0.832497 17.2971 0.909101 17.5039C0.985706 17.7106 1.10768 17.8976 1.26604 18.051C1.4244 18.2044 1.61513 18.3204 1.82421 18.3904C2.03328 18.4603 2.25539 18.4826 2.47419 18.4555C2.693 18.4283 2.90294 18.3525 3.08858 18.2335C3.15532 18.1909 3.23526 18.1738 3.31361 18.1855C3.39197 18.1972 3.46344 18.2368 3.51481 18.2971C3.72198 18.5425 3.98227 18.7375 4.27597 18.8674C4.56968 18.9973 4.88908 19.0586 5.21 19.0468C5.53092 19.0349 5.84493 18.9502 6.12826 18.799C6.41158 18.6479 6.65679 18.4342 6.8453 18.1742C6.89392 18.1072 6.96605 18.0611 7.04723 18.0452C7.12841 18.0292 7.21263 18.0445 7.28301 18.088C7.4372 18.1833 7.60999 18.2446 7.7898 18.2678C7.96961 18.2909 8.15229 18.2754 8.3256 18.2222C8.49892 18.169 8.65886 18.0793 8.79473 17.9593C8.93059 17.8393 9.03924 17.6916 9.11339 17.5262C9.18755 17.3607 9.22549 17.1814 9.22469 17.0001C9.22388 16.8188 9.18435 16.6398 9.10874 16.475C9.03312 16.3102 8.92317 16.1635 8.78625 16.0447C8.64932 15.9258 8.48859 15.8377 8.31481 15.786C8.24783 15.7659 8.18902 15.725 8.14696 15.6691C8.1049 15.6133 8.08181 15.5454 8.08104 15.4755C8.07589 15.1408 7.93971 14.8215 7.70174 14.5861C7.46377 14.3507 7.14298 14.218 6.80825 14.2165C6.52979 14.2156 6.25886 14.3069 6.03776 14.4762ZM8.72104 15.2388C9.06421 15.3903 9.35621 15.6378 9.56181 15.9516C9.76741 16.2653 9.87782 16.6319 9.87973 17.007C9.8793 17.4144 9.74907 17.8111 9.50793 18.1394C10.3073 18.6698 11.2355 18.9737 12.1938 19.0188C11.6375 18.6513 11.1359 18.207 10.704 17.6991C10.6483 17.6323 10.6213 17.5461 10.6292 17.4594C10.637 17.3727 10.679 17.2927 10.7458 17.237C10.8126 17.1812 10.8989 17.1543 10.9855 17.1622C11.0722 17.17 11.1522 17.212 11.2079 17.2788C11.8448 18.0093 12.6252 18.6008 13.5007 19.0165C14.1731 18.967 14.8399 18.8603 15.4942 18.6975C15.5528 18.6827 15.6053 18.6647 15.6624 18.6509C13.9102 18.0516 11.9033 17.0194 10.7115 15.2653C10.6642 15.1934 10.6471 15.1057 10.6639 15.0213C10.6806 14.9368 10.73 14.8624 10.8012 14.814C10.8724 14.7656 10.9598 14.7472 11.0445 14.7627C11.1292 14.7781 11.2044 14.8263 11.2538 14.8968C12.5424 16.7945 14.9178 17.7896 16.7256 18.2952C17.2266 18.0968 17.6952 17.825 18.1161 17.4886C16.8364 17.3052 15.5935 16.9222 14.4325 16.3535C14.3942 16.3332 14.3602 16.3055 14.3326 16.272C14.3051 16.2385 14.2844 16.1999 14.2719 16.1583C14.2594 16.1167 14.2552 16.0731 14.2597 16.03C14.2642 15.9868 14.2772 15.9449 14.2979 15.9068C14.3187 15.8687 14.3468 15.8351 14.3807 15.808C14.4145 15.7808 14.4535 15.7606 14.4952 15.7486C14.5369 15.7366 14.5805 15.733 14.6236 15.738C14.6668 15.743 14.7084 15.7566 14.7463 15.7778C15.9446 16.4316 17.6532 16.764 18.6755 16.9145C18.886 16.6491 19.04 16.3434 19.1279 16.0162C14.0889 15.2519 12.1115 13.1912 11.385 12.0401C11.261 12.1594 11.126 12.2667 10.981 12.3601C10.4999 12.6609 9.9418 12.8155 9.37448 12.805C9.33743 12.805 9.30071 12.805 9.26334 12.803C8.78297 12.795 8.30605 12.7202 7.84629 12.5807C7.78957 12.9886 7.75514 13.3994 7.74301 13.8109C8.00571 13.9566 8.23086 14.1615 8.40062 14.4094C8.57038 14.6572 8.68008 14.9412 8.72104 15.2388ZM7.96301 11.9244C8.38924 12.066 8.83514 12.1414 9.28432 12.1476C9.75449 12.1752 10.2217 12.0574 10.6227 11.8103C10.7869 11.7068 10.9339 11.5781 11.0581 11.4289C10.9192 11.0689 10.6577 10.7693 10.3197 10.583C10.1351 10.4978 9.93452 10.4524 9.73114 10.4498C9.52776 10.4473 9.32613 10.4877 9.1394 10.5683C8.85121 10.687 8.59476 10.8715 8.39051 11.1069C8.18626 11.3424 8.03986 11.6223 7.96301 11.9244ZM8.02137 1.05223C7.99656 0.925147 7.92265 0.812977 7.81566 0.740055C7.70867 0.667134 7.57724 0.639344 7.44989 0.662717C7.3194 0.687963 7.20465 0.764357 7.13088 0.874849C7.05875 0.981734 7.03284 1.11321 7.05842 1.23944L8.75842 10.0263C8.80793 10.003 8.85678 9.97649 8.90694 9.95682C9.16431 9.85805 9.4369 9.8048 9.71252 9.79944L8.02137 1.05223Z"/>
</mask>
<path d="M10.4014 9.90764C10.4725 9.93255 10.5424 9.96141 10.6102 9.99452C11.1056 10.2565 11.4878 10.6909 11.6846 11.2155C12.0079 11.9696 13.5066 14.5008 19.2217 15.367C19.3131 15.3797 19.4009 15.4114 19.4793 15.4601C19.5577 15.5088 19.6251 15.5733 19.6771 15.6496C19.7282 15.7249 19.7628 15.8101 19.7789 15.8997C19.7949 15.9893 19.792 16.0812 19.7702 16.1696C19.6429 16.6311 19.4153 17.0589 19.1037 17.4224C19.083 17.4594 19.0551 17.4922 19.022 17.5188C18.4265 18.1562 17.6892 18.6445 16.8699 18.944C16.861 18.9476 16.8528 18.9519 16.8437 18.9548C16.4558 19.1076 16.0581 19.2345 15.6532 19.3345C14.9374 19.5116 14.2073 19.6244 13.4715 19.6722C13.4584 19.6748 13.4453 19.6768 13.4319 19.6778C13.4283 19.6778 13.4246 19.6755 13.4214 19.6755C13.2279 19.6867 13.0315 19.6945 12.8312 19.6945C11.5614 19.6945 10.1607 19.4385 9.03612 18.6004C8.76977 18.7821 8.46198 18.8938 8.14111 18.9253C7.82024 18.9567 7.49662 18.9069 7.20006 18.7804C6.95092 19.0589 6.64804 19.2841 6.30964 19.4426C5.97123 19.601 5.60428 19.6894 5.23085 19.7023C4.85741 19.7153 4.48521 19.6527 4.13662 19.5181C3.78802 19.3836 3.47023 19.1799 3.20235 18.9194C2.93358 19.0462 2.64127 19.1154 2.34418 19.1226C2.04708 19.1297 1.75179 19.0746 1.47724 18.9608C1.2027 18.8471 0.954987 18.6772 0.750008 18.462C0.545027 18.2468 0.387316 17.9912 0.286997 17.7114C0.18668 17.4317 0.145973 17.1341 0.167496 16.8377C0.189018 16.5413 0.272289 16.2527 0.411966 15.9904C0.551643 15.728 0.744637 15.4979 0.97855 15.3146C1.21246 15.1313 1.48213 14.9989 1.77022 14.926C1.88869 14.5139 2.11104 14.1392 2.41594 13.8378C2.72084 13.5364 3.09808 13.3183 3.51147 13.2046C3.92485 13.0908 4.36053 13.0852 4.77672 13.1882C5.19291 13.2912 5.57566 13.4994 5.88825 13.7929C6.25456 13.5892 6.67951 13.517 7.09252 13.5883C7.11915 13.065 7.17685 12.5438 7.2653 12.0273C7.37004 11.4014 7.68731 10.8306 8.16366 10.4112L6.41514 1.366C6.38554 1.21928 6.38536 1.06814 6.41463 0.921357C6.4439 0.774572 6.50202 0.635059 6.58563 0.510914C6.7114 0.321289 6.89079 0.173414 7.10094 0.0861429C7.31108 -0.00112836 7.54245 -0.023842 7.76555 0.0208979C7.98865 0.0656378 8.19337 0.175804 8.35362 0.337351C8.51386 0.498898 8.62237 0.704507 8.6653 0.927963L10.4014 9.90764ZM6.03776 14.4762C5.97077 14.5272 5.88672 14.5504 5.80304 14.5412C5.71936 14.5319 5.64245 14.4908 5.58825 14.4263C5.36347 14.1598 5.0678 13.9623 4.73548 13.8568C4.40315 13.7513 4.04773 13.742 3.71035 13.8301C3.37297 13.9181 3.06742 14.0999 2.82904 14.3543C2.59066 14.6088 2.4292 14.9256 2.36333 15.268C2.35033 15.335 2.31671 15.3964 2.26715 15.4434C2.2176 15.4904 2.1546 15.5208 2.08694 15.5303C1.86861 15.561 1.65995 15.6403 1.47629 15.7623C1.29263 15.8842 1.13864 16.0458 1.02565 16.2352C0.912661 16.4245 0.84354 16.6367 0.823372 16.8563C0.803202 17.0759 0.832497 17.2971 0.909101 17.5039C0.985706 17.7106 1.10768 17.8976 1.26604 18.051C1.4244 18.2044 1.61513 18.3204 1.82421 18.3904C2.03328 18.4603 2.25539 18.4826 2.47419 18.4555C2.693 18.4283 2.90294 18.3525 3.08858 18.2335C3.15532 18.1909 3.23526 18.1738 3.31361 18.1855C3.39197 18.1972 3.46344 18.2368 3.51481 18.2971C3.72198 18.5425 3.98227 18.7375 4.27597 18.8674C4.56968 18.9973 4.88908 19.0586 5.21 19.0468C5.53092 19.0349 5.84493 18.9502 6.12826 18.799C6.41158 18.6479 6.65679 18.4342 6.8453 18.1742C6.89392 18.1072 6.96605 18.0611 7.04723 18.0452C7.12841 18.0292 7.21263 18.0445 7.28301 18.088C7.4372 18.1833 7.60999 18.2446 7.7898 18.2678C7.96961 18.2909 8.15229 18.2754 8.3256 18.2222C8.49892 18.169 8.65886 18.0793 8.79473 17.9593C8.93059 17.8393 9.03924 17.6916 9.11339 17.5262C9.18755 17.3607 9.22549 17.1814 9.22469 17.0001C9.22388 16.8188 9.18435 16.6398 9.10874 16.475C9.03312 16.3102 8.92317 16.1635 8.78625 16.0447C8.64932 15.9258 8.48859 15.8377 8.31481 15.786C8.24783 15.7659 8.18902 15.725 8.14696 15.6691C8.1049 15.6133 8.08181 15.5454 8.08104 15.4755C8.07589 15.1408 7.93971 14.8215 7.70174 14.5861C7.46377 14.3507 7.14298 14.218 6.80825 14.2165C6.52979 14.2156 6.25886 14.3069 6.03776 14.4762ZM8.72104 15.2388C9.06421 15.3903 9.35621 15.6378 9.56181 15.9516C9.76741 16.2653 9.87782 16.6319 9.87973 17.007C9.8793 17.4144 9.74907 17.8111 9.50793 18.1394C10.3073 18.6698 11.2355 18.9737 12.1938 19.0188C11.6375 18.6513 11.1359 18.207 10.704 17.6991C10.6483 17.6323 10.6213 17.5461 10.6292 17.4594C10.637 17.3727 10.679 17.2927 10.7458 17.237C10.8126 17.1812 10.8989 17.1543 10.9855 17.1622C11.0722 17.17 11.1522 17.212 11.2079 17.2788C11.8448 18.0093 12.6252 18.6008 13.5007 19.0165C14.1731 18.967 14.8399 18.8603 15.4942 18.6975C15.5528 18.6827 15.6053 18.6647 15.6624 18.6509C13.9102 18.0516 11.9033 17.0194 10.7115 15.2653C10.6642 15.1934 10.6471 15.1057 10.6639 15.0213C10.6806 14.9368 10.73 14.8624 10.8012 14.814C10.8724 14.7656 10.9598 14.7472 11.0445 14.7627C11.1292 14.7781 11.2044 14.8263 11.2538 14.8968C12.5424 16.7945 14.9178 17.7896 16.7256 18.2952C17.2266 18.0968 17.6952 17.825 18.1161 17.4886C16.8364 17.3052 15.5935 16.9222 14.4325 16.3535C14.3942 16.3332 14.3602 16.3055 14.3326 16.272C14.3051 16.2385 14.2844 16.1999 14.2719 16.1583C14.2594 16.1167 14.2552 16.0731 14.2597 16.03C14.2642 15.9868 14.2772 15.9449 14.2979 15.9068C14.3187 15.8687 14.3468 15.8351 14.3807 15.808C14.4145 15.7808 14.4535 15.7606 14.4952 15.7486C14.5369 15.7366 14.5805 15.733 14.6236 15.738C14.6668 15.743 14.7084 15.7566 14.7463 15.7778C15.9446 16.4316 17.6532 16.764 18.6755 16.9145C18.886 16.6491 19.04 16.3434 19.1279 16.0162C14.0889 15.2519 12.1115 13.1912 11.385 12.0401C11.261 12.1594 11.126 12.2667 10.981 12.3601C10.4999 12.6609 9.9418 12.8155 9.37448 12.805C9.33743 12.805 9.30071 12.805 9.26334 12.803C8.78297 12.795 8.30605 12.7202 7.84629 12.5807C7.78957 12.9886 7.75514 13.3994 7.74301 13.8109C8.00571 13.9566 8.23086 14.1615 8.40062 14.4094C8.57038 14.6572 8.68008 14.9412 8.72104 15.2388ZM7.96301 11.9244C8.38924 12.066 8.83514 12.1414 9.28432 12.1476C9.75449 12.1752 10.2217 12.0574 10.6227 11.8103C10.7869 11.7068 10.9339 11.5781 11.0581 11.4289C10.9192 11.0689 10.6577 10.7693 10.3197 10.583C10.1351 10.4978 9.93452 10.4524 9.73114 10.4498C9.52776 10.4473 9.32613 10.4877 9.1394 10.5683C8.85121 10.687 8.59476 10.8715 8.39051 11.1069C8.18626 11.3424 8.03986 11.6223 7.96301 11.9244ZM8.02137 1.05223C7.99656 0.925147 7.92265 0.812977 7.81566 0.740055C7.70867 0.667134 7.57724 0.639344 7.44989 0.662717C7.3194 0.687963 7.20465 0.764357 7.13088 0.874849C7.05875 0.981734 7.03284 1.11321 7.05842 1.23944L8.75842 10.0263C8.80793 10.003 8.85678 9.97649 8.90694 9.95682C9.16431 9.85805 9.4369 9.8048 9.71252 9.79944L8.02137 1.05223Z" fill="#3CA200" stroke="#3CA200" stroke-width="16.7869" mask="url(#path-1-inside-1_11387_8301)"/>
</g>
<g id="Vector_2">
<mask id="path-2-inside-2_11387_8301" fill="white">
<path d="M4.58559 15.2726C4.52049 15.1953 4.43482 15.138 4.3385 15.1074C4.24218 15.0768 4.13916 15.074 4.04135 15.0995C3.94354 15.125 3.85495 15.1777 3.78584 15.2514C3.71673 15.3252 3.66992 15.417 3.65084 15.5162C3.6344 15.6017 3.5847 15.6771 3.51267 15.7259C3.44063 15.7747 3.35217 15.7928 3.26674 15.7764C3.1813 15.76 3.1059 15.7103 3.05711 15.6382C3.00832 15.5662 2.99014 15.4777 3.00657 15.3923C3.04916 15.1715 3.15339 14.9672 3.30722 14.8031C3.46104 14.639 3.65818 14.5218 3.87582 14.465C4.09346 14.4082 4.32273 14.4143 4.5371 14.4823C4.75148 14.5504 4.94221 14.6778 5.08723 14.8497C5.14332 14.9162 5.17068 15.0023 5.1633 15.089C5.15592 15.1757 5.11441 15.2559 5.04788 15.312C4.98136 15.3681 4.89529 15.3954 4.80859 15.3881C4.72189 15.3807 4.64168 15.3392 4.58559 15.2726ZM2.78625 11.3117C2.78625 11.616 2.66534 11.9079 2.45014 12.1231C2.23493 12.3383 1.94305 12.4592 1.6387 12.4592C1.33436 12.4592 1.04248 12.3383 0.827271 12.1231C0.612064 11.9079 0.491163 11.616 0.491163 11.3117C0.491163 11.0073 0.612064 10.7154 0.827271 10.5002C1.04248 10.285 1.33436 10.1641 1.6387 10.1641C1.94305 10.1641 2.23493 10.285 2.45014 10.5002C2.66534 10.7154 2.78625 11.0073 2.78625 11.3117ZM1.1469 11.3117C1.1469 11.4421 1.19872 11.5672 1.29095 11.6594C1.38318 11.7516 1.50827 11.8035 1.6387 11.8035C1.76914 11.8035 1.89423 11.7516 1.98646 11.6594C2.07869 11.5672 2.13051 11.4421 2.13051 11.3117C2.13051 11.1812 2.07869 11.0561 1.98646 10.9639C1.89423 10.8717 1.76914 10.8199 1.6387 10.8199C1.50827 10.8199 1.38318 10.8717 1.29095 10.9639C1.19872 11.0561 1.1469 11.1812 1.1469 11.3117ZM3.76985 10.1641C3.50898 10.1641 3.2588 10.0605 3.07434 9.87603C2.88988 9.69156 2.78625 9.44138 2.78625 9.18051C2.78625 8.91964 2.88988 8.66946 3.07434 8.485C3.2588 8.30053 3.50898 8.1969 3.76985 8.1969C4.03072 8.1969 4.2809 8.30053 4.46537 8.485C4.64983 8.66946 4.75346 8.91964 4.75346 9.18051C4.75346 9.44138 4.64983 9.69156 4.46537 9.87603C4.2809 10.0605 4.03072 10.1641 3.76985 10.1641ZM3.76985 8.85264C3.6829 8.85264 3.5995 8.88718 3.53801 8.94867C3.47653 9.01016 3.44198 9.09355 3.44198 9.18051C3.44198 9.26747 3.47653 9.35086 3.53801 9.41235C3.5995 9.47384 3.6829 9.50838 3.76985 9.50838C3.85681 9.50838 3.9402 9.47384 4.00169 9.41235C4.06318 9.35086 4.09772 9.26747 4.09772 9.18051C4.09772 9.09355 4.06318 9.01016 4.00169 8.94867C3.9402 8.88718 3.85681 8.85264 3.76985 8.85264ZM17.5403 7.54117C17.4534 7.54117 17.37 7.50662 17.3085 7.44514C17.247 7.38365 17.2125 7.30025 17.2125 7.2133V6.55756C17.2125 6.4706 17.247 6.38721 17.3085 6.32572C17.37 6.26423 17.4534 6.22969 17.5403 6.22969C17.6273 6.22969 17.7107 6.26423 17.7722 6.32572C17.8337 6.38721 17.8682 6.4706 17.8682 6.55756V7.2133C17.8682 7.30025 17.8337 7.38365 17.7722 7.44514C17.7107 7.50662 17.6273 7.54117 17.5403 7.54117ZM17.2125 9.18051V8.52477C17.2125 8.43782 17.247 8.35442 17.3085 8.29293C17.37 8.23145 17.4534 8.1969 17.5403 8.1969C17.6273 8.1969 17.7107 8.23145 17.7722 8.29293C17.8337 8.35442 17.8682 8.43782 17.8682 8.52477V9.18051C17.8682 9.26747 17.8337 9.35086 17.7722 9.41235C17.7107 9.47384 17.6273 9.50838 17.5403 9.50838C17.4534 9.50838 17.37 9.47384 17.3085 9.41235C17.247 9.35086 17.2125 9.26747 17.2125 9.18051ZM18.8518 8.1969H18.1961C18.1091 8.1969 18.0257 8.16236 17.9642 8.10087C17.9028 8.03939 17.8682 7.95599 17.8682 7.86904C17.8682 7.78208 17.9028 7.69868 17.9642 7.6372C18.0257 7.57571 18.1091 7.54117 18.1961 7.54117H18.8518C18.9388 7.54117 19.0222 7.57571 19.0837 7.6372C19.1451 7.69868 19.1797 7.78208 19.1797 7.86904C19.1797 7.95599 19.1451 8.03939 19.0837 8.10087C19.0222 8.16236 18.9388 8.1969 18.8518 8.1969ZM16.8846 8.1969H16.2289C16.1419 8.1969 16.0585 8.16236 15.997 8.10087C15.9355 8.03939 15.901 7.95599 15.901 7.86904C15.901 7.78208 15.9355 7.69868 15.997 7.6372C16.0585 7.57571 16.1419 7.54117 16.2289 7.54117H16.8846C16.9716 7.54117 17.055 7.57571 17.1164 7.6372C17.1779 7.69868 17.2125 7.78208 17.2125 7.86904C17.2125 7.95599 17.1779 8.03939 17.1164 8.10087C17.055 8.16236 16.9716 8.1969 16.8846 8.1969ZM16.2967 11.7356L16.7885 12.2274C16.8199 12.2576 16.8448 12.2938 16.862 12.3338C16.8792 12.3738 16.8882 12.4168 16.8886 12.4604C16.889 12.5039 16.8807 12.5471 16.8642 12.5874C16.8477 12.6277 16.8234 12.6643 16.7926 12.6951C16.7618 12.7259 16.7252 12.7502 16.6849 12.7667C16.6446 12.7832 16.6015 12.7915 16.5579 12.7911C16.5144 12.7907 16.4714 12.7817 16.4314 12.7645C16.3914 12.7473 16.3552 12.7223 16.3249 12.691L15.8331 12.1992C15.7734 12.1374 15.7404 12.0545 15.7411 11.9686C15.7419 11.8826 15.7763 11.8004 15.8371 11.7396C15.8979 11.6788 15.9801 11.6443 16.0661 11.6436C16.1521 11.6428 16.2349 11.6759 16.2967 11.7356ZM14.3577 10.2602C14.4192 10.1987 14.5026 10.1642 14.5895 10.1642C14.6765 10.1642 14.7598 10.1987 14.8213 10.2602L15.3131 10.752C15.3444 10.7822 15.3694 10.8184 15.3866 10.8584C15.4038 10.8984 15.4128 10.9414 15.4132 10.985C15.4136 11.0285 15.4053 11.0717 15.3888 11.112C15.3723 11.1523 15.348 11.1889 15.3172 11.2197C15.2864 11.2504 15.2498 11.2748 15.2095 11.2913C15.1692 11.3078 15.126 11.3161 15.0825 11.3157C15.039 11.3153 14.9959 11.3063 14.9559 11.2891C14.9159 11.2719 14.8798 11.2469 14.8495 11.2156L14.3577 10.7238C14.2963 10.6623 14.2617 10.5789 14.2617 10.492C14.2617 10.405 14.2963 10.3217 14.3577 10.2602ZM14.8495 11.7356C14.9114 11.6759 14.9942 11.6428 15.0801 11.6436C15.1661 11.6443 15.2483 11.6788 15.3091 11.7396C15.3699 11.8004 15.4044 11.8826 15.4052 11.9686C15.4059 12.0545 15.3729 12.1374 15.3131 12.1992L14.8213 12.691C14.7595 12.7507 14.6767 12.7838 14.5907 12.783C14.5047 12.7823 14.4225 12.7478 14.3617 12.687C14.3009 12.6262 14.2664 12.544 14.2657 12.458C14.2649 12.3721 14.298 12.2892 14.3577 12.2274L14.8495 11.7356ZM15.8331 10.752L16.3249 10.2602C16.3868 10.2005 16.4696 10.1674 16.5556 10.1682C16.6415 10.1689 16.7238 10.2034 16.7845 10.2642C16.8453 10.325 16.8798 10.4072 16.8806 10.4932C16.8813 10.5791 16.8483 10.662 16.7885 10.7238L16.2967 11.2156C16.2349 11.2753 16.1521 11.3084 16.0661 11.3076C15.9801 11.3069 15.8979 11.2724 15.8371 11.2116C15.7763 11.1508 15.7419 11.0686 15.7411 10.9826C15.7404 10.8966 15.7734 10.8138 15.8331 10.752ZM15.958 3.30248L10.3843 4.28608C10.2996 4.29914 10.2131 4.27851 10.1434 4.22861C10.0738 4.17871 10.0264 4.10351 10.0115 4.01911C9.99655 3.93471 10.0153 3.84782 10.0636 3.77706C10.112 3.7063 10.1861 3.65728 10.2702 3.64051L15.8439 2.6569C15.9287 2.64385 16.0151 2.66448 16.0848 2.71438C16.1545 2.76428 16.2018 2.83948 16.2168 2.92388C16.2317 3.00828 16.213 3.09517 16.1646 3.16593C16.1162 3.23669 16.0421 3.28571 15.958 3.30248ZM10.7121 5.92543C10.6274 5.93849 10.541 5.91785 10.4713 5.86795C10.4016 5.81805 10.3542 5.74285 10.3393 5.65845C10.3244 5.57405 10.3431 5.48717 10.3915 5.4164C10.4399 5.34564 10.514 5.29662 10.598 5.27986L14.1518 4.65231C14.2375 4.63718 14.3256 4.6567 14.3969 4.70656C14.4682 4.75643 14.5167 4.83256 14.5318 4.91822C14.5469 5.00387 14.5274 5.09202 14.4776 5.16329C14.4277 5.23455 14.3516 5.28309 14.2659 5.29822L10.7121 5.92543ZM15.6026 6.39789C15.6101 6.4403 15.6092 6.48377 15.5999 6.52583C15.5906 6.56788 15.5731 6.60769 15.5484 6.64298C15.5237 6.67827 15.4923 6.70834 15.456 6.73149C15.4197 6.75464 15.3792 6.77041 15.3367 6.77789L11.04 7.53625C10.9976 7.54372 10.9541 7.54276 10.9121 7.53343C10.8701 7.52411 10.8303 7.50659 10.795 7.48188C10.7597 7.45718 10.7297 7.42576 10.7065 7.38944C10.6834 7.35312 10.6676 7.31259 10.6602 7.27018C10.6527 7.22777 10.6537 7.18431 10.663 7.14226C10.6723 7.10022 10.6898 7.06043 10.7145 7.02516C10.7393 6.98989 10.7707 6.95983 10.807 6.9367C10.8433 6.91357 10.8838 6.89782 10.9262 6.89035L15.223 6.13133C15.2654 6.12388 15.3089 6.12487 15.3509 6.13424C15.393 6.1436 15.4328 6.16117 15.468 6.18592C15.5033 6.21068 15.5333 6.24214 15.5564 6.27851C15.5795 6.31488 15.5952 6.35545 15.6026 6.39789Z"/>
</mask>
<path d="M4.58559 15.2726C4.52049 15.1953 4.43482 15.138 4.3385 15.1074C4.24218 15.0768 4.13916 15.074 4.04135 15.0995C3.94354 15.125 3.85495 15.1777 3.78584 15.2514C3.71673 15.3252 3.66992 15.417 3.65084 15.5162C3.6344 15.6017 3.5847 15.6771 3.51267 15.7259C3.44063 15.7747 3.35217 15.7928 3.26674 15.7764C3.1813 15.76 3.1059 15.7103 3.05711 15.6382C3.00832 15.5662 2.99014 15.4777 3.00657 15.3923C3.04916 15.1715 3.15339 14.9672 3.30722 14.8031C3.46104 14.639 3.65818 14.5218 3.87582 14.465C4.09346 14.4082 4.32273 14.4143 4.5371 14.4823C4.75148 14.5504 4.94221 14.6778 5.08723 14.8497C5.14332 14.9162 5.17068 15.0023 5.1633 15.089C5.15592 15.1757 5.11441 15.2559 5.04788 15.312C4.98136 15.3681 4.89529 15.3954 4.80859 15.3881C4.72189 15.3807 4.64168 15.3392 4.58559 15.2726ZM2.78625 11.3117C2.78625 11.616 2.66534 11.9079 2.45014 12.1231C2.23493 12.3383 1.94305 12.4592 1.6387 12.4592C1.33436 12.4592 1.04248 12.3383 0.827271 12.1231C0.612064 11.9079 0.491163 11.616 0.491163 11.3117C0.491163 11.0073 0.612064 10.7154 0.827271 10.5002C1.04248 10.285 1.33436 10.1641 1.6387 10.1641C1.94305 10.1641 2.23493 10.285 2.45014 10.5002C2.66534 10.7154 2.78625 11.0073 2.78625 11.3117ZM1.1469 11.3117C1.1469 11.4421 1.19872 11.5672 1.29095 11.6594C1.38318 11.7516 1.50827 11.8035 1.6387 11.8035C1.76914 11.8035 1.89423 11.7516 1.98646 11.6594C2.07869 11.5672 2.13051 11.4421 2.13051 11.3117C2.13051 11.1812 2.07869 11.0561 1.98646 10.9639C1.89423 10.8717 1.76914 10.8199 1.6387 10.8199C1.50827 10.8199 1.38318 10.8717 1.29095 10.9639C1.19872 11.0561 1.1469 11.1812 1.1469 11.3117ZM3.76985 10.1641C3.50898 10.1641 3.2588 10.0605 3.07434 9.87603C2.88988 9.69156 2.78625 9.44138 2.78625 9.18051C2.78625 8.91964 2.88988 8.66946 3.07434 8.485C3.2588 8.30053 3.50898 8.1969 3.76985 8.1969C4.03072 8.1969 4.2809 8.30053 4.46537 8.485C4.64983 8.66946 4.75346 8.91964 4.75346 9.18051C4.75346 9.44138 4.64983 9.69156 4.46537 9.87603C4.2809 10.0605 4.03072 10.1641 3.76985 10.1641ZM3.76985 8.85264C3.6829 8.85264 3.5995 8.88718 3.53801 8.94867C3.47653 9.01016 3.44198 9.09355 3.44198 9.18051C3.44198 9.26747 3.47653 9.35086 3.53801 9.41235C3.5995 9.47384 3.6829 9.50838 3.76985 9.50838C3.85681 9.50838 3.9402 9.47384 4.00169 9.41235C4.06318 9.35086 4.09772 9.26747 4.09772 9.18051C4.09772 9.09355 4.06318 9.01016 4.00169 8.94867C3.9402 8.88718 3.85681 8.85264 3.76985 8.85264ZM17.5403 7.54117C17.4534 7.54117 17.37 7.50662 17.3085 7.44514C17.247 7.38365 17.2125 7.30025 17.2125 7.2133V6.55756C17.2125 6.4706 17.247 6.38721 17.3085 6.32572C17.37 6.26423 17.4534 6.22969 17.5403 6.22969C17.6273 6.22969 17.7107 6.26423 17.7722 6.32572C17.8337 6.38721 17.8682 6.4706 17.8682 6.55756V7.2133C17.8682 7.30025 17.8337 7.38365 17.7722 7.44514C17.7107 7.50662 17.6273 7.54117 17.5403 7.54117ZM17.2125 9.18051V8.52477C17.2125 8.43782 17.247 8.35442 17.3085 8.29293C17.37 8.23145 17.4534 8.1969 17.5403 8.1969C17.6273 8.1969 17.7107 8.23145 17.7722 8.29293C17.8337 8.35442 17.8682 8.43782 17.8682 8.52477V9.18051C17.8682 9.26747 17.8337 9.35086 17.7722 9.41235C17.7107 9.47384 17.6273 9.50838 17.5403 9.50838C17.4534 9.50838 17.37 9.47384 17.3085 9.41235C17.247 9.35086 17.2125 9.26747 17.2125 9.18051ZM18.8518 8.1969H18.1961C18.1091 8.1969 18.0257 8.16236 17.9642 8.10087C17.9028 8.03939 17.8682 7.95599 17.8682 7.86904C17.8682 7.78208 17.9028 7.69868 17.9642 7.6372C18.0257 7.57571 18.1091 7.54117 18.1961 7.54117H18.8518C18.9388 7.54117 19.0222 7.57571 19.0837 7.6372C19.1451 7.69868 19.1797 7.78208 19.1797 7.86904C19.1797 7.95599 19.1451 8.03939 19.0837 8.10087C19.0222 8.16236 18.9388 8.1969 18.8518 8.1969ZM16.8846 8.1969H16.2289C16.1419 8.1969 16.0585 8.16236 15.997 8.10087C15.9355 8.03939 15.901 7.95599 15.901 7.86904C15.901 7.78208 15.9355 7.69868 15.997 7.6372C16.0585 7.57571 16.1419 7.54117 16.2289 7.54117H16.8846C16.9716 7.54117 17.055 7.57571 17.1164 7.6372C17.1779 7.69868 17.2125 7.78208 17.2125 7.86904C17.2125 7.95599 17.1779 8.03939 17.1164 8.10087C17.055 8.16236 16.9716 8.1969 16.8846 8.1969ZM16.2967 11.7356L16.7885 12.2274C16.8199 12.2576 16.8448 12.2938 16.862 12.3338C16.8792 12.3738 16.8882 12.4168 16.8886 12.4604C16.889 12.5039 16.8807 12.5471 16.8642 12.5874C16.8477 12.6277 16.8234 12.6643 16.7926 12.6951C16.7618 12.7259 16.7252 12.7502 16.6849 12.7667C16.6446 12.7832 16.6015 12.7915 16.5579 12.7911C16.5144 12.7907 16.4714 12.7817 16.4314 12.7645C16.3914 12.7473 16.3552 12.7223 16.3249 12.691L15.8331 12.1992C15.7734 12.1374 15.7404 12.0545 15.7411 11.9686C15.7419 11.8826 15.7763 11.8004 15.8371 11.7396C15.8979 11.6788 15.9801 11.6443 16.0661 11.6436C16.1521 11.6428 16.2349 11.6759 16.2967 11.7356ZM14.3577 10.2602C14.4192 10.1987 14.5026 10.1642 14.5895 10.1642C14.6765 10.1642 14.7598 10.1987 14.8213 10.2602L15.3131 10.752C15.3444 10.7822 15.3694 10.8184 15.3866 10.8584C15.4038 10.8984 15.4128 10.9414 15.4132 10.985C15.4136 11.0285 15.4053 11.0717 15.3888 11.112C15.3723 11.1523 15.348 11.1889 15.3172 11.2197C15.2864 11.2504 15.2498 11.2748 15.2095 11.2913C15.1692 11.3078 15.126 11.3161 15.0825 11.3157C15.039 11.3153 14.9959 11.3063 14.9559 11.2891C14.9159 11.2719 14.8798 11.2469 14.8495 11.2156L14.3577 10.7238C14.2963 10.6623 14.2617 10.5789 14.2617 10.492C14.2617 10.405 14.2963 10.3217 14.3577 10.2602ZM14.8495 11.7356C14.9114 11.6759 14.9942 11.6428 15.0801 11.6436C15.1661 11.6443 15.2483 11.6788 15.3091 11.7396C15.3699 11.8004 15.4044 11.8826 15.4052 11.9686C15.4059 12.0545 15.3729 12.1374 15.3131 12.1992L14.8213 12.691C14.7595 12.7507 14.6767 12.7838 14.5907 12.783C14.5047 12.7823 14.4225 12.7478 14.3617 12.687C14.3009 12.6262 14.2664 12.544 14.2657 12.458C14.2649 12.3721 14.298 12.2892 14.3577 12.2274L14.8495 11.7356ZM15.8331 10.752L16.3249 10.2602C16.3868 10.2005 16.4696 10.1674 16.5556 10.1682C16.6415 10.1689 16.7238 10.2034 16.7845 10.2642C16.8453 10.325 16.8798 10.4072 16.8806 10.4932C16.8813 10.5791 16.8483 10.662 16.7885 10.7238L16.2967 11.2156C16.2349 11.2753 16.1521 11.3084 16.0661 11.3076C15.9801 11.3069 15.8979 11.2724 15.8371 11.2116C15.7763 11.1508 15.7419 11.0686 15.7411 10.9826C15.7404 10.8966 15.7734 10.8138 15.8331 10.752ZM15.958 3.30248L10.3843 4.28608C10.2996 4.29914 10.2131 4.27851 10.1434 4.22861C10.0738 4.17871 10.0264 4.10351 10.0115 4.01911C9.99655 3.93471 10.0153 3.84782 10.0636 3.77706C10.112 3.7063 10.1861 3.65728 10.2702 3.64051L15.8439 2.6569C15.9287 2.64385 16.0151 2.66448 16.0848 2.71438C16.1545 2.76428 16.2018 2.83948 16.2168 2.92388C16.2317 3.00828 16.213 3.09517 16.1646 3.16593C16.1162 3.23669 16.0421 3.28571 15.958 3.30248ZM10.7121 5.92543C10.6274 5.93849 10.541 5.91785 10.4713 5.86795C10.4016 5.81805 10.3542 5.74285 10.3393 5.65845C10.3244 5.57405 10.3431 5.48717 10.3915 5.4164C10.4399 5.34564 10.514 5.29662 10.598 5.27986L14.1518 4.65231C14.2375 4.63718 14.3256 4.6567 14.3969 4.70656C14.4682 4.75643 14.5167 4.83256 14.5318 4.91822C14.5469 5.00387 14.5274 5.09202 14.4776 5.16329C14.4277 5.23455 14.3516 5.28309 14.2659 5.29822L10.7121 5.92543ZM15.6026 6.39789C15.6101 6.4403 15.6092 6.48377 15.5999 6.52583C15.5906 6.56788 15.5731 6.60769 15.5484 6.64298C15.5237 6.67827 15.4923 6.70834 15.456 6.73149C15.4197 6.75464 15.3792 6.77041 15.3367 6.77789L11.04 7.53625C10.9976 7.54372 10.9541 7.54276 10.9121 7.53343C10.8701 7.52411 10.8303 7.50659 10.795 7.48188C10.7597 7.45718 10.7297 7.42576 10.7065 7.38944C10.6834 7.35312 10.6676 7.31259 10.6602 7.27018C10.6527 7.22777 10.6537 7.18431 10.663 7.14226C10.6723 7.10022 10.6898 7.06043 10.7145 7.02516C10.7393 6.98989 10.7707 6.95983 10.807 6.9367C10.8433 6.91357 10.8838 6.89782 10.9262 6.89035L15.223 6.13133C15.2654 6.12388 15.3089 6.12487 15.3509 6.13424C15.393 6.1436 15.4328 6.16117 15.468 6.18592C15.5033 6.21068 15.5333 6.24214 15.5564 6.27851C15.5795 6.31488 15.5952 6.35545 15.6026 6.39789Z" fill="#3CA200" stroke="#3CA200" stroke-width="16.7869" mask="url(#path-2-inside-2_11387_8301)"/>
</g>
</g>
</g>
</g>
<defs>
<clipPath id="clip0_11387_8301">
<rect width="20" height="20" fill="white" transform="matrix(-1 0 0 1 20 0)"/>
</clipPath>
</defs>
</svg>
