<svg width="157" height="32" viewBox="0 0 157 32" fill="none" xmlns="http://www.w3.org/2000/svg">
<g id="Group 427319228">
<path id="Star 2" d="M14.2512 5.09659C14.7724 3.4924 17.0419 3.4924 17.5631 5.09659L19.0346 9.62514C19.2677 10.3426 19.9362 10.8283 20.6905 10.8283L25.4521 10.8283C27.1389 10.8283 27.8402 12.9867 26.4756 13.9781L22.6234 16.7769C22.0131 17.2203 21.7577 18.0062 21.9908 18.7237L23.4623 23.2522C23.9835 24.8564 22.1474 26.1904 20.7828 25.1989L16.9306 22.4001C16.3203 21.9567 15.494 21.9567 14.8837 22.4001L11.0315 25.1989C9.66689 26.1904 7.83082 24.8564 8.35206 23.2522L9.82347 18.7237C10.0566 18.0062 9.80121 17.2203 9.19094 16.7769L5.33873 13.9781C3.97413 12.9867 4.67544 10.8283 6.36219 10.8283L11.1238 10.8283C11.8781 10.8283 12.5467 10.3425 12.7798 9.62513L14.2512 5.09659Z" fill="#3CA200"/>
<path id="Star 3" d="M45.593 5.09659C46.1142 3.4924 48.3837 3.4924 48.9049 5.09659L50.3764 9.62514C50.6095 10.3426 51.278 10.8283 52.0323 10.8283L56.7939 10.8283C58.4807 10.8283 59.182 12.9867 57.8174 13.9781L53.9652 16.7769C53.3549 17.2203 53.0995 18.0062 53.3326 18.7237L54.8041 23.2522C55.3253 24.8564 53.4892 26.1904 52.1246 25.1989L48.2724 22.4001C47.6621 21.9567 46.8358 21.9567 46.2255 22.4001L42.3733 25.1989C41.0087 26.1904 39.1726 24.8564 39.6939 23.2522L41.1653 18.7237C41.3984 18.0062 41.143 17.2203 40.5327 16.7769L36.6805 13.9781C35.3159 12.9867 36.0172 10.8283 37.704 10.8283L42.4656 10.8283C43.2199 10.8283 43.8885 10.3425 44.1216 9.62513L45.593 5.09659Z" fill="#3CA200"/>
<path id="Star 4" d="M76.9338 5.09659C77.455 3.4924 79.7245 3.4924 80.2458 5.09659L81.7172 9.62514C81.9503 10.3426 82.6188 10.8283 83.3732 10.8283L88.1347 10.8283C89.8215 10.8283 90.5228 12.9867 89.1582 13.9781L85.306 16.7769C84.6957 17.2203 84.4404 18.0062 84.6735 18.7237L86.1449 23.2522C86.6661 24.8564 84.83 26.1904 83.4654 25.1989L79.6132 22.4001C79.003 21.9567 78.1766 21.9567 77.5663 22.4001L73.7141 25.1989C72.3495 26.1904 70.5134 24.8564 71.0347 23.2522L72.5061 18.7237C72.7392 18.0062 72.4838 17.2203 71.8736 16.7769L68.0213 13.9781C66.6567 12.9867 67.3581 10.8283 69.0448 10.8283L73.8064 10.8283C74.5607 10.8283 75.2293 10.3425 75.4624 9.62513L76.9338 5.09659Z" fill="#3CA200"/>
<path id="Star 5" d="M108.277 5.09659C108.798 3.4924 111.067 3.4924 111.589 5.09659L113.06 9.62514C113.293 10.3426 113.962 10.8283 114.716 10.8283L119.478 10.8283C121.164 10.8283 121.866 12.9867 120.501 13.9781L116.649 16.7769C116.038 17.2203 115.783 18.0062 116.016 18.7237L117.488 23.2522C118.009 24.8564 116.173 26.1904 114.808 25.1989L110.956 22.4001C110.346 21.9567 109.519 21.9567 108.909 22.4001L105.057 25.1989C103.692 26.1904 101.856 24.8564 102.377 23.2522L103.849 18.7237C104.082 18.0062 103.827 17.2203 103.216 16.7769L99.3641 13.9781C97.9995 12.9867 98.7008 10.8283 100.388 10.8283L105.149 10.8283C105.904 10.8283 106.572 10.3425 106.805 9.62513L108.277 5.09659Z" fill="#3CA200"/>
<path id="Star 6" d="M139.617 5.09659C140.139 3.4924 142.408 3.4924 142.929 5.09659L144.401 9.62514C144.634 10.3426 145.302 10.8283 146.057 10.8283L150.818 10.8283C152.505 10.8283 153.206 12.9867 151.842 13.9781L147.99 16.7769C147.379 17.2203 147.124 18.0062 147.357 18.7237L148.828 23.2522C149.35 24.8564 147.514 26.1904 146.149 25.1989L142.297 22.4001C141.687 21.9567 140.86 21.9567 140.25 22.4001L136.398 25.1989C135.033 26.1904 133.197 24.8564 133.718 23.2522L135.19 18.7237C135.423 18.0062 135.167 17.2203 134.557 16.7769L130.705 13.9781C129.34 12.9867 130.042 10.8283 131.728 10.8283L136.49 10.8283C137.244 10.8283 137.913 10.3425 138.146 9.62513L139.617 5.09659Z" fill="#3CA200"/>
</g>
</svg>
