<svg width="14" height="14" viewBox="0 0 14 14" fill="none" xmlns="http://www.w3.org/2000/svg">
<g id="Aicon">
<g id="Group">
<path id="Vector" d="M5.07539 7.35C5.07539 5.52563 3.22477 3.675 1.40039 3.675C3.22477 3.675 5.07539 1.82438 5.07539 0C5.07539 1.82438 6.92602 3.675 8.75039 3.675C6.92602 3.675 5.07539 5.52563 5.07539 7.35Z" fill="#3CA200"/>
<path id="Vector_2" d="M5.07539 7.35C5.07539 5.52563 3.22477 3.675 1.40039 3.675C3.22477 3.675 5.07539 1.82438 5.07539 0C5.07539 1.82438 6.92602 3.675 8.75039 3.675C6.92602 3.675 5.07539 5.52563 5.07539 7.35Z" fill="#3CA200"/>
</g>
<g id="Group_2">
<path id="Vector_3" d="M9.09922 13.9997C9.09922 11.5693 6.62962 9.09971 4.19922 9.09971C6.62962 9.09971 9.09922 6.63011 9.09922 4.19971C9.09922 6.63011 11.5688 9.09971 13.9992 9.09971C11.5688 9.09971 9.09922 11.5693 9.09922 13.9997Z" fill="#3CA200"/>
<path id="Vector_4" d="M9.09922 13.9997C9.09922 11.5693 6.62962 9.09971 4.19922 9.09971C6.62962 9.09971 9.09922 6.63011 9.09922 4.19971C9.09922 6.63011 11.5688 9.09971 13.9992 9.09971C11.5688 9.09971 9.09922 11.5693 9.09922 13.9997Z" fill="#3CA200"/>
</g>
<g id="Group_3">
<path id="Vector_5" d="M2.45 13.3001C2.45 12.0856 1.2145 10.8501 0 10.8501C1.2145 10.8501 2.45 9.61459 2.45 8.40009C2.45 9.61459 3.6855 10.8501 4.9 10.8501C3.6855 10.8501 2.45 12.0856 2.45 13.3001Z" fill="#3CA200"/>
</g>
</g>
</svg>
