<svg width="58" height="55" viewBox="0 0 58 55" fill="none" xmlns="http://www.w3.org/2000/svg">
<g id="icon">
<path id="BG" d="M0 20C0 8.95431 8.95431 0 20 0H58V23.4654C58 28.9173 55.7743 34.1329 51.8381 37.9051L39.802 49.4398C36.0787 53.008 31.1209 55 25.9639 55H0V20Z" fill="white"/>
<g id="Aicon">
<g id="Group">
<path id="Vector" d="M25.976 27.5506C25.976 24.6836 23.0677 21.7753 20.2007 21.7753C23.0677 21.7753 25.976 18.867 25.976 16C25.976 18.867 28.8843 21.7753 31.7513 21.7753C28.8843 21.7753 25.976 24.6836 25.976 27.5506Z" fill="#3CA200"/>
<path id="Vector_2" d="M25.976 27.5506C25.976 24.6836 23.0677 21.7753 20.2007 21.7753C23.0677 21.7753 25.976 18.867 25.976 16C25.976 18.867 28.8843 21.7753 31.7513 21.7753C28.8843 21.7753 25.976 24.6836 25.976 27.5506Z" fill="#3CA200"/>
</g>
<g id="Group_2">
<path id="Vector_3" d="M32.2995 38.0008C32.2995 34.1814 28.4185 30.3004 24.5991 30.3004C28.4185 30.3004 32.2995 26.4194 32.2995 22.6C32.2995 26.4194 36.1805 30.3004 39.9999 30.3004C36.1805 30.3004 32.2995 34.1814 32.2995 38.0008Z" fill="#3CA200"/>
<path id="Vector_4" d="M32.2995 38.0008C32.2995 34.1814 28.4185 30.3004 24.5991 30.3004C28.4185 30.3004 32.2995 26.4194 32.2995 22.6C32.2995 26.4194 36.1805 30.3004 39.9999 30.3004C36.1805 30.3004 32.2995 34.1814 32.2995 38.0008Z" fill="#3CA200"/>
</g>
<g id="Group_3">
<path id="Vector_5" d="M21.8502 36.9012C21.8502 34.9926 19.9086 33.051 18 33.051C19.9086 33.051 21.8502 31.1094 21.8502 29.2008C21.8502 31.1094 23.7918 33.051 25.7004 33.051C23.7918 33.051 21.8502 34.9926 21.8502 36.9012Z" fill="#3CA200"/>
</g>
</g>
<g id="Group 1000008745">
<g id="Group_4">
<g id="Vector_6">
<mask id="path-7-inside-1_11387_8112" fill="white">
<path d="M26.25 28.5C26.25 25.8938 23.6063 23.25 21 23.25C23.6063 23.25 26.25 20.6063 26.25 18C26.25 20.6063 28.8938 23.25 31.5 23.25C28.8938 23.25 26.25 25.8938 26.25 28.5Z"/>
</mask>
<path d="M26.25 28.5C26.25 25.8938 23.6063 23.25 21 23.25C23.6063 23.25 26.25 20.6063 26.25 18C26.25 20.6063 28.8938 23.25 31.5 23.25C28.8938 23.25 26.25 25.8938 26.25 28.5Z" fill="#3CA200"/>
<path d="M34.25 28.5C34.25 24.5693 32.346 21.3276 30.2592 19.2408C28.1724 17.154 24.9307 15.25 21 15.25V31.25C20.3024 31.25 19.7995 31.0767 19.5186 30.9448C19.2369 30.8125 19.0596 30.6686 18.9455 30.5545C18.8314 30.4404 18.6875 30.2631 18.5552 29.9814C18.4233 29.7005 18.25 29.1976 18.25 28.5H34.25ZM21 31.25C24.9307 31.25 28.1724 29.346 30.2592 27.2592C32.346 25.1724 34.25 21.9307 34.25 18H18.25C18.25 17.3024 18.4233 16.7995 18.5552 16.5186C18.6875 16.2369 18.8314 16.0596 18.9455 15.9455C19.0596 15.8314 19.2369 15.6875 19.5186 15.5552C19.7995 15.4233 20.3024 15.25 21 15.25V31.25ZM18.25 18C18.25 21.9307 20.154 25.1724 22.2408 27.2592C24.3276 29.346 27.5693 31.25 31.5 31.25V15.25C32.1976 15.25 32.7005 15.4233 32.9814 15.5552C33.2631 15.6875 33.4404 15.8314 33.5545 15.9455C33.6686 16.0596 33.8125 16.2369 33.9448 16.5186C34.0767 16.7995 34.25 17.3024 34.25 18H18.25ZM31.5 15.25C27.5693 15.25 24.3276 17.154 22.2408 19.2408C20.154 21.3276 18.25 24.5693 18.25 28.5H34.25C34.25 29.1976 34.0767 29.7005 33.9448 29.9814C33.8125 30.2631 33.6686 30.4404 33.5545 30.5545C33.4404 30.6686 33.2631 30.8125 32.9814 30.9448C32.7005 31.0767 32.1976 31.25 31.5 31.25V15.25Z" fill="#3CA200" mask="url(#path-7-inside-1_11387_8112)"/>
</g>
<g id="Vector_7">
<mask id="path-9-inside-2_11387_8112" fill="white">
<path d="M26.25 28.5C26.25 25.8938 23.6063 23.25 21 23.25C23.6063 23.25 26.25 20.6063 26.25 18C26.25 20.6063 28.8938 23.25 31.5 23.25C28.8938 23.25 26.25 25.8938 26.25 28.5Z"/>
</mask>
<path d="M26.25 28.5C26.25 25.8938 23.6063 23.25 21 23.25C23.6063 23.25 26.25 20.6063 26.25 18C26.25 20.6063 28.8938 23.25 31.5 23.25C28.8938 23.25 26.25 25.8938 26.25 28.5Z" fill="#3CA200"/>
<path d="M34.25 28.5C34.25 24.5693 32.346 21.3276 30.2592 19.2408C28.1724 17.154 24.9307 15.25 21 15.25V31.25C20.3024 31.25 19.7995 31.0767 19.5186 30.9448C19.2369 30.8125 19.0596 30.6686 18.9455 30.5545C18.8314 30.4404 18.6875 30.2631 18.5552 29.9814C18.4233 29.7005 18.25 29.1976 18.25 28.5H34.25ZM21 31.25C24.9307 31.25 28.1724 29.346 30.2592 27.2592C32.346 25.1724 34.25 21.9307 34.25 18H18.25C18.25 17.3024 18.4233 16.7995 18.5552 16.5186C18.6875 16.2369 18.8314 16.0596 18.9455 15.9455C19.0596 15.8314 19.2369 15.6875 19.5186 15.5552C19.7995 15.4233 20.3024 15.25 21 15.25V31.25ZM18.25 18C18.25 21.9307 20.154 25.1724 22.2408 27.2592C24.3276 29.346 27.5693 31.25 31.5 31.25V15.25C32.1976 15.25 32.7005 15.4233 32.9814 15.5552C33.2631 15.6875 33.4404 15.8314 33.5545 15.9455C33.6686 16.0596 33.8125 16.2369 33.9448 16.5186C34.0767 16.7995 34.25 17.3024 34.25 18H18.25ZM31.5 15.25C27.5693 15.25 24.3276 17.154 22.2408 19.2408C20.154 21.3276 18.25 24.5693 18.25 28.5H34.25C34.25 29.1976 34.0767 29.7005 33.9448 29.9814C33.8125 30.2631 33.6686 30.4404 33.5545 30.5545C33.4404 30.6686 33.2631 30.8125 32.9814 30.9448C32.7005 31.0767 32.1976 31.25 31.5 31.25V15.25Z" fill="#3CA200" mask="url(#path-9-inside-2_11387_8112)"/>
</g>
</g>
<g id="Group_5">
<g id="Vector_8">
<mask id="path-11-inside-3_11387_8112" fill="white">
<path d="M32 37.9995C32 34.5275 28.472 30.9995 25 30.9995C28.472 30.9995 32 27.4715 32 23.9995C32 27.4715 35.528 30.9995 39 30.9995C35.528 30.9995 32 34.5275 32 37.9995Z"/>
</mask>
<path d="M32 37.9995C32 34.5275 28.472 30.9995 25 30.9995C28.472 30.9995 32 27.4715 32 23.9995C32 27.4715 35.528 30.9995 39 30.9995C35.528 30.9995 32 34.5275 32 37.9995Z" fill="#3CA200"/>
<path d="M40 37.9995C40 33.6329 37.8723 29.9541 35.4589 27.5407C33.0455 25.1273 29.3666 22.9995 25 22.9995V38.9995C24.5168 38.9995 24.2306 38.8804 24.1551 38.845C24.0786 38.809 24.0938 38.8031 24.1451 38.8544C24.1965 38.9057 24.1905 38.9209 24.1545 38.8444C24.1191 38.7689 24 38.4828 24 37.9995H40ZM25 38.9995C29.3666 38.9995 33.0455 36.8718 35.4589 34.4584C37.8723 32.045 40 28.3662 40 23.9995H24C24 23.5163 24.1191 23.2301 24.1545 23.1546C24.1905 23.0781 24.1965 23.0933 24.1451 23.1447C24.0938 23.196 24.0786 23.19 24.1551 23.1541C24.2306 23.1186 24.5168 22.9995 25 22.9995V38.9995ZM24 23.9995C24 28.3662 26.1277 32.045 28.5411 34.4584C30.9545 36.8718 34.6334 38.9995 39 38.9995V22.9995C39.4832 22.9995 39.7694 23.1186 39.8449 23.1541C39.9214 23.19 39.9062 23.196 39.8549 23.1447C39.8035 23.0933 39.8095 23.0781 39.8455 23.1546C39.8809 23.2301 40 23.5163 40 23.9995H24ZM39 22.9995C34.6334 22.9995 30.9545 25.1273 28.5411 27.5407C26.1277 29.9541 24 33.6329 24 37.9995H40C40 38.4828 39.8809 38.7689 39.8455 38.8444C39.8095 38.9209 39.8035 38.9057 39.8549 38.8544C39.9062 38.8031 39.9214 38.809 39.8449 38.845C39.7694 38.8804 39.4832 38.9995 39 38.9995V22.9995Z" fill="#3CA200" mask="url(#path-11-inside-3_11387_8112)"/>
</g>
<g id="Vector_9">
<mask id="path-13-inside-4_11387_8112" fill="white">
<path d="M32 37.9995C32 34.5275 28.472 30.9995 25 30.9995C28.472 30.9995 32 27.4715 32 23.9995C32 27.4715 35.528 30.9995 39 30.9995C35.528 30.9995 32 34.5275 32 37.9995Z"/>
</mask>
<path d="M32 37.9995C32 34.5275 28.472 30.9995 25 30.9995C28.472 30.9995 32 27.4715 32 23.9995C32 27.4715 35.528 30.9995 39 30.9995C35.528 30.9995 32 34.5275 32 37.9995Z" fill="#3CA200"/>
<path d="M40 37.9995C40 33.6329 37.8723 29.9541 35.4589 27.5407C33.0455 25.1273 29.3666 22.9995 25 22.9995V38.9995C24.5168 38.9995 24.2306 38.8804 24.1551 38.845C24.0786 38.809 24.0938 38.8031 24.1451 38.8544C24.1965 38.9057 24.1905 38.9209 24.1545 38.8444C24.1191 38.7689 24 38.4828 24 37.9995H40ZM25 38.9995C29.3666 38.9995 33.0455 36.8718 35.4589 34.4584C37.8723 32.045 40 28.3662 40 23.9995H24C24 23.5163 24.1191 23.2301 24.1545 23.1546C24.1905 23.0781 24.1965 23.0933 24.1451 23.1447C24.0938 23.196 24.0786 23.19 24.1551 23.1541C24.2306 23.1186 24.5168 22.9995 25 22.9995V38.9995ZM24 23.9995C24 28.3662 26.1277 32.045 28.5411 34.4584C30.9545 36.8718 34.6334 38.9995 39 38.9995V22.9995C39.4832 22.9995 39.7694 23.1186 39.8449 23.1541C39.9214 23.19 39.9062 23.196 39.8549 23.1447C39.8035 23.0933 39.8095 23.0781 39.8455 23.1546C39.8809 23.2301 40 23.5163 40 23.9995H24ZM39 22.9995C34.6334 22.9995 30.9545 25.1273 28.5411 27.5407C26.1277 29.9541 24 33.6329 24 37.9995H40C40 38.4828 39.8809 38.7689 39.8455 38.8444C39.8095 38.9209 39.8035 38.9057 39.8549 38.8544C39.9062 38.8031 39.9214 38.809 39.8449 38.845C39.7694 38.8804 39.4832 38.9995 39 38.9995V22.9995Z" fill="#3CA200" mask="url(#path-13-inside-4_11387_8112)"/>
</g>
</g>
<g id="Group_6">
<g id="Vector_10">
<mask id="path-15-inside-5_11387_8112" fill="white">
<path d="M22.5 37C22.5 35.265 20.735 33.5 19 33.5C20.735 33.5 22.5 31.735 22.5 30C22.5 31.735 24.265 33.5 26 33.5C24.265 33.5 22.5 35.265 22.5 37Z"/>
</mask>
<path d="M22.5 37C22.5 35.265 20.735 33.5 19 33.5C20.735 33.5 22.5 31.735 22.5 30C22.5 31.735 24.265 33.5 26 33.5C24.265 33.5 22.5 35.265 22.5 37Z" fill="#3CA200"/>
<path d="M30.5 37C30.5 33.4998 28.8112 30.6962 27.0575 28.9425C25.3038 27.1888 22.5002 25.5 19 25.5V41.5C17.2348 41.5 16.1812 40.6937 15.7438 40.2562C15.3063 39.8188 14.5 38.7652 14.5 37H30.5ZM19 41.5C22.5002 41.5 25.3038 39.8112 27.0575 38.0575C28.8112 36.3038 30.5 33.5002 30.5 30H14.5C14.5 28.2348 15.3063 27.1812 15.7438 26.7438C16.1812 26.3063 17.2348 25.5 19 25.5V41.5ZM14.5 30C14.5 33.5002 16.1888 36.3038 17.9425 38.0575C19.6962 39.8112 22.4998 41.5 26 41.5V25.5C27.7652 25.5 28.8188 26.3063 29.2562 26.7438C29.6937 27.1812 30.5 28.2348 30.5 30H14.5ZM26 25.5C22.4998 25.5 19.6962 27.1888 17.9425 28.9425C16.1888 30.6962 14.5 33.4998 14.5 37H30.5C30.5 38.7652 29.6937 39.8188 29.2562 40.2562C28.8188 40.6937 27.7652 41.5 26 41.5V25.5Z" fill="#3CA200" mask="url(#path-15-inside-5_11387_8112)"/>
</g>
</g>
</g>
</g>
</svg>
