<svg width="35" height="35" viewBox="0 0 35 35" fill="none" xmlns="http://www.w3.org/2000/svg">
<g id="Aicon">
<circle id="Ellipse 8" cx="17.5" cy="17.5" r="17.5" fill="white"/>
<g id="Group">
<g id="Vector">
<mask id="path-2-inside-1_11387_8690" fill="white">
<path d="M14.25 18.5C14.25 15.8938 11.6063 13.25 9 13.25C11.6063 13.25 14.25 10.6063 14.25 8C14.25 10.6063 16.8938 13.25 19.5 13.25C16.8938 13.25 14.25 15.8938 14.25 18.5Z"/>
</mask>
<path d="M14.25 18.5C14.25 15.8938 11.6063 13.25 9 13.25C11.6063 13.25 14.25 10.6063 14.25 8C14.25 10.6063 16.8938 13.25 19.5 13.25C16.8938 13.25 14.25 15.8938 14.25 18.5Z" fill="#3CA200"/>
<path d="M22.25 18.5C22.25 14.5693 20.346 11.3276 18.2592 9.2408C16.1724 7.15396 12.9307 5.25 9 5.25V21.25C8.30242 21.25 7.79946 21.0767 7.5186 20.9448C7.23689 20.8125 7.05963 20.6686 6.94549 20.5545C6.83135 20.4404 6.68754 20.2631 6.55522 19.9814C6.4233 19.7005 6.25 19.1976 6.25 18.5H22.25ZM9 21.25C12.9307 21.25 16.1724 19.346 18.2592 17.2592C20.346 15.1724 22.25 11.9307 22.25 8H6.25C6.25 7.30242 6.4233 6.79946 6.55522 6.5186C6.68754 6.23689 6.83135 6.05963 6.94549 5.94549C7.05963 5.83135 7.23689 5.68754 7.5186 5.55522C7.79946 5.4233 8.30242 5.25 9 5.25V21.25ZM6.25 8C6.25 11.9307 8.15396 15.1724 10.2408 17.2592C12.3276 19.346 15.5693 21.25 19.5 21.25V5.25C20.1976 5.25 20.7005 5.4233 20.9814 5.55522C21.2631 5.68754 21.4404 5.83135 21.5545 5.94549C21.6686 6.05963 21.8125 6.23689 21.9448 6.5186C22.0767 6.79946 22.25 7.30242 22.25 8H6.25ZM19.5 5.25C15.5693 5.25 12.3276 7.15396 10.2408 9.2408C8.15396 11.3276 6.25 14.5693 6.25 18.5H22.25C22.25 19.1976 22.0767 19.7005 21.9448 19.9814C21.8125 20.2631 21.6686 20.4404 21.5545 20.5545C21.4404 20.6686 21.2631 20.8125 20.9814 20.9448C20.7005 21.0767 20.1976 21.25 19.5 21.25V5.25Z" fill="#3CA200" mask="url(#path-2-inside-1_11387_8690)"/>
</g>
<g id="Vector_2">
<mask id="path-4-inside-2_11387_8690" fill="white">
<path d="M14.25 18.5C14.25 15.8938 11.6063 13.25 9 13.25C11.6063 13.25 14.25 10.6063 14.25 8C14.25 10.6063 16.8938 13.25 19.5 13.25C16.8938 13.25 14.25 15.8938 14.25 18.5Z"/>
</mask>
<path d="M14.25 18.5C14.25 15.8938 11.6063 13.25 9 13.25C11.6063 13.25 14.25 10.6063 14.25 8C14.25 10.6063 16.8938 13.25 19.5 13.25C16.8938 13.25 14.25 15.8938 14.25 18.5Z" fill="#3CA200"/>
<path d="M22.25 18.5C22.25 14.5693 20.346 11.3276 18.2592 9.2408C16.1724 7.15396 12.9307 5.25 9 5.25V21.25C8.30242 21.25 7.79946 21.0767 7.5186 20.9448C7.23689 20.8125 7.05963 20.6686 6.94549 20.5545C6.83135 20.4404 6.68754 20.2631 6.55522 19.9814C6.4233 19.7005 6.25 19.1976 6.25 18.5H22.25ZM9 21.25C12.9307 21.25 16.1724 19.346 18.2592 17.2592C20.346 15.1724 22.25 11.9307 22.25 8H6.25C6.25 7.30242 6.4233 6.79946 6.55522 6.5186C6.68754 6.23689 6.83135 6.05963 6.94549 5.94549C7.05963 5.83135 7.23689 5.68754 7.5186 5.55522C7.79946 5.4233 8.30242 5.25 9 5.25V21.25ZM6.25 8C6.25 11.9307 8.15396 15.1724 10.2408 17.2592C12.3276 19.346 15.5693 21.25 19.5 21.25V5.25C20.1976 5.25 20.7005 5.4233 20.9814 5.55522C21.2631 5.68754 21.4404 5.83135 21.5545 5.94549C21.6686 6.05963 21.8125 6.23689 21.9448 6.5186C22.0767 6.79946 22.25 7.30242 22.25 8H6.25ZM19.5 5.25C15.5693 5.25 12.3276 7.15396 10.2408 9.2408C8.15396 11.3276 6.25 14.5693 6.25 18.5H22.25C22.25 19.1976 22.0767 19.7005 21.9448 19.9814C21.8125 20.2631 21.6686 20.4404 21.5545 20.5545C21.4404 20.6686 21.2631 20.8125 20.9814 20.9448C20.7005 21.0767 20.1976 21.25 19.5 21.25V5.25Z" fill="#3CA200" mask="url(#path-4-inside-2_11387_8690)"/>
</g>
</g>
<g id="Group_2">
<g id="Vector_3">
<mask id="path-6-inside-3_11387_8690" fill="white">
<path d="M20 27.9995C20 24.5275 16.472 20.9995 13 20.9995C16.472 20.9995 20 17.4715 20 13.9995C20 17.4715 23.528 20.9995 27 20.9995C23.528 20.9995 20 24.5275 20 27.9995Z"/>
</mask>
<path d="M20 27.9995C20 24.5275 16.472 20.9995 13 20.9995C16.472 20.9995 20 17.4715 20 13.9995C20 17.4715 23.528 20.9995 27 20.9995C23.528 20.9995 20 24.5275 20 27.9995Z" fill="#3CA200"/>
<path d="M28 27.9995C28 23.6329 25.8723 19.9541 23.4589 17.5407C21.0455 15.1273 17.3666 12.9995 13 12.9995V28.9995C12.5168 28.9995 12.2306 28.8804 12.1551 28.845C12.0786 28.809 12.0938 28.8031 12.1451 28.8544C12.1965 28.9057 12.1905 28.9209 12.1545 28.8444C12.1191 28.7689 12 28.4828 12 27.9995H28ZM13 28.9995C17.3666 28.9995 21.0455 26.8718 23.4589 24.4584C25.8723 22.045 28 18.3662 28 13.9995H12C12 13.5163 12.1191 13.2301 12.1545 13.1546C12.1905 13.0781 12.1965 13.0933 12.1451 13.1447C12.0938 13.196 12.0786 13.19 12.1551 13.1541C12.2306 13.1186 12.5168 12.9995 13 12.9995V28.9995ZM12 13.9995C12 18.3662 14.1277 22.045 16.5411 24.4584C18.9545 26.8718 22.6334 28.9995 27 28.9995V12.9995C27.4832 12.9995 27.7694 13.1186 27.8449 13.1541C27.9214 13.19 27.9062 13.196 27.8549 13.1447C27.8035 13.0933 27.8095 13.0781 27.8455 13.1546C27.8809 13.2301 28 13.5163 28 13.9995H12ZM27 12.9995C22.6334 12.9995 18.9545 15.1273 16.5411 17.5407C14.1277 19.9541 12 23.6329 12 27.9995H28C28 28.4828 27.8809 28.7689 27.8455 28.8444C27.8095 28.9209 27.8035 28.9057 27.8549 28.8544C27.9062 28.8031 27.9214 28.809 27.8449 28.845C27.7694 28.8804 27.4832 28.9995 27 28.9995V12.9995Z" fill="#3CA200" mask="url(#path-6-inside-3_11387_8690)"/>
</g>
<g id="Vector_4">
<mask id="path-8-inside-4_11387_8690" fill="white">
<path d="M20 27.9995C20 24.5275 16.472 20.9995 13 20.9995C16.472 20.9995 20 17.4715 20 13.9995C20 17.4715 23.528 20.9995 27 20.9995C23.528 20.9995 20 24.5275 20 27.9995Z"/>
</mask>
<path d="M20 27.9995C20 24.5275 16.472 20.9995 13 20.9995C16.472 20.9995 20 17.4715 20 13.9995C20 17.4715 23.528 20.9995 27 20.9995C23.528 20.9995 20 24.5275 20 27.9995Z" fill="#3CA200"/>
<path d="M28 27.9995C28 23.6329 25.8723 19.9541 23.4589 17.5407C21.0455 15.1273 17.3666 12.9995 13 12.9995V28.9995C12.5168 28.9995 12.2306 28.8804 12.1551 28.845C12.0786 28.809 12.0938 28.8031 12.1451 28.8544C12.1965 28.9057 12.1905 28.9209 12.1545 28.8444C12.1191 28.7689 12 28.4828 12 27.9995H28ZM13 28.9995C17.3666 28.9995 21.0455 26.8718 23.4589 24.4584C25.8723 22.045 28 18.3662 28 13.9995H12C12 13.5163 12.1191 13.2301 12.1545 13.1546C12.1905 13.0781 12.1965 13.0933 12.1451 13.1447C12.0938 13.196 12.0786 13.19 12.1551 13.1541C12.2306 13.1186 12.5168 12.9995 13 12.9995V28.9995ZM12 13.9995C12 18.3662 14.1277 22.045 16.5411 24.4584C18.9545 26.8718 22.6334 28.9995 27 28.9995V12.9995C27.4832 12.9995 27.7694 13.1186 27.8449 13.1541C27.9214 13.19 27.9062 13.196 27.8549 13.1447C27.8035 13.0933 27.8095 13.0781 27.8455 13.1546C27.8809 13.2301 28 13.5163 28 13.9995H12ZM27 12.9995C22.6334 12.9995 18.9545 15.1273 16.5411 17.5407C14.1277 19.9541 12 23.6329 12 27.9995H28C28 28.4828 27.8809 28.7689 27.8455 28.8444C27.8095 28.9209 27.8035 28.9057 27.8549 28.8544C27.9062 28.8031 27.9214 28.809 27.8449 28.845C27.7694 28.8804 27.4832 28.9995 27 28.9995V12.9995Z" fill="#3CA200" mask="url(#path-8-inside-4_11387_8690)"/>
</g>
</g>
<g id="Group_3">
<g id="Vector_5">
<mask id="path-10-inside-5_11387_8690" fill="white">
<path d="M10.5 27C10.5 25.265 8.735 23.5 7 23.5C8.735 23.5 10.5 21.735 10.5 20C10.5 21.735 12.265 23.5 14 23.5C12.265 23.5 10.5 25.265 10.5 27Z"/>
</mask>
<path d="M10.5 27C10.5 25.265 8.735 23.5 7 23.5C8.735 23.5 10.5 21.735 10.5 20C10.5 21.735 12.265 23.5 14 23.5C12.265 23.5 10.5 25.265 10.5 27Z" fill="#3CA200"/>
<path d="M18.5 27C18.5 23.4998 16.8112 20.6962 15.0575 18.9425C13.3038 17.1888 10.5002 15.5 7 15.5V31.5C5.2348 31.5 4.18123 30.6937 3.74377 30.2562C3.30632 29.8188 2.5 28.7652 2.5 27H18.5ZM7 31.5C10.5002 31.5 13.3038 29.8112 15.0575 28.0575C16.8112 26.3038 18.5 23.5002 18.5 20H2.5C2.5 18.2348 3.30632 17.1812 3.74377 16.7438C4.18123 16.3063 5.2348 15.5 7 15.5V31.5ZM2.5 20C2.5 23.5002 4.18882 26.3038 5.94252 28.0575C7.69623 29.8112 10.4998 31.5 14 31.5V15.5C15.7652 15.5 16.8188 16.3063 17.2562 16.7438C17.6937 17.1812 18.5 18.2348 18.5 20H2.5ZM14 15.5C10.4998 15.5 7.69623 17.1888 5.94252 18.9425C4.18882 20.6962 2.5 23.4998 2.5 27H18.5C18.5 28.7652 17.6937 29.8188 17.2562 30.2562C16.8188 30.6937 15.7652 31.5 14 31.5V15.5Z" fill="#3CA200" mask="url(#path-10-inside-5_11387_8690)"/>
</g>
</g>
</g>
</svg>
