<svg width="35" height="35" viewBox="0 0 35 35" fill="none" xmlns="http://www.w3.org/2000/svg">
<g id="Aicon">
<circle id="Ellipse 8" cx="17.5" cy="17.5" r="17" fill="#3CA200" stroke="#3CA200"/>
<g id="Group">
<path id="Vector" d="M14.25 18.5C14.25 15.8938 11.6063 13.25 9 13.25C11.6063 13.25 14.25 10.6063 14.25 8C14.25 10.6063 16.8938 13.25 19.5 13.25C16.8938 13.25 14.25 15.8938 14.25 18.5Z" fill="white"/>
<path id="Vector_2" d="M14.25 18.5C14.25 15.8938 11.6063 13.25 9 13.25C11.6063 13.25 14.25 10.6063 14.25 8C14.25 10.6063 16.8938 13.25 19.5 13.25C16.8938 13.25 14.25 15.8938 14.25 18.5Z" fill="white"/>
</g>
<g id="Group_2">
<path id="Vector_3" d="M20 27.9995C20 24.5275 16.472 20.9995 13 20.9995C16.472 20.9995 20 17.4715 20 13.9995C20 17.4715 23.528 20.9995 27 20.9995C23.528 20.9995 20 24.5275 20 27.9995Z" fill="white"/>
<path id="Vector_4" d="M20 27.9995C20 24.5275 16.472 20.9995 13 20.9995C16.472 20.9995 20 17.4715 20 13.9995C20 17.4715 23.528 20.9995 27 20.9995C23.528 20.9995 20 24.5275 20 27.9995Z" fill="white"/>
</g>
<g id="Group_3">
<path id="Vector_5" d="M10.5 27C10.5 25.265 8.735 23.5 7 23.5C8.735 23.5 10.5 21.735 10.5 20C10.5 21.735 12.265 23.5 14 23.5C12.265 23.5 10.5 25.265 10.5 27Z" fill="white"/>
</g>
</g>
</svg>
