<svg width="70" height="70" viewBox="0 0 70 70" fill="none" xmlns="http://www.w3.org/2000/svg">
<g id="call icon">
<ellipse id="bg" opacity="0.3" cx="35" cy="34.9999" rx="35" ry="34.9999" fill="#FFB400"/>
<ellipse id="bg_2" cx="35" cy="35" rx="25" ry="25" fill="#FFB400"/>
<path id="&#239;&#130;&#149;" d="M44.9853 40.1135L44.0858 44.0618C43.9033 44.6612 43.4991 44.9739 42.8734 45C39.562 44.9739 36.5636 44.153 33.878 42.5372C31.1925 40.9475 29.0544 38.8104 27.4639 36.1261C25.8474 33.4418 25.0261 30.4448 25 27.135C25.0261 26.5095 25.339 26.1056 25.9386 25.9232L29.8888 25.0241C30.5145 24.9198 30.9839 25.1544 31.2967 25.7277L33.0958 29.9496C33.3044 30.523 33.1871 31.0051 32.7438 31.396L30.671 33.077C31.3228 34.4321 32.1832 35.644 33.2523 36.7125C34.3213 37.781 35.5337 38.6541 36.8895 39.3317L38.6104 37.2207C39.0015 36.7777 39.4838 36.6604 40.0574 36.8689L44.2813 38.6671C44.8289 39.0059 45.0636 39.488 44.9853 40.1135Z" fill="white"/>
</g>
</svg>
