<svg width="25" height="25" viewBox="0 0 25 25" fill="none" xmlns="http://www.w3.org/2000/svg">
<g id="Icon">
<path id="Vector" d="M18.8394 16.3516C18.6222 16.1331 18.3642 15.9597 18.08 15.8414C17.7958 15.7231 17.4911 15.6623 17.1834 15.6623C16.8757 15.6623 16.5711 15.7231 16.2869 15.8414C16.0027 15.9597 15.7446 16.1331 15.5274 16.3516L14.3974 17.4844C13.1251 16.6749 11.9464 15.7264 10.8828 14.6563C9.81755 13.588 8.87161 12.4065 8.06168 11.1328L9.19167 10C9.40963 9.78229 9.58256 9.52356 9.70056 9.23867C9.81856 8.95379 9.8793 8.64835 9.8793 8.33988C9.8793 8.03141 9.81856 7.72597 9.70056 7.44109C9.58256 7.1562 9.40963 6.89747 9.19167 6.67972L6.98624 4.4766C6.77211 4.25738 6.5162 4.08355 6.23372 3.96544C5.95125 3.84734 5.64797 3.78737 5.34191 3.7891C5.03368 3.78834 4.72835 3.84869 4.44347 3.96668C4.1586 4.08467 3.89981 4.25797 3.682 4.4766L2.62214 5.53129C2.11698 6.07579 1.73995 6.72687 1.51878 7.43666C1.29761 8.14644 1.23791 8.89689 1.34408 9.63285C1.59346 12.5625 3.51055 16.086 6.46411 19.0547C9.41767 22.0235 12.9713 23.9375 15.8937 24.2188C16.1117 24.2305 16.3302 24.2305 16.5483 24.2188C17.1774 24.2453 17.8054 24.1456 18.3955 23.9256C18.9857 23.7055 19.5261 23.3696 19.985 22.9375L21.0371 21.875C21.2552 21.6567 21.428 21.3972 21.5457 21.1117C21.6634 20.8261 21.7236 20.52 21.7229 20.211C21.7246 19.9042 21.6648 19.6001 21.547 19.3169C21.4292 19.0338 21.2558 18.7772 21.0371 18.5625L18.8394 16.3516ZM19.9383 20.7735L18.8784 21.8282C18.4865 22.1556 18.0291 22.3948 17.537 22.5295C17.0449 22.6643 16.5297 22.6916 16.0262 22.6094C13.4934 22.3907 10.2671 20.5938 7.60189 17.9219C4.93667 15.25 3.14428 12.0391 2.90269 9.50004C2.81865 8.99528 2.8448 8.47826 2.97934 7.98462C3.11388 7.49097 3.35361 7.03245 3.682 6.64066L4.78081 5.57816C4.85363 5.50575 4.93999 5.44847 5.03494 5.40959C5.12989 5.37071 5.23156 5.351 5.33412 5.3516C5.43668 5.351 5.53835 5.37071 5.6333 5.40959C5.72825 5.44847 5.81461 5.50575 5.88742 5.57816L8.09285 7.81254C8.238 7.95891 8.31947 8.15692 8.31947 8.36332C8.31947 8.56971 8.238 8.76772 8.09285 8.9141L6.53425 10.4766C6.41228 10.5983 6.33391 10.757 6.31136 10.928C6.2888 11.099 6.32333 11.2726 6.40956 11.4219C7.34269 13.0145 8.47684 14.4797 9.78394 15.7813C11.0823 17.0917 12.5439 18.2286 14.1325 19.1641C14.2813 19.2505 14.4546 19.2852 14.6252 19.2625C14.7957 19.2399 14.9541 19.1614 15.0754 19.0391L16.634 17.4766C16.78 17.3311 16.9775 17.2494 17.1834 17.2494C17.3893 17.2494 17.5868 17.3311 17.7328 17.4766L19.9383 19.6875C20.0105 19.7605 20.0676 19.8471 20.1064 19.9423C20.1452 20.0375 20.1649 20.1394 20.1643 20.2422C20.1594 20.4417 20.0785 20.6318 19.9383 20.7735Z" fill="#16171A"/>
<path id="Vector_2" d="M21.2938 4.21096C20.2108 3.12109 18.9233 2.25693 17.5055 1.66829C16.0877 1.07965 14.5678 0.778186 13.0332 0.781273C12.8265 0.781273 12.6283 0.863583 12.4822 1.0101C12.336 1.15661 12.2539 1.35532 12.2539 1.56252C12.2539 1.76972 12.336 1.96844 12.4822 2.11495C12.6283 2.26146 12.8265 2.34377 13.0332 2.34377C14.3709 2.34373 15.6953 2.60925 16.9301 3.12501C18.1648 3.64077 19.2855 4.39657 20.2273 5.34879C21.1692 6.30101 21.9137 7.43079 22.4177 8.67294C22.9218 9.91509 23.1755 11.245 23.1642 12.586C23.1642 12.7932 23.2463 12.9919 23.3924 13.1384C23.5386 13.2849 23.7368 13.3672 23.9435 13.3672C24.1501 13.3672 24.3484 13.2849 24.4945 13.1384C24.6407 12.9919 24.7228 12.7932 24.7228 12.586C24.7377 11.0312 24.442 9.48922 23.8531 8.05085C23.2642 6.61249 22.394 5.30687 21.2938 4.21096Z" fill="#16171A"/>
<path id="Vector_3" d="M16.8599 8.67969C17.3022 9.12038 17.6521 9.64531 17.889 10.2236C18.1259 10.8018 18.245 11.4218 18.2393 12.0469C18.2393 12.2541 18.3214 12.4528 18.4676 12.5993C18.6137 12.7458 18.8119 12.8281 19.0186 12.8281C19.2253 12.8281 19.4235 12.7458 19.5697 12.5993C19.7158 12.4528 19.7979 12.2541 19.7979 12.0469C19.8082 11.2196 19.6546 10.3984 19.3459 9.6311C19.0372 8.86378 18.5796 8.16553 17.9997 7.57687C17.4197 6.9882 16.729 6.52083 15.9674 6.20186C15.2059 5.8829 14.3888 5.71869 13.5635 5.71875C13.3568 5.71875 13.1586 5.80106 13.0124 5.94757C12.8663 6.09409 12.7842 6.2928 12.7842 6.5C12.7842 6.7072 12.8663 6.90591 13.0124 7.05243C13.1586 7.19894 13.3568 7.28125 13.5635 7.28125C14.1776 7.28589 14.7849 7.41178 15.3505 7.65172C15.9161 7.89167 16.429 8.24098 16.8599 8.67969Z" fill="#16171A"/>
</g>
</svg>
