<svg width="53" height="52" viewBox="0 0 53 52" fill="none" xmlns="http://www.w3.org/2000/svg">
<g id="Icon">
<path id="Vector" d="M51.035 4.73415V4.76887C50.1218 4.9776 49.286 5.43854 48.6235 6.09889C47.9611 6.75943 47.4987 7.59262 47.2894 8.50302H47.2545C47.045 7.59273 46.5825 6.75968 45.92 6.09928C45.2576 5.43887 44.422 4.9778 43.5089 4.76887V4.73415C44.4221 4.52542 45.2578 4.06448 45.9204 3.40413C46.5828 2.74359 47.0452 1.9104 47.2545 1H47.2894C47.4987 1.9104 47.9611 2.7436 48.6235 3.40413C49.286 4.06449 50.1218 4.52544 51.035 4.73415ZM7.07076 6.10943V6.12421C6.6824 6.21297 6.32697 6.40901 6.04519 6.68984C5.76349 6.97075 5.56686 7.32509 5.47782 7.71226H5.463C5.37387 7.32515 5.17719 6.97089 4.89548 6.69004C4.61377 6.4092 4.25842 6.21312 3.87012 6.12427V6.10949C4.25848 6.02072 4.61391 5.82469 4.89568 5.54386C5.17739 5.26294 5.37402 4.90861 5.46306 4.52143H5.47788C5.56692 4.90861 5.76356 5.26294 6.04526 5.54386C6.32702 5.82466 6.68242 6.02067 7.07076 6.10943ZM27.5354 26.8532H18.8969C18.4689 26.8532 18.1219 27.1991 18.1219 27.6258V41.4542H28.3103V27.6257C28.3104 27.1991 27.9634 26.8532 27.5354 26.8532Z" stroke="black" stroke-width="1.5" stroke-miterlimit="10"/>
<path id="Vector_2" d="M23.2165 21.0885C24.6974 21.0885 25.8979 19.8917 25.8979 18.4153C25.8979 16.939 24.6974 15.7422 23.2165 15.7422C21.7356 15.7422 20.5352 16.939 20.5352 18.4153C20.5352 19.8917 21.7356 21.0885 23.2165 21.0885Z" stroke="black" stroke-width="1.5" stroke-miterlimit="10"/>
<path id="Vector_3" d="M37.565 13.7231V18.4312L30.9442 13.1514H30.9437L23.2154 6.98828L15.4878 13.1514H15.4872L6.97906 19.9374H6.9785V19.9386L4.5152 21.903L2 19.1997L6.97906 15.2294L9.58381 13.1514L23.216 2.28027L36.8483 13.1514L37.565 13.7231Z" stroke="black" stroke-width="1.5" stroke-miterlimit="10"/>
<path id="Vector_4" d="M6.97852 19.9375H6.97904V19.938L6.97852 19.9386V19.9375Z" stroke="black" stroke-width="1.5" stroke-miterlimit="10"/>
<path id="Vector_5" d="M37.565 18.4318V32.099H35.3416C35.0981 32.099 34.8618 32.1804 34.6703 32.3302C34.4788 32.48 34.3432 32.6896 34.2853 32.9253L33.6457 35.5208C33.6457 35.5208 33.1779 38.4691 31.5368 41.4543H6.97852V19.9387L6.97914 19.9381V19.9374L15.4873 13.1514H15.4879L23.2155 6.98828L30.9438 13.1514H30.9444L37.565 18.4318Z" stroke="black" stroke-width="1.5" stroke-miterlimit="10"/>
<path id="Vector_6" d="M23.2164 41.4542V26.8532M45.3248 35.5207H33.6456M45.3248 35.5207L44.6946 32.9282C44.5765 32.4415 44.1397 32.0989 43.6372 32.0989H35.3415C35.0981 32.0989 34.8617 32.1803 34.6702 32.3301C34.4787 32.4799 34.3432 32.6895 34.2853 32.9252L33.6456 35.5207M45.3248 35.5207C45.3248 35.5207 47.2874 41.9896 50.9841 45.1318C48.0984 48.3508 42.2266 50.3777 37.5548 50.3777C37.3245 50.3777 37.0953 50.3729 36.8668 50.3628C37.3644 47.822 37.0733 45.3281 37.0733 45.3281C36.529 47.957 35.2181 50.2057 35.2181 50.2057C32.0828 49.7417 29.249 48.3568 27.0017 46.3354C29.0688 45.1479 30.5254 43.2942 31.5368 41.4542C33.1779 38.469 33.6456 35.5207 33.6456 35.5207M6.97908 19.9373V19.9379L6.97852 19.9385V19.9373H6.97908ZM37.565 10.5225H41.4162V32.0988H37.565V10.5225Z" stroke="black" stroke-width="1.5" stroke-miterlimit="10"/>
<path id="Vector_7" d="M36.8637 50.3775C36.8646 50.3725 36.8659 50.3675 36.8667 50.3625C37.364 47.8218 37.0731 45.3279 37.0731 45.3279C36.5289 47.957 35.2178 50.2056 35.2178 50.2056M42.1197 49.7946C42.1197 49.7946 42.1382 46.7886 41.0498 43.7421M47.3758 47.8598C46.8747 47.0565 45.7215 45.1522 44.9847 43.4917" stroke="black" stroke-width="1.5" stroke-miterlimit="10"/>
<path id="Vector_8" d="M51.2232 24.7916C51.6522 24.7916 52 24.4449 52 24.0172C52 23.5894 51.6522 23.2427 51.2232 23.2427C50.7941 23.2427 50.4463 23.5894 50.4463 24.0172C50.4463 24.4449 50.7941 24.7916 51.2232 24.7916Z" stroke="black" stroke-width="1.5" stroke-miterlimit="10"/>
<path id="Vector_9" d="M10.6002 50.9998C11.6097 50.9998 12.428 50.184 12.428 49.1776C12.428 48.1713 11.6097 47.3555 10.6002 47.3555C9.59078 47.3555 8.77246 48.1713 8.77246 49.1776C8.77246 50.184 9.59078 50.9998 10.6002 50.9998Z" stroke="black" stroke-width="1.5" stroke-miterlimit="10"/>
</g>
</svg>
