<svg width="48" height="49" viewBox="0 0 48 49" fill="none" xmlns="http://www.w3.org/2000/svg">
<g id="Icon">
<g id="Layer 32">
<path id="Vector" d="M3.85234 26.8049L3.0625 28.3761C1.42172 31.6675 0.566037 35.2938 0.5625 38.9708C0.562979 41.1235 0.715965 43.2734 1.02031 45.4046C1.14235 46.2323 1.55738 46.989 2.19009 47.5372C2.8228 48.0854 3.63126 48.3888 4.46875 48.3924H11.5C12.3288 48.3924 13.1237 48.0634 13.7097 47.4779C14.2958 46.8924 14.625 46.0983 14.625 45.2703H40.0828L42.3312 47.5166C42.609 47.7941 42.9387 48.0142 43.3015 48.1643C43.6644 48.3145 44.0533 48.3918 44.4461 48.3918C44.8389 48.3918 45.2278 48.3145 45.5906 48.1643C45.9535 48.0142 46.2832 47.7941 46.5609 47.5166C46.8387 47.2392 47.059 46.9098 47.2093 46.5472C47.3596 46.1847 47.4369 45.7962 47.4369 45.4038C47.4369 45.0114 47.3596 44.6228 47.2093 44.2603C47.059 43.8978 46.8387 43.5684 46.5609 43.2909L44.3125 41.0446V0.781002C44.3125 0.573997 44.2302 0.37547 44.0837 0.229096C43.9372 0.0827207 43.7384 0.000488281 43.5312 0.000488281H7.59375C7.38655 0.000488281 7.18784 0.0827207 7.04132 0.229096C6.89481 0.37547 6.8125 0.573997 6.8125 0.781002V17.1718H5.34453C4.86226 17.1718 4.3908 17.3146 3.9898 17.5823C3.58879 17.8499 3.27624 18.2304 3.09168 18.6755C2.90711 19.1207 2.85883 19.6105 2.95292 20.0831C3.04702 20.5556 3.27927 20.9897 3.62031 21.3304L5.20234 22.9117L4.81172 25.6544C4.40797 25.9595 4.07974 26.3531 3.85234 26.8049ZM4.46328 29.0746L5.25 27.5027C5.39422 27.2121 5.61705 26.9677 5.89322 26.7972C6.16939 26.6267 6.48785 26.5369 6.8125 26.538H9.29688C9.46672 26.5382 9.62954 26.6057 9.74964 26.7257C9.86973 26.8456 9.93729 27.0083 9.9375 27.178C9.93768 27.2199 9.93349 27.2618 9.925 27.3029L9.21016 30.8729C9.08261 31.5125 9.18307 32.1765 9.49414 32.7499C9.8052 33.3233 10.3073 33.7698 10.9133 34.0122L12.1023 34.4883C12.3864 34.6004 12.6299 34.7955 12.8012 35.0481C12.9725 35.3007 13.0636 35.599 13.0625 35.9041H2.35C2.6813 33.5287 3.39494 31.2224 4.46328 29.0746ZM16.7844 18.7328L17.75 19.2152V19.8115L16.7844 20.2939H16.1875V18.7328H16.7844ZM13.1023 21.8549C13.2351 23.3248 13.761 24.732 14.625 25.9292C13.0821 25.2524 11.8248 24.0576 11.0711 22.5519L12.4656 21.8549H13.1023ZM10.1469 24.0458C10.8241 25.1081 11.7226 26.012 12.7812 26.6959C13.8399 27.3797 15.0337 27.8274 16.2812 28.0085L16.8586 28.0912C16.8951 28.0965 16.9319 28.0991 16.9687 28.099C17.1232 28.099 17.2743 28.0532 17.4027 27.9674C17.5311 27.8816 17.6313 27.7597 17.6904 27.6171C17.7495 27.4745 17.765 27.3176 17.7348 27.1663C17.7047 27.0149 17.6303 26.8758 17.5211 26.7667L16.6062 25.8527C15.5263 24.7781 14.8448 23.3681 14.6742 21.8549H16.9687C17.0899 21.855 17.2095 21.8269 17.318 21.7729L18.8805 20.9924C19.0103 20.9276 19.1196 20.8279 19.1959 20.7045C19.2722 20.5811 19.3126 20.4389 19.3125 20.2939V18.7328C19.3126 18.5878 19.2722 18.4456 19.1959 18.3222C19.1196 18.1988 19.0103 18.0991 18.8805 18.0343L17.318 17.2538C17.2095 17.1997 17.0899 17.1717 16.9687 17.1718H11.5V15.9339L17.5211 9.91848L16.4164 8.81483L11.5 13.7266V4.68357H20.5516L17.9789 7.25381L19.0836 8.35745L22.7609 4.68357H39.625V10.6046L33.6039 16.62L34.7086 17.7236L39.625 12.8118V36.3615L34.4797 31.2211L34.7086 30.9924C34.8551 30.846 34.9373 30.6475 34.9373 30.4405C34.9373 30.2336 34.8551 30.0351 34.7086 29.8887L33.3078 28.4893L36.5 25.3001C37.0002 24.8004 37.2811 24.1226 37.2811 23.4159C37.2811 22.7092 37.0002 22.0315 36.5 21.5317L35.4898 20.5225C35.3433 20.3762 35.1447 20.294 34.9375 20.294C34.7303 20.294 34.5317 20.3762 34.3852 20.5225L33.7656 21.1415L32.3648 19.742C32.2183 19.5957 32.0197 19.5135 31.8125 19.5135C31.6053 19.5135 31.4067 19.5957 31.2602 19.742L18.7602 32.2303C18.6137 32.3766 18.5314 32.5751 18.5314 32.7821C18.5314 32.989 18.6137 33.1875 18.7602 33.3339L20.1609 34.7334L19.5414 35.3523C19.3949 35.4987 19.3127 35.6972 19.3127 35.9041C19.3127 36.1111 19.3949 36.3096 19.5414 36.456L20.5516 37.4652C21.0518 37.9649 21.7301 38.2456 22.4375 38.2456C23.1449 38.2456 23.8232 37.9649 24.3234 37.4652L27.5156 34.276L28.9164 35.6754C29.0629 35.8218 29.2616 35.904 29.4687 35.904C29.6759 35.904 29.8746 35.8218 30.0211 35.6754L30.25 35.4468L35.3953 40.5872H14.625V35.9041C14.6269 35.287 14.4427 34.6836 14.0964 34.1725C13.7502 33.6614 13.2578 33.2664 12.6836 33.0389L11.493 32.5628C11.2639 32.4722 11.0674 32.3147 10.9293 32.1108C10.7912 31.907 10.7178 31.6662 10.7187 31.4201C10.7187 31.3391 10.7266 31.2583 10.7422 31.1789L11.4578 27.6088C11.4859 27.4669 11.5 27.3226 11.5 27.178C11.4986 26.7779 11.3877 26.3858 11.1794 26.0441C10.971 25.7023 10.6732 25.424 10.318 25.2392L10.1469 24.0458ZM29.4687 34.02L28.6203 33.1723L32.2031 29.5929L33.0516 30.4405L29.4687 34.02ZM20.4172 32.7821L31.8125 21.3975L32.6609 22.2451L21.2656 33.6297L20.4172 32.7821ZM34.9375 22.178L35.3953 22.6354C35.6024 22.8425 35.7187 23.1232 35.7187 23.4159C35.7187 23.7086 35.6024 23.9893 35.3953 24.1964L23.2187 36.3615C23.0068 36.5593 22.7275 36.6693 22.4375 36.6693C22.1474 36.6693 21.8682 36.5593 21.6562 36.3615L21.1984 35.9041L34.9375 22.178ZM2.125 38.9708C2.125 38.4681 2.14766 37.9663 2.18281 37.4652H13.0625V42.1482H2.24141C2.16443 41.0908 2.1256 40.031 2.125 38.9708ZM11.5 46.8313H4.46875C4.00688 46.8292 3.56104 46.6618 3.21205 46.3596C2.86307 46.0573 2.63401 45.6401 2.56641 45.1837C2.49714 44.694 2.43594 44.2026 2.38281 43.7093H13.0625V45.2703C13.0625 45.6843 12.8979 46.0814 12.6049 46.3741C12.3118 46.6669 11.9144 46.8313 11.5 46.8313ZM14.625 43.7093V42.1482H36.9578L38.5203 43.7093H14.625ZM45.875 45.4038C45.8749 45.6861 45.791 45.962 45.634 46.1966C45.477 46.4313 45.2539 46.6142 44.9928 46.7222C44.7318 46.8302 44.4446 46.8585 44.1674 46.8035C43.8903 46.7484 43.6358 46.6125 43.4359 46.413L31.3547 34.3431L33.375 32.3247L45.4562 44.3946C45.5894 44.5267 45.695 44.684 45.7669 44.8572C45.8387 45.0305 45.8755 45.2162 45.875 45.4038ZM8.375 1.56152H42.75V39.4836L41.1875 37.9225V3.90306C41.1875 3.69605 41.1052 3.49753 40.9587 3.35115C40.8122 3.20478 40.6134 3.12254 40.4062 3.12254H10.7187C10.5115 3.12254 10.3128 3.20478 10.1663 3.35115C10.0198 3.49753 9.9375 3.69605 9.9375 3.90306V17.1718H8.375V1.56152ZM4.725 20.2267C4.60241 20.1044 4.51892 19.9484 4.48509 19.7786C4.45125 19.6088 4.46859 19.4328 4.53492 19.2729C4.60125 19.1129 4.71358 18.9762 4.8577 18.8801C5.00182 18.784 5.17124 18.7327 5.34453 18.7328H14.625V20.2939H12.2812C12.1601 20.2937 12.0405 20.3218 11.932 20.3758L8.97187 21.8549H6.35469L4.725 20.2267ZM6.70859 23.4159H8.47891L8.70234 24.9769H6.8125C6.70203 24.979 6.59174 24.9865 6.48203 24.9996L6.70859 23.4159Z" fill="black"/>
<path id="Vector_2" d="M26.8785 11.6685C27.4733 11.8644 28.0086 12.2078 28.4343 12.6665C28.8601 13.1253 29.1624 13.6846 29.3129 14.2918L29.4949 15.0193C29.5373 15.1881 29.6348 15.3378 29.7721 15.4449C29.9094 15.5519 30.0786 15.61 30.2527 15.61C30.4269 15.61 30.596 15.5519 30.7333 15.4449C30.8706 15.3378 30.9682 15.1881 31.0105 15.0193L31.1926 14.2926C31.3428 13.6855 31.6447 13.1263 32.07 12.6673C32.4953 12.2084 33.0302 11.8648 33.6246 11.6685C33.7809 11.6172 33.917 11.5179 34.0135 11.3847C34.11 11.2516 34.1619 11.0914 34.1619 10.927C34.1619 10.7627 34.11 10.6025 34.0135 10.4693C33.917 10.3362 33.7809 10.2369 33.6246 10.1856C33.0296 9.9902 32.494 9.6472 32.0678 9.18867C31.6416 8.73014 31.3389 8.17108 31.1879 7.56381L31.0059 6.83637C30.9635 6.6676 30.866 6.51781 30.7287 6.41077C30.5914 6.30374 30.4222 6.24561 30.248 6.24561C30.0739 6.24561 29.9047 6.30374 29.7674 6.41077C29.6301 6.51781 29.5326 6.6676 29.4902 6.83637L29.3082 7.56303C29.158 8.1702 28.8561 8.72939 28.4308 9.18831C28.0055 9.64723 27.4706 9.99088 26.8762 10.1871C26.7199 10.2384 26.5838 10.3378 26.4873 10.4709C26.3908 10.6041 26.3389 10.7642 26.3389 10.9286C26.3389 11.093 26.3908 11.2532 26.4873 11.3863C26.5838 11.5195 26.7199 11.6188 26.8762 11.6701L26.8785 11.6685ZM30.2504 9.34963C30.6152 9.96836 31.1034 10.5055 31.6848 10.9278C31.1034 11.3501 30.6152 11.8873 30.2504 12.506C29.8856 11.8873 29.3974 11.3501 28.816 10.9278C29.3974 10.5055 29.8856 9.96836 30.2504 9.34963ZM21.4098 18.6932C22.0045 18.889 22.5398 19.2324 22.9656 19.6912C23.3913 20.15 23.6936 20.7092 23.8441 21.3165L24.0262 22.0439C24.0685 22.2127 24.1661 22.3625 24.3034 22.4695C24.4407 22.5765 24.6098 22.6347 24.784 22.6347C24.9581 22.6347 25.1273 22.5765 25.2646 22.4695C25.4019 22.3625 25.4995 22.2127 25.5418 22.0439L25.7238 21.3172C25.874 20.7101 26.1759 20.1509 26.6012 19.692C27.0266 19.233 27.5614 18.8894 28.1559 18.6932C28.3122 18.6418 28.4483 18.5425 28.5447 18.4094C28.6412 18.2762 28.6932 18.116 28.6932 17.9517C28.6932 17.7873 28.6412 17.6271 28.5447 17.494C28.4483 17.3608 28.3122 17.2615 28.1559 17.2102C27.5609 17.0148 27.0252 16.6718 26.599 16.2133C26.1729 15.7548 25.8701 15.1957 25.7191 14.5884L25.5371 13.861C25.4948 13.6922 25.3972 13.5424 25.2599 13.4354C25.1226 13.3284 24.9535 13.2702 24.7793 13.2702C24.6051 13.2702 24.436 13.3284 24.2987 13.4354C24.1614 13.5424 24.0638 13.6922 24.0215 13.861L23.8395 14.5877C23.6893 15.1948 23.3874 15.754 22.962 16.2129C22.5367 16.6719 22.0018 17.0155 21.4074 17.2117C21.2511 17.2631 21.115 17.3624 21.0185 17.4955C20.9221 17.6287 20.8701 17.7889 20.8701 17.9532C20.8701 18.1176 20.9221 18.2778 21.0185 18.4109C21.115 18.5441 21.2511 18.6434 21.4074 18.6947L21.4098 18.6932ZM24.7816 16.3743C25.1464 16.993 25.6347 17.5302 26.216 17.9525C25.6347 18.3747 25.1464 18.9119 24.7816 19.5307C24.4169 18.9119 23.9286 18.3747 23.3473 17.9525C23.9286 17.5302 24.4169 16.993 24.7816 16.3743Z" fill="black"/>
</g>
</g>
</svg>
