<svg width="52" height="50" viewBox="0 0 52 50" fill="none" xmlns="http://www.w3.org/2000/svg">
<g id="Icon">
<path id="Vector" d="M50.2676 41.211C50.2676 40.402 49.6117 39.7462 48.8027 39.7462H43.4316C42.6227 39.7462 41.9668 40.402 41.9668 41.211C41.9668 42.02 42.6227 42.6758 43.4316 42.6758H48.8027C49.6117 42.6758 50.2676 42.02 50.2676 41.211ZM50.2676 41.211V31.1524M46.1171 42.8081V50.0001M42.3691 50.0001C42.3691 48.7279 43.4005 47.6965 44.6727 47.6965H47.5617C48.8339 47.6965 49.8652 48.7279 49.8652 50.0001M1.73242 41.211C1.73242 40.402 2.38828 39.7462 3.19727 39.7462H8.56836C9.37734 39.7462 10.0332 40.402 10.0332 41.211C10.0332 42.02 9.37734 42.6758 8.56836 42.6758H3.19727C2.38828 42.6758 1.73242 42.02 1.73242 41.211ZM1.73242 41.211V31.1524M5.88291 42.8081V50.0001M9.63086 50.0001C9.63086 48.7279 8.59951 47.6965 7.32734 47.6965H4.43828C3.16611 47.6965 2.13477 48.7279 2.13477 50.0001M37.7188 36.4258V50.0001M14.2812 50.0001V36.4258M14.7695 33.4962H11.3516C10.543 33.4962 9.88672 34.1524 9.88672 34.961C9.88672 35.3653 10.0508 35.7315 10.3164 35.9962C10.5811 36.2618 10.9473 36.4258 11.3516 36.4258H32.1035M16.2344 33.4962H40.6484C41.0527 33.4962 41.4189 33.6602 41.6836 33.9258C41.9492 34.1905 42.1133 34.5567 42.1133 34.961C42.1133 35.7696 41.457 36.4258 40.6484 36.4258H33.5684M24.1145 28.6449C24.1145 20.4567 30.9504 20.6429 30.9504 20.6429C30.9504 20.6429 28.0293 23.742 28.0293 28.6449M50.2676 36.8165C48.6495 36.8165 47.3379 35.5048 47.3379 33.8868V29.4922C47.3379 28.6833 47.9937 28.0274 48.8027 28.0274C49.6117 28.0274 50.2676 28.6833 50.2676 29.4922V36.8165ZM1.73242 36.8165C3.35049 36.8165 4.66211 35.5048 4.66211 33.8868V29.4922C4.66211 28.6833 4.00625 28.0274 3.19727 28.0274C2.38828 28.0274 1.73242 28.6833 1.73242 29.4922V36.8165ZM28.0293 33.4962H24.123C23.3141 33.4962 22.6582 32.8403 22.6582 32.0313V28.645H29.4941V32.0313C29.4941 32.8403 28.8383 33.4962 28.0293 33.4962Z" stroke="#3CA200" stroke-width="1.5" stroke-miterlimit="10"/>
<path id="Vector_2" d="M26.5957 22.226C26.1939 19.1406 22.3867 17.5781 22.3867 17.5781C22.3867 17.5781 23.9479 21.875 24.1143 28.6449M41.2229 9.83379L46.0508 1.86406C46.7317 0.73994 48.2279 0.437987 49.2916 1.20986C50.3553 1.98183 50.5319 3.49795 49.6743 4.49385L43.5939 11.5545" stroke="#3CA200" stroke-width="1.5" stroke-miterlimit="10"/>
<path id="Vector_3" d="M36.9527 11.5612C36.9527 11.5612 32.6151 12.5501 31.9432 13.4761C30.8511 14.9809 32.1982 17.2812 35.7549 19.8623C39.3115 22.4435 41.916 23.0112 43.0082 21.5064C43.6802 20.5805 43.2757 16.15 43.2757 16.15L44.4229 14.5693C45.0564 13.6963 44.8623 12.475 43.9894 11.8414L40.8279 9.54697C39.9549 8.91338 38.7336 9.10752 38.1 9.98047L36.9527 11.5612ZM36.9527 11.5612L43.2756 16.15M36.1304 15.6039L37.3158 16.4644M38.5014 17.3247L39.6869 18.1852M10.8633 17.4805C13.0206 17.4805 14.7695 15.7315 14.7695 13.5742C14.7695 15.7315 16.5185 17.4805 18.6758 17.4805C16.5185 17.4805 14.7695 19.2294 14.7695 21.3867C14.7695 19.2294 13.0206 17.4805 10.8633 17.4805ZM1 6.83594C4.77539 6.83594 7.83594 3.77539 7.83594 0C7.83594 3.77539 10.8965 6.83594 14.6719 6.83594C10.8965 6.83594 7.83594 9.89648 7.83594 13.6719C7.83594 9.89648 4.77539 6.83594 1 6.83594ZM17.6992 9.47266C20.3959 9.47266 22.582 7.28652 22.582 4.58984C22.582 7.28652 24.7682 9.47266 27.4648 9.47266C24.7682 9.47266 22.582 11.6588 22.582 14.3555C22.582 11.6588 20.3959 9.47266 17.6992 9.47266Z" stroke="#3CA200" stroke-width="1.5" stroke-miterlimit="10"/>
</g>
</svg>
