<svg width="80" height="80" viewBox="0 0 80 80" fill="none" xmlns="http://www.w3.org/2000/svg">
<g clip-path="url(#clip0_11387_8728)">
<path d="M62.3895 14.6993C61.4268 14.2192 60.3632 13.9679 59.2824 13.9684H59.2822C57.6686 13.9684 56.1832 14.5217 55.0022 15.447L54.6831 15.697L54.3725 15.4364C50.539 12.2202 46.5228 9.44617 42.4723 7.19131L41.6163 6.71482L42.5043 6.30119C45.2457 5.02432 47.9932 3.9953 50.7075 3.24575C60.3757 0.573933 68.5205 1.72749 73.5072 6.70461C78.4943 11.682 79.6502 19.812 76.9729 29.4621C76.2217 32.171 75.191 34.9132 73.9107 37.6494L73.4972 38.5331L73.0213 37.6813C70.7629 33.639 67.9834 29.6305 64.7609 25.8052L64.4987 25.494L64.7503 25.174C65.6771 23.9951 66.2308 22.513 66.2308 20.9031C66.2308 19.5124 65.8294 18.1931 65.0634 17.0536L63.993 17.8842C64.574 18.7832 64.8789 19.8185 64.8789 20.9031C64.8789 23.9853 62.3676 26.4898 59.2823 26.4898C56.1971 26.4898 53.6857 23.9853 53.6857 20.9031C53.6857 17.821 56.1967 15.3166 59.2819 15.3163C59.282 15.3163 59.2822 15.3163 59.2823 15.3163V15.8163C60.1973 15.8155 61.0956 16.0609 61.8826 16.5268L62.3895 14.6993ZM62.3895 14.6993L61.6969 15.8617M74.3753 39.7834L74.2624 40.008L74.3754 40.2326C76.4592 44.3759 77.9797 48.5175 78.8543 52.4986C80.8872 61.7563 79.2746 69.4433 74.464 74.2438L74.8172 74.5977L74.464 74.2438C70.9945 77.7066 66.1101 79.4982 60.2142 79.4982C57.1708 79.4982 53.861 79.0204 50.3461 78.0489L50.346 78.0489C47.0533 77.1394 43.7059 75.8279 40.3719 74.1592L40.1478 74.047L39.9238 74.1594C34.3796 76.942 28.9021 78.6818 23.7921 79.2702C22.5156 79.4171 21.2799 79.4896 20.0877 79.4896C14.1502 79.4896 9.28719 77.6891 5.83581 74.244L5.48258 74.5979L5.83579 74.244C2.74564 71.1598 0.933666 66.8074 0.62955 61.6248C0.356049 56.9587 1.30348 51.5751 3.38849 46.0059L3.51643 45.6642L3.22999 45.4381C1.61713 44.1652 0.582031 42.2002 0.582031 39.9981C0.582031 37.796 1.61713 35.831 3.23013 34.5581L3.51659 34.332L3.38865 33.9903C1.30364 28.4211 0.356359 23.0381 0.629708 18.3715L0.130564 18.3423L0.629708 18.3715C0.933207 13.1887 2.74578 8.83623 5.83578 5.7524L5.83581 5.75237C10.6461 0.95071 18.3489 -0.658911 27.6249 1.37006C31.6147 2.24316 35.7645 3.76076 39.9162 5.84039L40.14 5.95252L40.3639 5.84047C43.7007 4.17046 47.0504 2.85725 50.346 1.94717L50.3461 1.94714C60.6878 -0.911021 69.2102 0.508499 74.464 5.75239L74.8172 5.3985L74.464 5.75242C79.7182 10.9956 81.1396 19.5002 78.2762 29.8211L78.2762 29.8212C77.3642 33.1103 76.0491 36.4533 74.3753 39.7834Z" fill="#3CA200" stroke="#3CA200"/>
<path d="M56.5083 52.1285V52.6285H57.0083H58.9385L58.9386 53.9758H37.9834V52.6285H48.0694H48.5694V52.1285V49.4199H49.9213V52.1285V52.6285H50.4213H54.6557H55.1557V52.1285V46.2135C55.1557 44.4191 53.9488 42.8295 52.221 42.343C52.2209 42.343 52.2209 42.343 52.2209 42.343L51.8232 42.2309L52.1898 40.9334L52.5882 41.0454C54.8959 41.6953 56.5083 43.8221 56.5083 46.2135V52.1285Z" fill="#3CA200" stroke="#3CA200"/>
<path d="M44.1756 40.0779L43.8792 39.9944L43.6712 40.2216C42.7753 41.2003 41.5091 41.7681 40.1501 41.7681C38.791 41.7681 37.5254 41.2008 36.6285 40.222L36.4206 39.9951L36.1244 40.0785L28.079 42.3429L28.0789 42.3429C26.351 42.8295 25.1441 44.4189 25.1441 46.2134V52.1284V52.6284H25.6441H29.8785H30.3785V52.1284V49.4198H31.7306V52.1284V52.6284H32.2306H34.6317V53.9758H21.3613V52.6284H23.2915H23.7915V52.1284V46.2134C23.7915 43.822 25.4039 41.6953 27.7115 41.0453C27.7115 41.0453 27.7115 41.0453 27.7116 41.0453L35.6592 38.8084L36.0237 38.7058V38.3271V35.2095V34.945L35.8051 34.7961C33.7598 33.4039 32.4168 31.0631 32.4168 28.4162V24.9726C32.4168 20.719 35.8857 17.2554 40.1501 17.2554C44.415 17.2554 47.8834 20.719 47.8834 24.9724V28.4162C47.8834 31.0633 46.5402 33.4039 44.495 34.7961L44.2763 34.945V35.2095V38.3271V38.7058L44.6408 38.8084L48.964 40.0253L48.597 41.3231L44.1756 40.0779ZM45.6321 26.5825L46.5306 27.7687V26.2805V24.9732C46.5306 21.4595 43.6676 18.6033 40.1501 18.6033C37.3761 18.6033 35.0128 20.3788 34.1351 22.8491L33.898 23.5165H34.6063H43.3096L45.6321 26.5825ZM34.2694 24.8644H33.7694V25.3644V28.4162C33.7694 31.9293 36.6324 34.7854 40.1501 34.7854C43.1056 34.7854 45.5962 32.7699 46.3189 30.0433L46.3814 29.8076L46.2341 29.6133L42.7863 25.0625L42.6362 24.8644H42.3877H34.2694ZM37.3764 38.8367V39.0135L37.4876 39.151C38.1344 39.9512 39.1058 40.4201 40.1501 40.4201C41.1946 40.4201 42.1652 39.9511 42.8124 39.1512L42.9238 39.0136V38.8367V36.3117V35.6469L42.2851 35.8313C40.8903 36.2338 39.4098 36.2338 38.0151 35.8313L37.3764 35.6469V36.3117V38.8367Z" fill="#3CA200" stroke="#3CA200"/>
<path d="M46.0165 45.4746L43.6659 44.813L44.0328 43.5158L46.383 44.1774L46.0165 45.4746ZM49.6071 45.0813L50.9085 45.4476L50.5416 46.7448L49.2402 46.3786L49.6071 45.0813ZM58.6061 20.2295H59.958V21.5776H58.6062L58.6061 20.2295ZM51.0785 65.1497H52.4305V66.4971H51.0785V65.1497ZM6.85449 39.3244H8.20721V40.6719H6.85449V39.3244Z" fill="#3CA200" stroke="#3CA200"/>
</g>
<defs>
<clipPath id="clip0_11387_8728">
<rect width="80" height="80" fill="white" transform="translate(0.00390625 -0.00195312)"/>
</clipPath>
</defs>
</svg>
