<svg width="49" height="51" viewBox="0 0 49 51" fill="none" xmlns="http://www.w3.org/2000/svg">
<g id="Frame" clip-path="url(#clip0_11387_7769)">
<g id="Group">
<path id="Vector" d="M17.0114 11.9751C16.8707 12.4261 17.0092 12.9094 17.3643 13.2065L20.5258 15.8513L19.4617 19.9253C19.3423 20.3827 19.5032 20.8584 19.8719 21.1375C20.2407 21.416 20.7249 21.4283 21.1061 21.1687L24.4998 18.8565L27.8936 21.1688C28.0705 21.2901 28.2776 21.355 28.4895 21.3554C28.719 21.355 28.9425 21.2787 29.1276 21.1375C29.4966 20.8587 29.6575 20.3827 29.5378 19.9253L28.4737 15.8514L31.6351 13.2067C31.9904 12.9097 32.129 12.4263 31.9881 11.9751C31.8473 11.5239 31.4622 11.2176 31.0072 11.1947L26.9558 10.9891L25.516 7.04238C25.3544 6.59902 24.9554 6.31245 24.4997 6.31245C24.0441 6.31245 23.6451 6.59892 23.4835 7.04228L22.0437 10.9892L17.9926 11.1947C17.5373 11.2176 17.1522 11.5239 17.0114 11.9751ZM22.4087 12.5662C22.6199 12.5556 22.8236 12.4809 22.9947 12.3515C23.1658 12.2221 23.2969 12.0436 23.3719 11.8378L24.4996 8.7464L25.6274 11.8381C25.7025 12.0438 25.8336 12.2222 26.0047 12.3516C26.1758 12.4809 26.3794 12.5555 26.5905 12.5662L29.7638 12.7273L27.2874 14.7989C27.1225 14.9368 26.9999 15.1217 26.9346 15.3311C26.8692 15.5404 26.864 15.765 26.9195 15.9774L27.753 19.1683L25.0947 17.3571C24.9177 17.2366 24.7109 17.1724 24.4994 17.1725C24.2879 17.1725 24.081 17.2367 23.9041 17.3572L21.246 19.1683L22.0795 15.9776C22.135 15.7652 22.1298 15.5405 22.0645 15.3311C21.9991 15.1217 21.8764 14.9367 21.7115 14.7989L19.2352 12.7274L22.4087 12.5662ZM23.734 3.72121V0.796875C23.734 0.585531 23.8147 0.382842 23.9583 0.233399C24.1018 0.0839562 24.2966 0 24.4996 0C24.7027 0 24.8974 0.0839562 25.041 0.233399C25.1846 0.382842 25.2653 0.585531 25.2653 0.796875V3.72121C25.2653 3.93255 25.1846 4.13524 25.041 4.28468C24.8974 4.43413 24.7027 4.51808 24.4996 4.51808C24.2966 4.51808 24.1018 4.43413 23.9583 4.28468C23.8147 4.13524 23.734 3.93255 23.734 3.72121ZM28.3966 8.44249C28.2607 8.28543 28.1903 8.07864 28.201 7.86759C28.2116 7.65654 28.3023 7.45852 28.4532 7.31711L31.5841 4.38281C31.6589 4.31278 31.7461 4.25876 31.8409 4.22382C31.9357 4.18888 32.0361 4.17372 32.1365 4.17919C32.2369 4.18466 32.3353 4.21066 32.4261 4.25571C32.5168 4.30075 32.5982 4.36397 32.6654 4.44173C32.7327 4.5195 32.7846 4.61029 32.8182 4.70894C32.8518 4.80758 32.8663 4.91215 32.8611 5.01665C32.8558 5.12116 32.8309 5.22356 32.7876 5.31802C32.7443 5.41248 32.6836 5.49714 32.6088 5.56717L29.4778 8.50146C29.3374 8.63343 29.1549 8.70639 28.9657 8.70616C28.8584 8.70631 28.7522 8.68291 28.6541 8.63748C28.5561 8.59205 28.4683 8.52561 28.3966 8.44249ZM16.3338 4.44178C16.401 4.364 16.4824 4.30078 16.5731 4.25572C16.6639 4.21066 16.7623 4.18465 16.8627 4.17918C16.9631 4.1737 17.0636 4.18887 17.1584 4.22381C17.2531 4.25875 17.3404 4.31278 17.4151 4.38281L20.5461 7.31711C20.697 7.45853 20.7878 7.65656 20.7984 7.86762C20.809 8.07868 20.7386 8.28549 20.6027 8.44254C20.4669 8.5996 20.2766 8.69404 20.0738 8.70509C19.871 8.71614 19.6723 8.64289 19.5214 8.50146L16.3904 5.56717C16.2395 5.42575 16.1488 5.22774 16.1382 5.01669C16.1275 4.80564 16.1979 4.59884 16.3338 4.44178ZM34.322 13.2065L37.4836 15.8513L36.4195 19.9253C36.3 20.3827 36.4609 20.8584 36.8296 21.1375C37.1982 21.416 37.6824 21.4282 38.0638 21.1687L41.4576 18.8565L44.8514 21.1688C45.0283 21.2901 45.2354 21.355 45.4472 21.3554C45.6768 21.355 45.9002 21.2787 46.0854 21.1375C46.4541 20.8589 46.6151 20.3831 46.4956 19.9253L45.4314 15.8514L48.5928 13.2067C48.948 12.9098 49.0866 12.4264 48.9457 11.9751C48.805 11.5239 48.4199 11.2176 47.9649 11.1947L43.9135 10.9891L42.4738 7.04238C42.3122 6.59902 41.9132 6.31245 41.4576 6.31245C41.0018 6.31245 40.6028 6.59892 40.4412 7.04228L39.0015 10.9891L34.9504 11.1946C34.4951 11.2175 34.1099 11.5239 33.9692 11.9751C33.8283 12.4263 33.9669 12.9097 34.322 13.2065ZM39.3663 12.5662C39.5776 12.5555 39.7813 12.4809 39.9525 12.3515C40.1236 12.2221 40.2547 12.0435 40.3298 11.8377L41.4575 8.7463L42.585 11.8376C42.6601 12.0434 42.7912 12.222 42.9623 12.3514C43.1334 12.4808 43.3371 12.5554 43.5484 12.5661L46.7216 12.7272L44.2455 14.7986C44.0805 14.9364 43.9578 15.1214 43.8924 15.3308C43.827 15.5402 43.8218 15.7649 43.8773 15.9773L44.7108 19.1682L42.0525 17.357C41.8756 17.2364 41.6687 17.1722 41.4572 17.1722C41.2457 17.1722 41.0388 17.2365 40.8619 17.3571L38.2038 19.1682L39.0373 15.9775C39.0928 15.7651 39.0876 15.5404 39.0222 15.331C38.9569 15.1217 38.8342 14.9367 38.6693 14.7988L36.193 12.7272L39.3663 12.5662ZM0.406365 13.2065L3.56792 15.8513L2.50379 19.9253C2.38436 20.3827 2.54523 20.8584 2.91398 21.1375C3.28282 21.416 3.76698 21.4283 4.14817 21.1687L7.54189 18.8565L10.9357 21.1688C11.1126 21.2901 11.3197 21.355 11.5316 21.3554C11.7611 21.355 11.9846 21.2787 12.1697 21.1375C12.5385 20.8589 12.6994 20.3831 12.5799 19.9253L11.5158 15.8514L14.6771 13.2067C15.0322 12.91 15.1709 12.4267 15.0301 11.9746C14.889 11.5237 14.5039 11.2175 14.0492 11.1946L9.99783 10.989L8.55817 7.04238C8.39652 6.59902 7.99754 6.31245 7.54189 6.31245C7.08616 6.31245 6.68717 6.59892 6.52553 7.04228L5.08587 10.9891L1.03475 11.1946C0.579491 11.2175 0.194382 11.5239 0.0536985 11.9746C-0.0874637 12.426 0.0510188 12.9096 0.406365 13.2065ZM5.45069 12.5662C5.66197 12.5555 5.86568 12.4809 6.03681 12.3515C6.20795 12.2221 6.33908 12.0435 6.41413 11.8377L7.5418 8.7463L8.66937 11.8376C8.7444 12.0434 8.87552 12.222 9.04664 12.3514C9.21776 12.4808 9.42145 12.5554 9.63272 12.5661L12.806 12.7272L10.3298 14.7986C10.1649 14.9364 10.0422 15.1214 9.97677 15.3308C9.91137 15.5402 9.90612 15.7649 9.96165 15.9773L10.7951 19.1682L8.13688 17.357C7.95995 17.2364 7.75304 17.1722 7.54155 17.1722C7.33005 17.1722 7.12315 17.2365 6.94624 17.3571L4.28818 19.1682L5.12166 15.9775C5.17717 15.7651 5.17192 15.5404 5.10656 15.331C5.04119 15.1217 4.91856 14.9367 4.75368 14.7988L2.27736 12.7272L5.45069 12.5662ZM48.8791 42.3273C48.3404 40.5166 47.2371 38.8908 45.7721 37.7491C45.0804 37.2092 44.3151 36.7799 43.5015 36.4754C44.6184 35.5629 45.3381 34.1465 45.3381 32.5574C45.3381 29.8116 43.1918 27.5778 40.5537 27.5778C37.9156 27.5778 35.7692 29.8116 35.7692 32.5574C35.7692 34.1446 36.4872 35.5597 37.602 36.4722C36.1079 37.0272 34.7844 38.0024 33.7708 39.3164C33.2933 38.621 32.7453 37.9811 32.1363 37.4077C30.9112 36.2536 29.4592 35.3914 27.8813 34.8812C29.5403 33.7365 30.6371 31.7765 30.6371 29.5541C30.6371 26.0319 27.8838 23.1664 24.4997 23.1664C21.1157 23.1664 18.3624 26.0319 18.3624 29.5541C18.3624 31.7765 19.459 33.7365 21.1181 34.8812C19.5401 35.3914 18.088 36.2536 16.863 37.4077C16.254 37.981 15.706 38.6209 15.2286 39.3163C14.2151 38.0022 12.8915 37.027 11.3974 36.4719C12.512 35.5593 13.2301 34.1443 13.2301 32.5571C13.2301 29.8113 11.0838 27.5775 8.44571 27.5775C5.80756 27.5775 3.66123 29.8113 3.66123 32.5571C3.66123 34.1461 4.38092 35.5626 5.49777 36.4751C4.68416 36.7796 3.91881 37.2089 3.22702 37.7488C1.76209 38.8904 0.658734 40.5163 0.120021 42.3269C-0.128903 43.1632 0.00900509 44.012 0.508288 44.717C1.00748 45.4219 1.74573 45.81 2.58696 45.81H13.1711V47.2481C13.1711 49.317 14.7882 51.0001 16.7759 51.0001H32.2233C34.211 51.0001 35.8282 49.317 35.8283 47.2481V45.8104H46.4123C47.2536 45.8104 47.9919 45.4222 48.491 44.7174C48.9902 44.0124 49.1281 43.1635 48.8791 42.3273ZM40.5537 29.1715C42.3475 29.1715 43.8069 30.6904 43.8069 32.5574C43.8069 34.4245 42.3475 35.9434 40.5537 35.9434C38.7599 35.9434 37.3005 34.4245 37.3005 32.5574C37.3005 30.6904 38.7599 29.1715 40.5537 29.1715ZM19.8936 29.5541C19.8936 26.9107 21.96 24.7601 24.4997 24.7601C27.0395 24.7601 29.1058 26.9107 29.1058 29.5541C29.1058 32.1967 27.0408 34.3467 24.5022 34.3481H24.4971C21.9585 34.3466 19.8936 32.1966 19.8936 29.5541ZM8.44571 29.1711C10.2395 29.1711 11.6989 30.69 11.6989 32.557C11.6989 34.4241 10.2395 35.943 8.44571 35.943C6.65186 35.943 5.19248 34.4241 5.19248 32.557C5.19248 30.69 6.65186 29.1711 8.44571 29.1711ZM13.2705 44.2161H2.58706C2.23468 44.2161 1.95006 44.0665 1.74094 43.7712C1.53174 43.476 1.47862 43.1487 1.58284 42.7984C2.5192 39.6512 5.27727 37.5368 8.44571 37.5368C10.8424 37.5368 13.0257 38.7421 14.3685 40.7824C13.8349 41.8613 13.4646 43.0195 13.2705 44.2161ZM34.297 47.248C34.2969 48.438 33.3667 49.4062 32.2233 49.4062H16.7759C15.6325 49.4062 14.7023 48.438 14.7023 47.248V45.0563C15.2566 39.8579 19.4603 35.9431 24.4971 35.9419L24.4997 35.942L24.5022 35.9419C29.539 35.9432 33.7425 39.8579 34.297 45.0563V47.248ZM47.2584 43.7717C47.0493 44.0669 46.7648 44.2165 46.4123 44.2165H35.729C35.5348 43.0199 35.1644 41.8616 34.631 40.7826C35.9739 38.7424 38.157 37.5372 40.5536 37.5372C43.7221 37.5372 46.4801 39.6517 47.4165 42.7989C47.5207 43.149 47.4675 43.4763 47.2584 43.7717Z" fill="#727272"/>
</g>
</g>
<defs>
<clipPath id="clip0_11387_7769">
<rect width="49" height="51" fill="white"/>
</clipPath>
</defs>
</svg>
