<svg width="37" height="40" viewBox="0 0 37 40" fill="none" xmlns="http://www.w3.org/2000/svg">
<g id="Frame" clip-path="url(#clip0_11387_7754)">
<g id="Group">
<path id="Vector" d="M12.8451 9.39227C12.7388 9.74594 12.8435 10.125 13.1116 10.358L15.4989 12.4324L14.6953 15.6277C14.6052 15.9864 14.7266 16.3595 15.0051 16.5784C15.2836 16.7969 15.6492 16.8065 15.937 16.6029L18.4996 14.7894L21.0623 16.603C21.1959 16.6981 21.3523 16.749 21.5122 16.7493C21.6855 16.749 21.8543 16.6892 21.9941 16.5784C22.2727 16.3598 22.3942 15.9864 22.3038 15.6277L21.5003 12.4325L23.8875 10.3582C24.1558 10.1252 24.2604 9.74609 24.154 9.39227C24.0477 9.03836 23.7569 8.79813 23.4133 8.78016L20.3541 8.61891L19.2669 5.52344C19.1449 5.1757 18.8436 4.95094 18.4995 4.95094C18.1555 4.95094 17.8542 5.17562 17.7322 5.52336L16.645 8.61898L13.586 8.78016C13.2422 8.79813 12.9514 9.03836 12.8451 9.39227ZM16.9206 9.85586C17.0801 9.84749 17.2339 9.78897 17.3631 9.68749C17.4923 9.586 17.5913 9.44596 17.6479 9.28453L18.4995 6.85992L19.3511 9.28477C19.4078 9.44611 19.5068 9.58606 19.636 9.6875C19.7651 9.78893 19.9189 9.84744 20.0783 9.85586L22.4744 9.98219L20.6045 11.607C20.48 11.7151 20.3874 11.8602 20.3381 12.0244C20.2888 12.1885 20.2848 12.3647 20.3267 12.5313L20.9561 15.034L18.9488 13.6134C18.8152 13.5189 18.659 13.4686 18.4993 13.4686C18.3396 13.4686 18.1834 13.519 18.0498 13.6135L16.0427 15.034L16.672 12.5315C16.714 12.3649 16.71 12.1886 16.6607 12.0244C16.6113 11.8602 16.5187 11.7151 16.3942 11.607L14.5243 9.98227L16.9206 9.85586ZM17.9214 2.91859V0.625C17.9214 0.45924 17.9823 0.300269 18.0907 0.183058C18.1991 0.065848 18.3461 0 18.4995 0C18.6528 0 18.7999 0.065848 18.9083 0.183058C19.0167 0.300269 19.0776 0.45924 19.0776 0.625V2.91859C19.0776 3.08435 19.0167 3.24333 18.9083 3.36054C18.7999 3.47775 18.6528 3.54359 18.4995 3.54359C18.3461 3.54359 18.1991 3.47775 18.0907 3.36054C17.9823 3.24333 17.9214 3.08435 17.9214 2.91859ZM21.4421 6.62156C21.3395 6.49838 21.2863 6.33619 21.2944 6.17066C21.3024 6.00513 21.3709 5.84982 21.4848 5.73891L23.849 3.4375C23.9054 3.38258 23.9713 3.3402 24.0429 3.3128C24.1144 3.2854 24.1903 3.2735 24.2661 3.27779C24.3419 3.28208 24.4162 3.30248 24.4848 3.33781C24.5533 3.37314 24.6147 3.42272 24.6655 3.48371C24.7163 3.5447 24.7555 3.61592 24.7809 3.69329C24.8062 3.77065 24.8172 3.85266 24.8132 3.93463C24.8093 4.01659 24.7904 4.09691 24.7577 4.171C24.725 4.24508 24.6792 4.31148 24.6228 4.36641L22.2585 6.66781C22.1525 6.77132 22.0147 6.82854 21.8718 6.82836C21.7908 6.82848 21.7106 6.81013 21.6365 6.7745C21.5625 6.73886 21.4962 6.68675 21.4421 6.62156ZM12.3334 3.48375C12.3842 3.42275 12.4456 3.37316 12.5142 3.33782C12.5827 3.30248 12.657 3.28208 12.7328 3.27779C12.8086 3.27349 12.8845 3.28539 12.9561 3.31279C13.0276 3.34019 13.0935 3.38257 13.1499 3.4375L15.5142 5.73891C15.6281 5.84983 15.6966 6.00515 15.7047 6.17068C15.7127 6.33622 15.6595 6.49842 15.5569 6.6216C15.4543 6.74478 15.3107 6.81885 15.1575 6.82752C15.0044 6.83618 14.8544 6.77874 14.7404 6.66781L12.3762 4.36641C12.2623 4.25549 12.1937 4.10019 12.1857 3.93466C12.1777 3.76913 12.2308 3.60693 12.3334 3.48375ZM25.9164 10.358L28.3037 12.4324L27.5002 15.6277C27.41 15.9864 27.5315 16.3595 27.8099 16.5784C28.0882 16.7969 28.4538 16.8064 28.7418 16.6029L31.3044 14.7894L33.8671 16.603C34.0007 16.6981 34.1571 16.749 34.3171 16.7493C34.4904 16.749 34.6591 16.6892 34.7989 16.5784C35.0774 16.3599 35.1989 15.9867 35.1086 15.6277L34.3051 12.4325L36.6923 10.3582C36.9605 10.1253 37.0652 9.74617 36.9588 9.39227C36.8525 9.03836 36.5617 8.79813 36.2181 8.78016L33.1589 8.61891L32.0718 5.52344C31.9498 5.1757 31.6485 4.95094 31.3044 4.95094C30.9603 4.95094 30.659 5.17562 30.537 5.52336L29.4499 8.61891L26.3909 8.78008C26.047 8.79805 25.7562 9.03836 25.6499 9.39227C25.5436 9.74609 25.6482 10.1252 25.9164 10.358ZM29.7254 9.85586C29.8849 9.84749 30.0387 9.78897 30.168 9.68747C30.2972 9.58597 30.3962 9.4459 30.4529 9.28445L31.3044 6.85984L32.1558 9.28437C32.2125 9.44582 32.3115 9.58588 32.4407 9.68738C32.5699 9.78888 32.7237 9.84741 32.8832 9.85578L35.2793 9.98211L33.4096 11.6067C33.2851 11.7148 33.1924 11.8599 33.143 12.0241C33.0936 12.1884 33.0897 12.3646 33.1316 12.5312L33.761 15.0339L31.7537 13.6134C31.6201 13.5188 31.4639 13.4684 31.3042 13.4684C31.1445 13.4684 30.9882 13.5188 30.8547 13.6134L28.8476 15.0339L29.4769 12.5314C29.5188 12.3648 29.5149 12.1886 29.4655 12.0243C29.4162 11.8601 29.3236 11.715 29.1991 11.6069L27.3292 9.98211L29.7254 9.85586ZM0.306607 10.358L2.6939 12.4324L1.89038 15.6277C1.80019 15.9864 1.92167 16.3595 2.20011 16.5784C2.47862 16.7969 2.84421 16.8065 3.13205 16.6029L5.69466 14.7894L8.25734 16.603C8.39091 16.6981 8.5473 16.749 8.70727 16.7493C8.88059 16.749 9.04933 16.6892 9.18914 16.5784C9.46758 16.3599 9.58913 15.9867 9.49887 15.6277L8.69535 12.4325L11.0825 10.3582C11.3506 10.1255 11.4553 9.74641 11.349 9.39188C11.2425 9.0382 10.9517 8.79805 10.6084 8.78008L7.54914 8.61883L6.46205 5.52344C6.33999 5.1757 6.03872 4.95094 5.69466 4.95094C5.35053 4.95094 5.04926 5.17562 4.9272 5.52336L3.84011 8.61891L0.781104 8.78008C0.437336 8.79805 0.146539 9.03836 0.0403087 9.39188C-0.0662831 9.74586 0.0382852 10.1252 0.306607 10.358ZM4.11558 9.85586C4.27513 9.84749 4.42895 9.78897 4.55817 9.68747C4.6874 9.58597 4.78642 9.4459 4.84308 9.28445L5.69459 6.85984L6.54602 9.28437C6.60267 9.44582 6.70168 9.58588 6.83089 9.68738C6.96011 9.78888 7.11391 9.84741 7.27345 9.85578L9.66956 9.98211L7.79983 11.6067C7.67528 11.7148 7.58262 11.8599 7.53324 12.0241C7.48386 12.1884 7.47989 12.3646 7.52182 12.5312L8.15119 15.0339L6.14394 13.6134C6.01033 13.5188 5.8541 13.4684 5.6944 13.4684C5.53469 13.4684 5.37847 13.5188 5.24488 13.6134L3.23777 15.0339L3.86713 12.5314C3.90905 12.3648 3.90509 12.1886 3.85573 12.0243C3.80638 11.8601 3.71377 11.715 3.58927 11.6069L1.7194 9.98211L4.11558 9.85586ZM36.9085 33.1979C36.5017 31.7777 35.6686 30.5026 34.5624 29.6071C34.0401 29.1837 33.4622 28.847 32.8478 28.6081C33.6912 27.8925 34.2347 26.7816 34.2347 25.5352C34.2347 23.3816 32.614 21.6296 30.622 21.6296C28.6299 21.6296 27.0092 23.3816 27.0092 25.5352C27.0092 26.7801 27.5513 27.8899 28.3931 28.6056C27.2649 29.0409 26.2655 29.8058 25.5001 30.8364C25.1396 30.291 24.7258 29.7891 24.2659 29.3394C23.3409 28.4342 22.2445 27.758 21.053 27.3578C22.3057 26.46 23.1339 24.9227 23.1339 23.1797C23.1339 20.4172 21.0549 18.1697 18.4995 18.1697C15.9442 18.1697 13.8652 20.4172 13.8652 23.1797C13.8652 24.9227 14.6933 26.46 15.946 27.3578C14.7545 27.7579 13.658 28.4342 12.733 29.3394C12.2732 29.789 11.8594 30.2909 11.4989 30.8363C10.7336 29.8056 9.73416 29.0408 8.60595 28.6054C9.44763 27.8897 9.98984 26.7798 9.98984 25.535C9.98984 23.3814 8.36914 21.6294 6.37714 21.6294C4.38506 21.6294 2.76436 23.3814 2.76436 25.535C2.76436 26.7812 3.3078 27.8923 4.15114 28.6079C3.53678 28.8468 2.95886 29.1835 2.43649 29.6069C1.33032 30.5023 0.497172 31.7775 0.0903887 33.1976C-0.0975742 33.8535 0.00656061 34.5192 0.38357 35.0722C0.760508 35.625 1.31796 35.9294 1.95318 35.9294H9.94525V37.0573C9.94525 38.68 11.1663 40.0001 12.6673 40.0001H24.3317C25.8326 40.0001 27.0537 38.68 27.0538 37.0573V35.9297H35.0458C35.6811 35.9297 36.2385 35.6252 36.6154 35.0725C36.9923 34.5195 37.0965 33.8538 36.9085 33.1979ZM30.622 22.8796C31.9764 22.8796 33.0784 24.0709 33.0784 25.5352C33.0784 26.9996 31.9764 28.1909 30.622 28.1909C29.2674 28.1909 28.1654 26.9996 28.1654 25.5352C28.1654 24.0709 29.2674 22.8796 30.622 22.8796ZM15.0215 23.1797C15.0215 21.1064 16.5818 19.4197 18.4995 19.4197C20.4173 19.4197 21.9776 21.1064 21.9776 23.1797C21.9776 25.2523 20.4183 26.9386 18.5014 26.9397H18.4976C16.5807 26.9385 15.0215 25.2523 15.0215 23.1797ZM6.37714 22.8793C7.73161 22.8793 8.83359 24.0706 8.83359 25.5349C8.83359 26.9993 7.73161 28.1906 6.37714 28.1906C5.02259 28.1906 3.92061 26.9993 3.92061 25.5349C3.92061 24.0706 5.02259 22.8793 6.37714 22.8793ZM10.0203 34.6793H1.95325C1.68717 34.6793 1.47225 34.562 1.31435 34.3304C1.15638 34.0988 1.11627 33.8421 1.19497 33.5673C1.90202 31.099 3.98464 29.4406 6.37714 29.4406C8.18688 29.4406 9.83548 30.3859 10.8494 31.9862C10.4465 32.8324 10.1669 33.7408 10.0203 34.6793ZM25.8975 37.0573C25.8975 37.9906 25.195 38.75 24.3317 38.75H12.6673C11.8039 38.75 11.1015 37.9906 11.1015 37.0573V35.3383C11.5201 31.2611 14.6943 28.1907 18.4976 28.1897L18.4995 28.1898L18.5014 28.1897C22.3047 28.1908 25.4788 31.2611 25.8975 35.3383V37.0573ZM35.6847 34.3308C35.5268 34.5623 35.3119 34.6796 35.0458 34.6796H26.9788C26.8322 33.7411 26.5525 32.8327 26.1497 31.9863C27.1637 30.3862 28.8122 29.4409 30.6219 29.4409C33.0144 29.4409 35.097 31.0994 35.8041 33.5677C35.8828 33.8423 35.8426 34.0991 35.6847 34.3308Z" fill="#727272"/>
</g>
</g>
<defs>
<clipPath id="clip0_11387_7754">
<rect width="37" height="40" fill="white"/>
</clipPath>
</defs>
</svg>
