<svg width="60" height="60" viewBox="0 0 60 60" fill="none" xmlns="http://www.w3.org/2000/svg">
<g id="Frame" clip-path="url(#clip0_11387_7786)">
<g id="Group">
<g id="Vector">
<mask id="path-1-inside-1_11387_7786" fill="white">
<path d="M20.8305 14.0884C20.6582 14.6189 20.8278 15.1875 21.2626 15.5371L25.1339 18.6486L23.8309 23.4415C23.6846 23.9796 23.8816 24.5393 24.3332 24.8677C24.7848 25.1953 25.3777 25.2097 25.8444 24.9043L30 22.1841L34.1557 24.9045C34.3723 25.0472 34.6259 25.1235 34.8853 25.1239C35.1664 25.1235 35.44 25.0338 35.6667 24.8677C36.1185 24.5396 36.3156 23.9796 36.169 23.4415L34.866 18.6488L38.737 15.5373C39.1721 15.1879 39.3418 14.6191 39.1693 14.0884C38.9969 13.5575 38.5254 13.1972 37.9682 13.1702L33.0073 12.9284L31.2443 8.28516C31.0464 7.76355 30.5578 7.42641 29.9999 7.42641C29.4419 7.42641 28.9534 7.76344 28.7556 8.28504L26.9925 12.9285L22.0319 13.1702C21.4745 13.1972 21.0029 13.5575 20.8305 14.0884ZM27.4394 14.7838C27.6981 14.7712 27.9475 14.6835 28.157 14.5312C28.3665 14.379 28.527 14.1689 28.6188 13.9268L29.9998 10.2899L31.3807 13.9271C31.4727 14.1692 31.6332 14.3791 31.8427 14.5312C32.0522 14.6834 32.3015 14.7712 32.5601 14.7838L36.4457 14.9733L33.4133 17.4104C33.2115 17.5727 33.0613 17.7902 32.9813 18.0365C32.9013 18.2828 32.8949 18.5471 32.9628 18.797L33.9834 22.551L30.7284 20.4202C30.5117 20.2784 30.2584 20.2029 29.9994 20.2029C29.7405 20.2029 29.4872 20.2785 29.2705 20.4203L26.0157 22.551L27.0363 18.7972C27.1044 18.5473 27.098 18.283 27.0179 18.0366C26.9379 17.7903 26.7877 17.5726 26.5857 17.4104L23.5535 14.9734L27.4394 14.7838ZM29.0623 4.37789V0.9375C29.0623 0.68886 29.161 0.450403 29.3368 0.274587C29.5127 0.0987721 29.7511 0 29.9998 0C30.2484 0 30.4869 0.0987721 30.6627 0.274587C30.8385 0.450403 30.9373 0.68886 30.9373 0.9375V4.37789C30.9373 4.62653 30.8385 4.86499 30.6627 5.0408C30.4869 5.21662 30.2484 5.31539 29.9998 5.31539C29.7511 5.31539 29.5127 5.21662 29.3368 5.0408C29.161 4.86499 29.0623 4.62653 29.0623 4.37789ZM34.7715 9.93234C34.6051 9.74757 34.519 9.50428 34.532 9.25598C34.545 9.00769 34.6561 8.77473 34.8409 8.60836L38.6747 5.15625C38.7662 5.07386 38.873 5.0103 38.989 4.9692C39.1051 4.9281 39.2281 4.91025 39.3511 4.91669C39.474 4.92313 39.5945 4.95372 39.7056 5.00671C39.8167 5.05971 39.9163 5.13408 39.9987 5.22557C40.0811 5.31706 40.1447 5.42388 40.1858 5.53993C40.2269 5.65598 40.2447 5.779 40.2383 5.90194C40.2318 6.02489 40.2013 6.14537 40.1483 6.2565C40.0953 6.36762 40.0209 6.46722 39.9294 6.54961L36.0955 10.0017C35.9236 10.157 35.7001 10.2428 35.4684 10.2425C35.337 10.2427 35.207 10.2152 35.0869 10.1617C34.9668 10.1083 34.8594 10.0301 34.7715 9.93234ZM20.0007 5.22563C20.0831 5.13412 20.1827 5.05974 20.2938 5.00673C20.405 4.95372 20.5255 4.92312 20.6484 4.91668C20.7714 4.91024 20.8944 4.92808 21.0105 4.96918C21.1265 5.01029 21.2333 5.07386 21.3248 5.15625L25.1587 8.60836C25.3435 8.77475 25.4546 9.00772 25.4676 9.25603C25.4806 9.50433 25.3944 9.74763 25.2281 9.9324C25.0617 10.1172 24.8287 10.2283 24.5804 10.2413C24.3321 10.2543 24.0888 10.1681 23.904 10.0017L20.0701 6.54961C19.8853 6.38324 19.7742 6.15028 19.7612 5.90199C19.7482 5.65369 19.8344 5.4104 20.0007 5.22563ZM42.0272 15.5371L45.8985 18.6486L44.5955 23.4415C44.4492 23.9796 44.6462 24.5393 45.0977 24.8677C45.549 25.1953 46.142 25.2096 46.609 24.9043L50.7646 22.1841L54.9203 24.9045C55.1369 25.0472 55.3905 25.1235 55.6499 25.1239C55.9309 25.1235 56.2046 25.0338 56.4313 24.8677C56.8828 24.5399 57.0799 23.9801 56.9335 23.4415L55.6305 18.6488L59.5016 15.5373C59.9366 15.188 60.1063 14.6193 59.9338 14.0884C59.7614 13.5575 59.2898 13.1972 58.7327 13.1702L53.7718 12.9284L52.009 8.28516C51.8111 7.76355 51.3225 7.42641 50.7646 7.42641C50.2065 7.42641 49.718 7.76344 49.52 8.28504L47.7572 12.9284L42.7966 13.1701C42.2391 13.1971 41.7675 13.5575 41.5951 14.0884C41.4226 14.6191 41.5923 15.1879 42.0272 15.5371ZM48.2039 14.7838C48.4626 14.7712 48.7121 14.6835 48.9216 14.5312C49.1312 14.379 49.2917 14.1689 49.3836 13.9267L50.7644 10.2898L52.1451 13.9266C52.237 14.1687 52.3976 14.3788 52.6071 14.5311C52.8166 14.6833 53.0661 14.7711 53.3248 14.7837L57.2103 14.9732L54.1784 17.4101C53.9764 17.5723 53.8261 17.7899 53.746 18.0362C53.666 18.2826 53.6595 18.5469 53.7275 18.7969L54.7481 22.5509L51.4931 20.42C51.2765 20.2782 51.0231 20.2026 50.7641 20.2026C50.5052 20.2026 50.2518 20.2782 50.0352 20.4202L46.7804 22.5509L47.801 18.7971C47.869 18.5472 47.8626 18.2828 47.7825 18.0365C47.7025 17.7902 47.5523 17.5726 47.3504 17.4103L44.3182 14.9732L48.2039 14.7838ZM0.497808 15.5371L4.3691 18.6486L3.06609 23.4415C2.91984 23.9796 3.11683 24.5393 3.56836 24.8677C4.02 25.1953 4.61285 25.2097 5.07961 24.9043L9.23519 22.1841L13.3909 24.9045C13.6075 25.0472 13.8611 25.1235 14.1205 25.1239C14.4016 25.1235 14.6752 25.0338 14.9019 24.8677C15.3534 24.5399 15.5505 23.9801 15.4042 23.4415L14.1012 18.6488L17.9722 15.5373C18.407 15.1882 18.5768 14.6196 18.4044 14.0878C18.2317 13.5573 17.7601 13.1971 17.2034 13.1701L12.2425 12.9282L10.4796 8.28516C10.2817 7.76355 9.79312 7.42641 9.23519 7.42641C8.67714 7.42641 8.18859 7.76344 7.99066 8.28504L6.22781 12.9284L1.26726 13.1701C0.709801 13.1971 0.238238 13.5575 0.0659724 14.0878C-0.106879 14.6188 0.0626912 15.1877 0.497808 15.5371ZM6.67453 14.7838C6.93325 14.7712 7.18268 14.6835 7.39224 14.5312C7.60179 14.379 7.76236 14.1689 7.85425 13.9267L9.23507 10.2898L10.6158 13.9266C10.7076 14.1687 10.8682 14.3788 11.0777 14.5311C11.2873 14.6833 11.5367 14.7711 11.7954 14.7837L15.681 14.9732L12.649 17.4101C12.447 17.5723 12.2968 17.7899 12.2167 18.0362C12.1366 18.2826 12.1302 18.5469 12.1982 18.7969L13.2187 22.5509L9.96375 20.42C9.74709 20.2782 9.49374 20.2026 9.23476 20.2026C8.97579 20.2026 8.72245 20.2782 8.50582 20.4202L5.25105 22.5509L6.27164 18.7971C6.33961 18.5472 6.33318 18.2828 6.25314 18.0365C6.17311 17.7902 6.02294 17.5726 5.82105 17.4103L2.78882 14.9732L6.67453 14.7838ZM59.8522 49.7968C59.1926 47.6666 57.8415 45.7539 56.0477 44.4107C55.2007 43.7755 54.2636 43.2705 53.2673 42.9122C54.635 41.8387 55.5163 40.1723 55.5163 38.3029C55.5163 35.0725 52.8881 32.4444 49.6578 32.4444C46.4275 32.4444 43.7993 35.0725 43.7993 38.3029C43.7993 40.1701 44.6784 41.8349 46.0434 42.9084C44.214 43.5614 42.5933 44.7087 41.3522 46.2546C40.7675 45.4365 40.0965 44.6836 39.3507 44.0091C37.8507 42.6513 36.0727 41.637 34.1406 41.0367C36.172 39.69 37.515 37.3841 37.515 34.7695C37.515 30.6258 34.1436 27.2545 29.9999 27.2545C25.8561 27.2545 22.4848 30.6258 22.4848 34.7695C22.4848 37.3841 23.8276 39.69 25.8591 41.0367C23.9269 41.6369 22.1488 42.6513 20.6488 44.0091C19.903 44.6836 19.2321 45.4364 18.6475 46.2545C17.4064 44.7084 15.7857 43.5612 13.9562 42.9081C15.3211 41.8345 16.2003 40.1698 16.2003 38.3025C16.2003 35.0721 13.5722 32.4441 10.3419 32.4441C7.11152 32.4441 4.48336 35.0721 4.48336 38.3025C4.48336 40.1719 5.36461 41.8384 6.73218 42.9118C5.73593 43.2701 4.79876 43.7752 3.95168 44.4103C2.15789 45.7534 0.806832 47.6662 0.147183 49.7964C-0.157621 50.7803 0.0112459 51.7788 0.622613 52.6083C1.23386 53.4375 2.13785 53.8941 3.16793 53.8941H16.128V55.586C16.128 58.02 18.1082 60.0001 20.5421 60.0001H39.4574C41.8912 60.0001 43.8715 58.02 43.8716 55.586V53.8945H56.8316C57.8618 53.8945 58.7658 53.4379 59.3769 52.6087C59.9882 51.7793 60.157 50.7806 59.8522 49.7968ZM49.6578 34.3194C51.8543 34.3194 53.6413 36.1064 53.6413 38.3029C53.6413 40.4994 51.8543 42.2864 49.6578 42.2864C47.4613 42.2864 45.6743 40.4994 45.6743 38.3029C45.6743 36.1064 47.4613 34.3194 49.6578 34.3194ZM24.3598 34.7695C24.3598 31.6596 26.89 29.1295 29.9999 29.1295C33.1098 29.1295 35.64 31.6596 35.64 34.7695C35.64 37.8785 33.1114 40.4079 30.0029 40.4095H29.9967C26.8882 40.4078 24.3598 37.8784 24.3598 34.7695ZM10.3419 34.3189C12.5384 34.3189 14.3253 36.1059 14.3253 38.3024C14.3253 40.4989 12.5384 42.2859 10.3419 42.2859C8.14535 42.2859 6.35836 40.4989 6.35836 38.3024C6.35836 36.1059 8.14535 34.3189 10.3419 34.3189ZM16.2498 52.0189H3.16804C2.73656 52.0189 2.38804 51.8429 2.13199 51.4956C1.87582 51.1482 1.81078 50.7632 1.93839 50.351C3.08496 46.6485 6.46218 44.1609 10.3419 44.1609C13.2766 44.1609 15.95 45.5789 17.5943 47.9793C16.9409 49.2486 16.4874 50.6112 16.2498 52.0189ZM41.9966 55.5859C41.9965 56.9859 40.8574 58.125 39.4574 58.125H20.5421C19.1421 58.125 18.003 56.9859 18.003 55.5859V53.0074C18.6818 46.8916 23.8291 42.2861 29.9967 42.2845L29.9999 42.2846L30.0029 42.2845C36.1704 42.2862 41.3176 46.8916 41.9966 53.0074V55.5859ZM57.8676 51.4962C57.6116 51.8434 57.2632 52.0194 56.8316 52.0194H43.75C43.5122 50.6116 43.0587 49.249 42.4055 47.9795C44.0498 45.5793 46.7231 44.1614 49.6577 44.1614C53.5375 44.1614 56.9147 46.6491 58.0612 50.3516C58.1889 50.7635 58.1237 51.1486 57.8676 51.4962Z"/>
</mask>
<path d="M20.8305 14.0884C20.6582 14.6189 20.8278 15.1875 21.2626 15.5371L25.1339 18.6486L23.8309 23.4415C23.6846 23.9796 23.8816 24.5393 24.3332 24.8677C24.7848 25.1953 25.3777 25.2097 25.8444 24.9043L30 22.1841L34.1557 24.9045C34.3723 25.0472 34.6259 25.1235 34.8853 25.1239C35.1664 25.1235 35.44 25.0338 35.6667 24.8677C36.1185 24.5396 36.3156 23.9796 36.169 23.4415L34.866 18.6488L38.737 15.5373C39.1721 15.1879 39.3418 14.6191 39.1693 14.0884C38.9969 13.5575 38.5254 13.1972 37.9682 13.1702L33.0073 12.9284L31.2443 8.28516C31.0464 7.76355 30.5578 7.42641 29.9999 7.42641C29.4419 7.42641 28.9534 7.76344 28.7556 8.28504L26.9925 12.9285L22.0319 13.1702C21.4745 13.1972 21.0029 13.5575 20.8305 14.0884ZM27.4394 14.7838C27.6981 14.7712 27.9475 14.6835 28.157 14.5312C28.3665 14.379 28.527 14.1689 28.6188 13.9268L29.9998 10.2899L31.3807 13.9271C31.4727 14.1692 31.6332 14.3791 31.8427 14.5312C32.0522 14.6834 32.3015 14.7712 32.5601 14.7838L36.4457 14.9733L33.4133 17.4104C33.2115 17.5727 33.0613 17.7902 32.9813 18.0365C32.9013 18.2828 32.8949 18.5471 32.9628 18.797L33.9834 22.551L30.7284 20.4202C30.5117 20.2784 30.2584 20.2029 29.9994 20.2029C29.7405 20.2029 29.4872 20.2785 29.2705 20.4203L26.0157 22.551L27.0363 18.7972C27.1044 18.5473 27.098 18.283 27.0179 18.0366C26.9379 17.7903 26.7877 17.5726 26.5857 17.4104L23.5535 14.9734L27.4394 14.7838ZM29.0623 4.37789V0.9375C29.0623 0.68886 29.161 0.450403 29.3368 0.274587C29.5127 0.0987721 29.7511 0 29.9998 0C30.2484 0 30.4869 0.0987721 30.6627 0.274587C30.8385 0.450403 30.9373 0.68886 30.9373 0.9375V4.37789C30.9373 4.62653 30.8385 4.86499 30.6627 5.0408C30.4869 5.21662 30.2484 5.31539 29.9998 5.31539C29.7511 5.31539 29.5127 5.21662 29.3368 5.0408C29.161 4.86499 29.0623 4.62653 29.0623 4.37789ZM34.7715 9.93234C34.6051 9.74757 34.519 9.50428 34.532 9.25598C34.545 9.00769 34.6561 8.77473 34.8409 8.60836L38.6747 5.15625C38.7662 5.07386 38.873 5.0103 38.989 4.9692C39.1051 4.9281 39.2281 4.91025 39.3511 4.91669C39.474 4.92313 39.5945 4.95372 39.7056 5.00671C39.8167 5.05971 39.9163 5.13408 39.9987 5.22557C40.0811 5.31706 40.1447 5.42388 40.1858 5.53993C40.2269 5.65598 40.2447 5.779 40.2383 5.90194C40.2318 6.02489 40.2013 6.14537 40.1483 6.2565C40.0953 6.36762 40.0209 6.46722 39.9294 6.54961L36.0955 10.0017C35.9236 10.157 35.7001 10.2428 35.4684 10.2425C35.337 10.2427 35.207 10.2152 35.0869 10.1617C34.9668 10.1083 34.8594 10.0301 34.7715 9.93234ZM20.0007 5.22563C20.0831 5.13412 20.1827 5.05974 20.2938 5.00673C20.405 4.95372 20.5255 4.92312 20.6484 4.91668C20.7714 4.91024 20.8944 4.92808 21.0105 4.96918C21.1265 5.01029 21.2333 5.07386 21.3248 5.15625L25.1587 8.60836C25.3435 8.77475 25.4546 9.00772 25.4676 9.25603C25.4806 9.50433 25.3944 9.74763 25.2281 9.9324C25.0617 10.1172 24.8287 10.2283 24.5804 10.2413C24.3321 10.2543 24.0888 10.1681 23.904 10.0017L20.0701 6.54961C19.8853 6.38324 19.7742 6.15028 19.7612 5.90199C19.7482 5.65369 19.8344 5.4104 20.0007 5.22563ZM42.0272 15.5371L45.8985 18.6486L44.5955 23.4415C44.4492 23.9796 44.6462 24.5393 45.0977 24.8677C45.549 25.1953 46.142 25.2096 46.609 24.9043L50.7646 22.1841L54.9203 24.9045C55.1369 25.0472 55.3905 25.1235 55.6499 25.1239C55.9309 25.1235 56.2046 25.0338 56.4313 24.8677C56.8828 24.5399 57.0799 23.9801 56.9335 23.4415L55.6305 18.6488L59.5016 15.5373C59.9366 15.188 60.1063 14.6193 59.9338 14.0884C59.7614 13.5575 59.2898 13.1972 58.7327 13.1702L53.7718 12.9284L52.009 8.28516C51.8111 7.76355 51.3225 7.42641 50.7646 7.42641C50.2065 7.42641 49.718 7.76344 49.52 8.28504L47.7572 12.9284L42.7966 13.1701C42.2391 13.1971 41.7675 13.5575 41.5951 14.0884C41.4226 14.6191 41.5923 15.1879 42.0272 15.5371ZM48.2039 14.7838C48.4626 14.7712 48.7121 14.6835 48.9216 14.5312C49.1312 14.379 49.2917 14.1689 49.3836 13.9267L50.7644 10.2898L52.1451 13.9266C52.237 14.1687 52.3976 14.3788 52.6071 14.5311C52.8166 14.6833 53.0661 14.7711 53.3248 14.7837L57.2103 14.9732L54.1784 17.4101C53.9764 17.5723 53.8261 17.7899 53.746 18.0362C53.666 18.2826 53.6595 18.5469 53.7275 18.7969L54.7481 22.5509L51.4931 20.42C51.2765 20.2782 51.0231 20.2026 50.7641 20.2026C50.5052 20.2026 50.2518 20.2782 50.0352 20.4202L46.7804 22.5509L47.801 18.7971C47.869 18.5472 47.8626 18.2828 47.7825 18.0365C47.7025 17.7902 47.5523 17.5726 47.3504 17.4103L44.3182 14.9732L48.2039 14.7838ZM0.497808 15.5371L4.3691 18.6486L3.06609 23.4415C2.91984 23.9796 3.11683 24.5393 3.56836 24.8677C4.02 25.1953 4.61285 25.2097 5.07961 24.9043L9.23519 22.1841L13.3909 24.9045C13.6075 25.0472 13.8611 25.1235 14.1205 25.1239C14.4016 25.1235 14.6752 25.0338 14.9019 24.8677C15.3534 24.5399 15.5505 23.9801 15.4042 23.4415L14.1012 18.6488L17.9722 15.5373C18.407 15.1882 18.5768 14.6196 18.4044 14.0878C18.2317 13.5573 17.7601 13.1971 17.2034 13.1701L12.2425 12.9282L10.4796 8.28516C10.2817 7.76355 9.79312 7.42641 9.23519 7.42641C8.67714 7.42641 8.18859 7.76344 7.99066 8.28504L6.22781 12.9284L1.26726 13.1701C0.709801 13.1971 0.238238 13.5575 0.0659724 14.0878C-0.106879 14.6188 0.0626912 15.1877 0.497808 15.5371ZM6.67453 14.7838C6.93325 14.7712 7.18268 14.6835 7.39224 14.5312C7.60179 14.379 7.76236 14.1689 7.85425 13.9267L9.23507 10.2898L10.6158 13.9266C10.7076 14.1687 10.8682 14.3788 11.0777 14.5311C11.2873 14.6833 11.5367 14.7711 11.7954 14.7837L15.681 14.9732L12.649 17.4101C12.447 17.5723 12.2968 17.7899 12.2167 18.0362C12.1366 18.2826 12.1302 18.5469 12.1982 18.7969L13.2187 22.5509L9.96375 20.42C9.74709 20.2782 9.49374 20.2026 9.23476 20.2026C8.97579 20.2026 8.72245 20.2782 8.50582 20.4202L5.25105 22.5509L6.27164 18.7971C6.33961 18.5472 6.33318 18.2828 6.25314 18.0365C6.17311 17.7902 6.02294 17.5726 5.82105 17.4103L2.78882 14.9732L6.67453 14.7838ZM59.8522 49.7968C59.1926 47.6666 57.8415 45.7539 56.0477 44.4107C55.2007 43.7755 54.2636 43.2705 53.2673 42.9122C54.635 41.8387 55.5163 40.1723 55.5163 38.3029C55.5163 35.0725 52.8881 32.4444 49.6578 32.4444C46.4275 32.4444 43.7993 35.0725 43.7993 38.3029C43.7993 40.1701 44.6784 41.8349 46.0434 42.9084C44.214 43.5614 42.5933 44.7087 41.3522 46.2546C40.7675 45.4365 40.0965 44.6836 39.3507 44.0091C37.8507 42.6513 36.0727 41.637 34.1406 41.0367C36.172 39.69 37.515 37.3841 37.515 34.7695C37.515 30.6258 34.1436 27.2545 29.9999 27.2545C25.8561 27.2545 22.4848 30.6258 22.4848 34.7695C22.4848 37.3841 23.8276 39.69 25.8591 41.0367C23.9269 41.6369 22.1488 42.6513 20.6488 44.0091C19.903 44.6836 19.2321 45.4364 18.6475 46.2545C17.4064 44.7084 15.7857 43.5612 13.9562 42.9081C15.3211 41.8345 16.2003 40.1698 16.2003 38.3025C16.2003 35.0721 13.5722 32.4441 10.3419 32.4441C7.11152 32.4441 4.48336 35.0721 4.48336 38.3025C4.48336 40.1719 5.36461 41.8384 6.73218 42.9118C5.73593 43.2701 4.79876 43.7752 3.95168 44.4103C2.15789 45.7534 0.806832 47.6662 0.147183 49.7964C-0.157621 50.7803 0.0112459 51.7788 0.622613 52.6083C1.23386 53.4375 2.13785 53.8941 3.16793 53.8941H16.128V55.586C16.128 58.02 18.1082 60.0001 20.5421 60.0001H39.4574C41.8912 60.0001 43.8715 58.02 43.8716 55.586V53.8945H56.8316C57.8618 53.8945 58.7658 53.4379 59.3769 52.6087C59.9882 51.7793 60.157 50.7806 59.8522 49.7968ZM49.6578 34.3194C51.8543 34.3194 53.6413 36.1064 53.6413 38.3029C53.6413 40.4994 51.8543 42.2864 49.6578 42.2864C47.4613 42.2864 45.6743 40.4994 45.6743 38.3029C45.6743 36.1064 47.4613 34.3194 49.6578 34.3194ZM24.3598 34.7695C24.3598 31.6596 26.89 29.1295 29.9999 29.1295C33.1098 29.1295 35.64 31.6596 35.64 34.7695C35.64 37.8785 33.1114 40.4079 30.0029 40.4095H29.9967C26.8882 40.4078 24.3598 37.8784 24.3598 34.7695ZM10.3419 34.3189C12.5384 34.3189 14.3253 36.1059 14.3253 38.3024C14.3253 40.4989 12.5384 42.2859 10.3419 42.2859C8.14535 42.2859 6.35836 40.4989 6.35836 38.3024C6.35836 36.1059 8.14535 34.3189 10.3419 34.3189ZM16.2498 52.0189H3.16804C2.73656 52.0189 2.38804 51.8429 2.13199 51.4956C1.87582 51.1482 1.81078 50.7632 1.93839 50.351C3.08496 46.6485 6.46218 44.1609 10.3419 44.1609C13.2766 44.1609 15.95 45.5789 17.5943 47.9793C16.9409 49.2486 16.4874 50.6112 16.2498 52.0189ZM41.9966 55.5859C41.9965 56.9859 40.8574 58.125 39.4574 58.125H20.5421C19.1421 58.125 18.003 56.9859 18.003 55.5859V53.0074C18.6818 46.8916 23.8291 42.2861 29.9967 42.2845L29.9999 42.2846L30.0029 42.2845C36.1704 42.2862 41.3176 46.8916 41.9966 53.0074V55.5859ZM57.8676 51.4962C57.6116 51.8434 57.2632 52.0194 56.8316 52.0194H43.75C43.5122 50.6116 43.0587 49.249 42.4055 47.9795C44.0498 45.5793 46.7231 44.1614 49.6577 44.1614C53.5375 44.1614 56.9147 46.6491 58.0612 50.3516C58.1889 50.7635 58.1237 51.1486 57.8676 51.4962Z" fill="#F2D701" stroke="#3CA200" stroke-width="2" mask="url(#path-1-inside-1_11387_7786)"/>
</g>
</g>
</g>
<defs>
<clipPath id="clip0_11387_7786">
<rect width="60" height="60" fill="white"/>
</clipPath>
</defs>
</svg>
