<svg width="43" height="16" viewBox="0 0 43 16" fill="none" xmlns="http://www.w3.org/2000/svg">
<path id="Vector" d="M3.20048 1.20866C3.84074 0.994062 4.61442 0.764085 5.5529 0.555806C6.49091 0.348621 7.5956 0.163278 8.88926 0.065924C10.182 -0.0292399 11.666 -0.037365 13.3397 0.149187C15.0106 0.337784 16.8731 0.721204 18.8664 1.44288C19.7246 1.75408 20.4588 2.0795 21.0948 2.39512C21.73 2.71105 22.2665 3.0164 22.7282 3.30242C23.6409 3.86877 24.2771 4.33022 24.7799 4.72454C24.8626 4.78967 24.9406 4.85218 25.0171 4.91345C25.763 4.6821 26.5047 4.5676 27.2109 4.52009C28.2234 4.4539 29.1723 4.52601 30.0508 4.66394C30.9292 4.80374 31.7387 5.01059 32.4827 5.25048C33.9708 5.73289 35.1985 6.33774 36.2244 6.93049C37.2501 7.52698 38.0742 8.11855 38.7493 8.65119C39.4239 9.18493 39.9505 9.66021 40.3696 10.0605C40.712 10.3879 40.9811 10.6644 41.1957 10.8915C40.6645 9.56243 40.1561 8.28746 40.0911 8.08916C39.8006 7.20585 40.7248 6.19576 40.8708 6.57135C41.1619 7.32207 42.4994 11.5162 42.9899 13.0667C43.0602 13.2891 42.7493 14.1165 42.518 14.0539C42.4998 14.0604 42.4814 14.0643 42.4604 14.0638C41.6284 14.0338 37.3631 13.4436 35.685 13.3178C35.4194 13.2981 34.8469 12.3947 35.235 12.3454C35.9906 12.2496 38.3008 12.2993 39.9824 12.3602C39.9655 12.3408 39.9485 12.3215 39.931 12.3005C39.7235 12.0641 39.4471 11.7562 39.073 11.3774C38.6981 10.9989 38.226 10.5486 37.6189 10.0426C37.0114 9.53776 36.2674 8.97608 35.3406 8.4064C34.4135 7.84046 33.3009 7.26216 31.9615 6.7953C31.2922 6.56305 30.5653 6.36064 29.7845 6.22005C29.004 6.08024 28.1657 6.00116 27.2928 6.0404C27.0063 6.05381 26.7149 6.08005 26.423 6.12282L27.2446 6.84684C27.4523 7.03235 27.8079 7.34979 28.2459 7.80771C28.6819 8.26548 29.2025 8.86652 29.6934 9.63372C29.9387 10.0169 30.1739 10.4423 30.3808 10.9074C30.587 11.3708 30.7722 11.8809 30.877 12.4429C30.9284 12.7238 30.9599 13.0182 30.9536 13.3245C30.9469 13.6299 30.9042 13.9492 30.7978 14.2636C30.6933 14.5781 30.5218 14.8864 30.2844 15.1462C30.0482 15.4065 29.7499 15.6123 29.4318 15.7492C29.1132 15.8871 28.7775 15.9605 28.4465 15.9874C28.1148 16.0147 27.787 15.9959 27.4699 15.9475C26.8339 15.8485 26.2395 15.631 25.6927 15.3562C25.1452 15.0798 24.6446 14.7425 24.189 14.3752C23.7336 14.006 23.3238 13.6109 22.9535 13.1944C22.2156 12.3618 21.6473 11.4485 21.3329 10.5152C21.1766 10.0495 21.0858 9.5779 21.076 9.12234C21.0657 8.66787 21.1422 8.23062 21.2847 7.85985C21.3527 7.68346 21.4363 7.51164 21.5369 7.35282C21.5869 7.27263 21.6408 7.19538 21.6975 7.1206C21.7528 7.04911 21.7992 6.99125 21.8527 6.92867C22.0608 6.68163 22.2875 6.45601 22.5247 6.25152C22.9697 5.87083 23.4542 5.5674 23.9474 5.3302C23.467 5.05366 22.8874 4.72504 22.1357 4.30973C21.6825 4.06015 21.1628 3.78511 20.5549 3.49162C19.9473 3.1989 19.2503 2.88727 18.4397 2.57482C16.5679 1.85532 14.8114 1.44688 13.2267 1.22044C11.64 0.995727 10.2229 0.952098 8.98076 0.993118C7.73737 1.03555 6.66703 1.16249 5.75088 1.31181C4.8338 1.46333 4.07014 1.63756 3.43307 1.80191C2.79522 1.96658 2.28428 2.12216 1.8721 2.25291C1.46023 2.38444 1.14774 2.4927 0.909995 2.57505L0.207984 2.82297C0.102288 2.86421 -0.1218 2.64278 0.0839305 2.55081C0.120508 2.53591 0.270094 2.44415 0.720042 2.22096C1.17174 2.00432 1.92108 1.64285 3.20048 1.20866ZM24.6535 6.61433C24.2268 6.80086 23.8164 7.04329 23.4472 7.3469C23.2623 7.49926 23.088 7.66636 22.927 7.85069C22.8878 7.89478 22.8445 7.94685 22.8119 7.9873C22.7811 8.02525 22.7527 8.0649 22.7258 8.10579C22.6716 8.18679 22.627 8.27568 22.5884 8.36843C22.509 8.56392 22.4543 8.81105 22.4526 9.10633C22.4506 9.40084 22.5015 9.74087 22.6113 10.1031C22.8286 10.8286 23.2784 11.6307 23.9005 12.3816C24.525 13.1315 25.3102 13.855 26.2192 14.3585C26.673 14.6096 27.1594 14.8049 27.6518 14.9007C28.1415 14.9967 28.6416 14.9888 29.0519 14.8289C29.4639 14.6729 29.7668 14.3645 29.9211 13.9536C30.0786 13.544 30.0898 13.0554 30.0216 12.5856C29.9529 12.1123 29.8095 11.654 29.6367 11.2214C29.4652 10.79 29.2641 10.3905 29.0509 10.026C28.6244 9.29691 28.1548 8.70958 27.7555 8.25765C27.3547 7.80635 27.0222 7.48766 26.8272 7.30425C26.3744 6.88137 25.9897 6.59484 25.5937 6.32742C25.5801 6.31846 25.5664 6.30951 25.5528 6.30055C25.2491 6.38349 24.948 6.48622 24.6535 6.61433Z" fill="#16171A"/>
</svg>
